<svg width="64" height="23" viewBox="0 0 64 23" fill="none" xmlns="http://www.w3.org/2000/svg">
<g clip-path="url(#clip0_2006_1182)">
<path d="M4.35242 -0.00146484L3.26246 3.00759H18.3658L19.4558 -0.00146484H4.35242ZM2.71781 4.51113L1.62785 7.51953H16.7312L17.8212 4.51113H2.71781ZM1.08581 9.02374L-0.00415039 12.0321H15.0992L16.1885 9.02374H1.08581Z" fill="#00AAFF"/>
<path d="M32.1045 13.179V13.2427C32.7948 13.4977 33.4544 13.9445 33.7999 14.2311C34.867 15.1241 35.3385 16.3037 35.3385 17.8342C35.3385 20.3543 34.0199 22.1713 31.8537 22.7457C31.1941 22.9369 30.5039 23.0006 29.2167 23.0006H22.6567V4.56909H28.4643C29.6575 4.56909 30.4732 4.63283 31.1948 4.82341C33.2983 5.39775 34.6795 6.86449 34.6795 9.19209C34.6795 10.4361 34.24 11.4888 33.5184 12.19C33.2043 12.5087 32.7648 12.8918 32.1058 13.1783L32.1045 13.179ZM26.2975 15.1241V19.9712H28.8092C29.5621 19.9712 30.2531 19.9075 30.7553 19.4291C31.2575 18.9507 31.4769 18.3448 31.4769 17.5477C31.4769 16.9424 31.3195 16.3681 31.0061 15.9534C30.4725 15.2838 29.8129 15.1241 28.6831 15.1241H26.2968H26.2975ZM26.2655 11.935H28.3063C28.9339 11.935 29.248 11.935 29.5615 11.8397C30.4098 11.5841 30.9434 10.8198 30.9434 9.76709C30.9434 8.52378 30.3785 7.98098 29.5615 7.72666C29.216 7.63072 28.8712 7.59918 28.1803 7.59918H26.2655V11.9357V11.935ZM40.8 23.0013V7.66226H35.5579V4.56975H50.1244L49.0887 7.66226H44.4421V23.0013H40.8007H40.8ZM51.2542 23.0013V4.56975H63.0583L62.0226 7.66226H54.865V11.7444H57.7848C60.1391 11.7444 61.3636 12.3188 62.2113 13.0515C62.8709 13.6258 64.0007 14.9007 64.0007 17.4208C64.0007 19.9081 62.8395 21.2789 61.8658 21.9807C60.736 22.7772 59.5429 23.0013 57.1252 23.0013H51.2549H51.2542ZM54.8643 19.9075H57.5955C58.6312 19.9075 59.2588 19.6525 59.6983 19.0781C59.9177 18.7916 60.2319 18.2804 60.2319 17.3242C60.2319 16.3681 59.9177 15.6978 59.2901 15.2194C58.914 14.9329 58.4111 14.7739 57.5634 14.7739H54.8637V19.9075H54.8643Z" fill="#0A2896"/>
</g>
<defs>
<clipPath id="clip0_2006_1182">
<rect width="64" height="23" fill="white"/>
</clipPath>
</defs>
</svg>
