<svg width="112" height="34" viewBox="0 0 112 34" fill="none" xmlns="http://www.w3.org/2000/svg">
<g clip-path="url(#clip0_2324_2951)">
<mask id="mask0_2324_2951" style="mask-type:luminance" maskUnits="userSpaceOnUse" x="0" y="0" width="112" height="34">
<path d="M111.99 0H0V33.9798H111.99V0Z" fill="white"/>
</mask>
<g mask="url(#mask0_2324_2951)">
<path d="M22.7963 0L11.4033 11.33H22.7963V33.9798L34.1993 22.6801V0H22.7963Z" fill="#EA5616"/>
<path d="M11.4031 33.9798L22.796 22.6499H11.4031V0L0 11.2997V33.9798H11.4031Z" fill="#2C2D84"/>
<path d="M45.5918 28.3098H51.5827V10.7549H60.7011V28.3098H66.6819V5.65996H45.5918V28.3098ZM103.724 14.1448H98.6166V10.7549H109.999V5.65996H92.6257V28.3098C92.6257 28.3098 101.165 28.3098 104.008 28.3098C108.568 28.3098 111.99 26.0398 111.99 21.2273C111.99 16.4149 108.568 14.1448 103.724 14.1448ZM103.156 23.4973H98.6166V18.9674H103.156C104.567 18.9674 105.999 19.5223 105.999 21.2273C105.999 22.9324 104.567 23.4973 103.156 23.4973ZM81.3242 23.4873C77.3336 23.4873 75.0895 20.5816 75.0895 16.9798C75.0895 14.0944 76.7243 10.4724 81.2125 10.4724C84.015 10.4724 85.8224 12.1775 86.4622 12.9644L90.0973 9.35254C87.904 6.74957 84.6039 5.09497 80.918 5.09497C74.3077 5.09497 69.0884 9.95788 69.0884 16.9899C69.0884 23.5579 74.3077 28.8849 80.918 28.8849C84.8781 28.8849 88.3813 26.9781 90.5644 24.0321L86.9089 20.3798C85.7514 22.1858 83.8627 23.4873 81.3242 23.4873Z" fill="#2C2D84"/>
</g>
</g>
<defs>
<clipPath id="clip0_2324_2951">
<rect width="112" height="34" fill="white"/>
</clipPath>
</defs>
</svg>
