<svg width="72" height="20" viewBox="0 0 72 20" fill="none" xmlns="http://www.w3.org/2000/svg">
<g clip-path="url(#clip0_1944_9340)">
<path d="M27.3638 0.413845L21.1803 16.7083H24.5017L25.7728 13.3037H32.3336L33.6103 16.7083H36.9071L30.7618 0.413845H27.3638ZM26.9128 10.313L29.0724 4.57989L31.2238 10.313H26.9128ZM40.8763 12.5064L38.1946 5.26137H35.0263L39.3454 16.7083H42.4864L46.7291 5.26137H43.5607L40.8763 12.5064ZM50.7148 5.26137H47.6996V16.7083H50.7148V5.26137ZM49.2058 4.43642C50.4196 4.43642 51.4037 3.44329 51.4037 2.21821C51.4037 0.993127 50.4196 0 49.2058 0C47.9919 0 47.0079 0.993127 47.0079 2.21821C47.0079 3.44329 47.9919 4.43642 49.2058 4.43642ZM56.6906 2.20717H53.6835V5.24204H51.9203V8.001H53.6835V12.8651C53.6835 15.6241 55.1898 16.8104 57.3112 16.8104C58.027 16.8199 58.7372 16.6799 59.3969 16.3993V13.5631C59.0368 13.6962 58.6568 13.7661 58.2734 13.77C57.3521 13.77 56.6879 13.4086 56.6879 12.1698V8.001H59.3969V5.26963H56.6906V2.20717ZM65.7362 5.05445C64.5735 5.05391 63.4368 5.4014 62.4699 6.05299C61.5029 6.7046 60.7492 7.63093 60.304 8.71493C59.8588 9.799 59.7422 10.9919 59.9689 12.1428C60.1956 13.2937 60.7554 14.3509 61.5775 15.1807C62.3996 16.0104 63.4471 16.5754 64.5875 16.8042C65.7279 17.0329 66.9097 16.9153 67.9838 16.4659C69.0579 16.0167 69.976 15.2559 70.6214 14.2801C71.2667 13.3041 71.6115 12.1569 71.6109 10.9835C71.6102 9.4112 70.9906 7.9036 69.8895 6.7918C68.7877 5.68008 67.2942 5.05518 65.7362 5.05445ZM65.7362 13.8831C65.17 13.8837 64.6164 13.7147 64.1453 13.3977C63.6743 13.0806 63.307 12.6297 63.09 12.1019C62.8729 11.5741 62.8159 10.9932 62.926 10.4327C63.0361 9.87213 63.3085 9.3572 63.7087 8.95293C64.1088 8.54867 64.6188 8.27327 65.1741 8.1616C65.7293 8.04987 66.3047 8.10693 66.8278 8.32547C67.351 8.54407 67.7982 8.91427 68.1133 9.3894C68.4277 9.86447 68.5955 10.4231 68.5955 10.9945C68.5942 11.7587 68.2923 12.491 67.7559 13.0306C67.2195 13.5702 66.4936 13.8729 65.7362 13.8721V13.8831Z" fill="black"/>
<path d="M5.87737 18.3333C9.12332 18.3333 11.7548 15.6776 11.7548 12.4015C11.7548 9.12549 9.12332 6.46973 5.87737 6.46973C2.63139 6.46973 0 9.12549 0 12.4015C0 15.6776 2.63139 18.3333 5.87737 18.3333Z" fill="#04E061"/>
<path d="M16.0712 17.5858C18.0324 17.5858 19.6222 15.9812 19.6222 14.0019C19.6222 12.0226 18.0324 10.418 16.0712 10.418C14.11 10.418 12.5201 12.0226 12.5201 14.0019C12.5201 15.9812 14.11 17.5858 16.0712 17.5858Z" fill="#FF4053"/>
<path d="M7.0009 5.7001C8.21472 5.7001 9.19875 4.70697 9.19875 3.48189C9.19875 2.2568 8.21472 1.26367 7.0009 1.26367C5.78706 1.26367 4.80304 2.2568 4.80304 3.48189C4.80304 4.70697 5.78706 5.7001 7.0009 5.7001Z" fill="#965EEB"/>
<path d="M14.6907 9.64533C17.3298 9.64533 19.4691 7.4862 19.4691 4.82268C19.4691 2.15919 17.3298 0 14.6907 0C12.0516 0 9.91223 2.15919 9.91223 4.82268C9.91223 7.4862 12.0516 9.64533 14.6907 9.64533Z" fill="#00AAFF"/>
</g>
<defs>
<clipPath id="clip0_1944_9340">
<rect width="72" height="20" fill="white"/>
</clipPath>
</defs>
</svg>
