<svg width="79" height="34" viewBox="0 0 79 34" fill="none" xmlns="http://www.w3.org/2000/svg">
<g clip-path="url(#clip0_1958_10722)">
<path d="M73.0339 17.0175L78.8816 0.20166L61.9507 5.15661L62.7927 1.67266L48.1581 6.78246L48.6326 3.62367L39.4783 7.07666L30.3241 3.62367L30.7986 6.78246L16.1641 1.67266L17.006 5.15661L0.0598755 0.20166L5.90759 17.0175L0.0598755 33.8333L17.006 28.8785L16.1641 32.3624L30.7986 27.268L30.3241 30.4114L39.4783 26.9584L48.6326 30.4114L48.1581 27.268L62.7927 32.3624L61.9507 28.8785L78.8816 33.8333L73.0339 17.0175Z" fill="#EF3124"/>
<path d="M69.2064 19.882H67.3387L65.1956 17.4665V19.882H63.7414V14.1529H65.1956V16.4291L67.201 14.1529H69.0226L66.5733 16.8781L69.2064 19.882ZM61.1849 16.2897H59.1795V14.1529H57.7405V19.882H59.1947V17.6214H61.2001V19.882H62.6545V14.1529H61.2001V16.2897H61.1849ZM19.118 17.2498C19.0874 18.3182 18.9496 18.535 18.3526 18.535V19.882H18.5669C20.0518 19.882 20.4038 19.108 20.4651 17.3891L20.5263 15.4846H21.9195V19.882H23.3737V14.1529H19.2251L19.118 17.2498ZM29.1295 17.8691C29.1295 18.8446 28.5632 19.882 26.9864 19.882H24.4758V14.1529H25.9301V15.8872H26.9711C28.3489 15.8872 29.1295 16.5994 29.1295 17.8691ZM27.66 17.8691C27.66 17.3891 27.3538 17.1723 26.8487 17.1723H25.9149V18.6278H26.8487C27.3691 18.6278 27.66 18.3801 27.66 17.8691ZM36.6306 17.0175C36.6306 18.6898 35.5131 19.882 33.8598 20.0215V22.1738H32.4055V20.0215C30.7521 19.882 29.6347 18.6898 29.6347 17.0175C29.6347 15.3607 30.7521 14.1684 32.4055 14.029V11.8922H33.8598V14.0136C35.5131 14.1529 36.6306 15.3452 36.6306 17.0175ZM32.4055 15.3916C31.5942 15.5 31.1043 16.1194 31.1043 17.0175C31.1043 17.9155 31.6095 18.5194 32.4055 18.6433V15.3916ZM35.161 17.0175C35.161 16.1194 34.6557 15.5155 33.8598 15.3916V18.6278C34.6557 18.5194 35.161 17.9155 35.161 17.0175ZM42.4324 18.5659V19.882H41.9271C41.376 19.882 40.9474 19.6652 40.7638 19.2781C40.5495 19.6033 40.0596 20.0215 39.1717 20.0215C37.9623 20.0215 37.1358 19.2008 37.1358 18.0086C37.1358 16.8627 37.9012 16.1813 39.1871 16.1813H40.6259C40.6259 15.4846 40.2586 15.2213 39.7075 15.2213C39.0186 15.2213 38.8043 15.593 38.7584 15.7942H37.2888C37.3653 14.8187 38.1766 13.8742 39.7075 13.8742C41.1924 13.8742 42.0802 14.7568 42.0802 16.1659V18.0859C42.065 18.4421 42.1722 18.5659 42.4324 18.5659ZM40.6106 17.3736H39.4473C39.0492 17.3736 38.6054 17.4665 38.6054 18.0239C38.6054 18.5969 39.0186 18.7826 39.5391 18.7826C40.1361 18.7826 40.6106 18.411 40.6106 17.7452V17.3736ZM51.005 17.4047C51.005 19.0149 50.0099 19.882 48.2647 19.882H45.1266V11.8922H50.3926V13.3477H46.6421V14.9736H48.2647C50.0099 14.9736 51.005 15.8872 51.005 17.4047ZM49.4588 17.4047C49.4588 16.7388 48.9996 16.3672 48.2035 16.3672H46.6574V18.4421H48.2035C49.0148 18.4421 49.4588 18.0859 49.4588 17.4047ZM56.9139 18.5659V19.882H56.4087C55.8576 19.882 55.429 19.6652 55.2452 19.2781C55.0309 19.6033 54.541 20.0215 53.6533 20.0215C52.4439 20.0215 51.6172 19.2008 51.6172 18.0086C51.6172 16.8627 52.3826 16.1813 53.6686 16.1813H55.1075C55.1075 15.4846 54.7402 15.2213 54.189 15.2213C53.5002 15.2213 53.2859 15.593 53.2398 15.7942H51.7704C51.8468 14.8187 52.6582 13.8742 54.189 13.8742C55.6738 13.8742 56.5618 14.7568 56.5618 16.1659V18.0859C56.5618 18.4421 56.6536 18.5659 56.9139 18.5659ZM55.1075 17.3736H53.944C53.5461 17.3736 53.1021 17.4665 53.1021 18.0239C53.1021 18.5969 53.5154 18.7826 54.036 18.7826C54.633 18.7826 55.1075 18.411 55.1075 17.7452V17.3736ZM12.2753 19.882H10.6832C10.6832 19.882 10.6832 19.882 13.0866 12.9916C13.3162 12.3258 13.5918 11.7993 14.4643 11.7993C15.3369 11.7993 15.5971 12.3258 15.8114 12.9916C18.0923 19.882 18.0923 19.882 18.0923 19.882H16.4085L15.888 18.2407H12.8264L12.2753 19.882ZM13.2856 16.8627H15.4441L14.4184 13.5955H14.3725L13.2856 16.8627ZM10.5148 23.7221H18.2608V22.0963H10.5148V23.7221Z" fill="white"/>
</g>
<defs>
<clipPath id="clip0_1958_10722">
<rect width="79" height="34" fill="white"/>
</clipPath>
</defs>
</svg>
