<svg width="132" height="56" viewBox="0 0 132 56" fill="none" xmlns="http://www.w3.org/2000/svg">
<g clip-path="url(#clip0_509_5)">
<path d="M122.031 28.0288L131.802 0.332092L103.513 8.49318L104.92 2.75492L80.4668 11.1711L81.2596 5.96835L65.9639 11.6556L50.6681 5.96835L51.461 11.1711L27.0084 2.75492L28.4152 8.49318L0.100098 0.332092L9.87097 28.0288L0.100098 55.7254L28.4152 47.5645L27.0084 53.3026L51.461 44.912L50.6681 50.0893L65.9639 44.4021L81.2596 50.0893L80.4668 44.912L104.92 53.3026L103.513 47.5645L131.802 55.7254L122.031 28.0288Z" fill="#EF3124"/>
<path d="M115.636 32.7469H112.515L108.934 28.7684V32.7469H106.505V23.3108H108.934V27.0598L112.285 23.3108H115.329L111.236 27.7994L115.636 32.7469ZM102.233 26.8302H98.8822V23.3108H96.4777V32.7469H98.9076V29.0237H102.258V32.7469H104.689V23.3108H102.258V26.8302H102.233ZM31.944 28.4115C31.8929 30.1712 31.6626 30.5283 30.665 30.5283V32.7469H31.0231C33.5043 32.7469 34.0925 31.472 34.1948 28.641L34.2972 25.5041H36.625V32.7469H39.0549V23.3108H32.123L31.944 28.4115ZM48.6721 29.4316C48.6721 31.0382 47.7258 32.7469 45.0912 32.7469H40.8963V23.3108H43.3262V26.1672H45.0656C47.3677 26.1672 48.6721 27.3403 48.6721 29.4316ZM46.2168 29.4316C46.2168 28.641 45.7051 28.2839 44.8612 28.2839H43.3008V30.6812H44.8612C45.7307 30.6812 46.2168 30.2733 46.2168 29.4316ZM61.2055 28.0289C61.2055 30.7832 59.3384 32.7469 56.5758 32.9766V36.5217H54.1459V32.9766C51.3833 32.7469 49.5162 30.7832 49.5162 28.0289C49.5162 25.3001 51.3833 23.3363 54.1459 23.1068V19.5873H56.5758V23.0813C59.3384 23.3108 61.2055 25.2746 61.2055 28.0289ZM54.1459 25.351C52.7903 25.5296 51.9718 26.5497 51.9718 28.0289C51.9718 29.508 52.8159 30.5027 54.1459 30.7068V25.351ZM58.75 28.0289C58.75 26.5497 57.9058 25.5551 56.5758 25.351V30.6812C57.9058 30.5027 58.75 29.508 58.75 28.0289ZM70.8997 30.5791V32.7469H70.0555C69.1346 32.7469 68.4185 32.3899 68.1117 31.7523C67.7536 32.2879 66.9351 32.9766 65.4515 32.9766C63.4307 32.9766 62.0497 31.625 62.0497 29.6613C62.0497 27.7739 63.3286 26.6517 65.4771 26.6517H67.8813C67.8813 25.5041 67.2675 25.0705 66.3467 25.0705C65.1957 25.0705 64.8376 25.6826 64.761 26.0142H62.3054C62.4331 24.4074 63.7888 22.8517 66.3467 22.8517C68.8279 22.8517 70.3112 24.3054 70.3112 26.6262V29.7886C70.2858 30.3753 70.4649 30.5791 70.8997 30.5791ZM67.8557 28.6155H65.9119C65.2468 28.6155 64.5052 28.7684 64.5052 29.6866C64.5052 30.6303 65.1957 30.9362 66.0653 30.9362C67.0628 30.9362 67.8557 30.3242 67.8557 29.2275V28.6155ZM85.2235 28.6666C85.2235 31.3188 83.5608 32.7469 80.6449 32.7469H75.4014V19.5873H84.2003V21.9846H77.9336V24.6625H80.6449C83.5608 24.6625 85.2235 26.1672 85.2235 28.6666ZM82.64 28.6666C82.64 27.5698 81.8728 26.9578 80.5425 26.9578H77.9592V30.3753H80.5425C81.8981 30.3753 82.64 29.7886 82.64 28.6666ZM95.0967 30.5791V32.7469H94.2525C93.3317 32.7469 92.6155 32.3899 92.3085 31.7523C91.9504 32.2879 91.1319 32.9766 89.6485 32.9766C87.6277 32.9766 86.2464 31.625 86.2464 29.6613C86.2464 27.7739 87.5254 26.6517 89.6742 26.6517H92.0784C92.0784 25.5041 91.4646 25.0705 90.5437 25.0705C89.3928 25.0705 89.0347 25.6826 88.9577 26.0142H86.5025C86.6302 24.4074 87.9858 22.8517 90.5437 22.8517C93.0246 22.8517 94.5083 24.3054 94.5083 26.6262V29.7886C94.5083 30.3753 94.6617 30.5791 95.0967 30.5791ZM92.0784 28.6155H90.1343C89.4695 28.6155 88.7276 28.7684 88.7276 29.6866C88.7276 30.6303 89.4181 30.9362 90.288 30.9362C91.2855 30.9362 92.0784 30.3242 92.0784 29.2275V28.6155ZM20.5106 32.7469H17.8505C17.8505 32.7469 17.8505 32.7469 21.8662 21.398C22.2499 20.3014 22.7103 19.4343 24.1683 19.4343C25.6262 19.4343 26.0611 20.3014 26.4191 21.398C30.2303 32.7469 30.2303 32.7469 30.2303 32.7469H27.4167L26.547 30.0436H21.4314L20.5106 32.7469ZM22.1987 27.7739H25.8053L24.0915 22.3927H24.0148L22.1987 27.7739ZM17.5691 39.0718H30.5117V36.3941H17.5691V39.0718Z" fill="white"/>
</g>
<defs>
<clipPath id="clip0_509_5">
<rect width="132" height="56" fill="white"/>
</clipPath>
</defs>
</svg>
