<svg width="166" height="46" viewBox="0 0 166 46" fill="none" xmlns="http://www.w3.org/2000/svg">
<path d="M63.0889 0.951844L48.8324 38.4292H56.4901L59.4208 30.5986H74.547L77.4904 38.4292H85.0914L70.9231 0.951844H63.0889ZM62.0491 23.7199L67.028 10.5337L71.9882 23.7199H62.0491ZM94.2426 28.7647L88.0597 12.1012H80.7551L90.7132 38.4292H97.9549L107.737 12.1012H100.432L94.2426 28.7647ZM116.926 12.1012H109.974V38.4292H116.926V12.1012ZM113.447 10.2038C116.245 10.2038 118.514 7.91957 118.514 5.10189C118.514 2.28419 116.245 0 113.447 0C110.648 0 108.379 2.28419 108.379 5.10189C108.379 7.91957 110.648 10.2038 113.447 10.2038ZM130.703 5.0765H123.77V12.0567H119.705V18.4023H123.77V29.5897C123.77 35.9354 127.243 38.6639 132.134 38.6639C133.785 38.6858 135.422 38.3638 136.943 37.7185V31.1951C136.113 31.5013 135.237 31.6621 134.353 31.671C132.229 31.671 130.697 30.8398 130.697 27.9905V18.4023H136.943V12.1201H130.703V5.0765ZM151.559 11.6252C148.878 11.624 146.257 12.4232 144.028 13.9219C141.799 15.4206 140.061 17.5511 139.034 20.0443C138.008 22.5377 137.739 25.2813 138.262 27.9284C138.784 30.5754 140.075 33.007 141.97 34.9155C143.866 36.8239 146.281 38.1234 148.91 38.6497C151.539 39.1757 154.264 38.9051 156.741 37.8716C159.217 36.8383 161.334 35.0886 162.822 32.8442C164.309 30.5995 165.104 27.9609 165.103 25.262C165.101 21.6458 163.673 18.1783 161.134 15.6211C158.594 13.0642 155.151 11.6269 151.559 11.6252ZM151.559 31.9312C150.253 31.9324 148.977 31.5439 147.891 30.8146C146.805 30.0854 145.958 29.0482 145.458 27.8343C144.957 26.6204 144.826 25.2844 145.079 23.9951C145.333 22.7059 145.961 21.5216 146.884 20.5917C147.806 19.6619 148.982 19.0285 150.263 18.7717C151.543 18.5147 152.869 18.6459 154.075 19.1486C155.282 19.6514 156.313 20.5028 157.039 21.5956C157.764 22.6883 158.151 23.9731 158.151 25.2874C158.148 27.0449 157.452 28.7293 156.215 29.9704C154.978 31.2115 153.305 31.9076 151.559 31.9059V31.9312Z" fill="white"/>
<path d="M13.5506 42.1667C21.0343 42.1667 27.1013 36.0585 27.1013 28.5236C27.1013 20.9888 21.0343 14.8805 13.5506 14.8805C6.06681 14.8805 0 20.9888 0 28.5236C0 36.0585 6.06681 42.1667 13.5506 42.1667Z" fill="#04E061"/>
<path d="M37.053 40.447C41.5746 40.447 45.24 36.7566 45.24 32.2041C45.24 27.6516 41.5746 23.9611 37.053 23.9611C32.5314 23.9611 28.8659 27.6516 28.8659 32.2041C28.8659 36.7566 32.5314 40.447 37.053 40.447Z" fill="#FF4053"/>
<path d="M16.141 13.1102C18.9395 13.1102 21.2082 10.826 21.2082 8.00826C21.2082 5.19056 18.9395 2.90637 16.141 2.90637C13.3424 2.90637 11.0737 5.19056 11.0737 8.00826C11.0737 10.826 13.3424 13.1102 16.141 13.1102Z" fill="#965EEB"/>
<path d="M33.8703 22.1843C39.9547 22.1843 44.8872 17.2183 44.8872 11.0922C44.8872 4.96613 39.9547 0 33.8703 0C27.7857 0 22.8532 4.96613 22.8532 11.0922C22.8532 17.2183 27.7857 22.1843 33.8703 22.1843Z" fill="#00AAFF"/>
</svg>
