<svg width="151" height="45" viewBox="0 0 151 45" fill="none" xmlns="http://www.w3.org/2000/svg">
<g clip-path="url(#clip0_949_2263)">
<path d="M0 17.1493H5.87465L5.66362 18.2539H1.34996V21.878H4.93433V22.9671H1.34996V28.276H0V17.1493Z" fill="white"/>
<path d="M10.6445 17.0996H11.9635V24.2361C11.952 24.8082 11.9905 25.3802 12.0783 25.9457C12.2738 26.8238 13.0869 27.3109 14.3406 27.3109C15.2716 27.3109 15.9699 27.0689 16.3113 26.6128C16.6526 26.1567 16.7333 25.7502 16.7333 24.7108V17.0996H18.0522V24.8566C18.0522 26.4546 17.8909 26.9883 17.205 27.5933C16.5192 28.1984 15.6285 28.4528 14.2786 28.4528C12.5531 28.4528 11.4855 27.9036 10.9735 26.8455C10.7252 26.3553 10.6445 26.1257 10.6445 24.8908V17.0996Z" fill="white"/>
<path d="M22.9028 17.0996H30.295L30.2112 18.2197H27.1854V28.2635H25.9006V18.2197H22.9028V17.0996Z" fill="white"/>
<path d="M35.2293 17.0996H36.5358V24.2361C36.5244 24.8082 36.5628 25.3802 36.6506 25.9457C36.8462 26.8238 37.6592 27.3109 38.913 27.3109C39.844 27.3109 40.5423 27.0689 40.8836 26.6128C41.225 26.1567 41.3057 25.7502 41.3057 24.7108V17.0996H42.6246V24.8566C42.6246 26.4546 42.4601 26.9883 41.7805 27.5933C41.1009 28.1984 40.1978 28.4528 38.8478 28.4528C37.1224 28.4528 36.0548 27.9036 35.5428 26.8455C35.3007 26.3553 35.2324 26.1257 35.2324 24.8908L35.2293 17.0996Z" fill="white"/>
<path d="M48.5923 17.1151H51.1961C52.7291 17.1151 53.4739 17.3913 54.0108 17.8319C54.364 18.1109 54.6477 18.4679 54.8399 18.8748C55.0321 19.2817 55.1276 19.7276 55.1187 20.1776C55.1187 22.0144 53.9301 23.2338 52.155 23.2338H51.9936C52.4191 23.5984 52.7966 24.0154 53.117 24.475C53.3436 24.7853 53.6384 25.2289 54.0294 25.7812C54.4204 26.3335 55.6897 28.2635 55.6897 28.2635H54.0108C53.7795 27.7176 53.4913 27.1977 53.1512 26.7121C52.4498 25.654 51.7671 24.6767 51.165 23.9444C50.7243 23.3921 50.4792 23.2401 49.9237 23.2276V28.2573H48.5892L48.5923 17.1151ZM49.9423 18.2352V22.4054H51.1216C52.1178 22.4054 52.7384 22.244 53.145 21.8345C53.5174 21.4932 53.7129 20.8881 53.7129 20.159C53.7155 19.8017 53.6138 19.4515 53.4203 19.1511C53.2268 18.8508 52.95 18.6134 52.6236 18.4679C52.1762 18.2977 51.6993 18.2185 51.2209 18.2352H49.9423Z" fill="white"/>
<path d="M61.1609 17.1803H67.259L67.0821 18.288H62.5109V21.9028H66.328V23.0539H62.5109V27.1062H67.4235V28.2635H61.1609V17.1803Z" fill="white"/>
<path d="M92.9114 17.0996H100.304L100.22 18.2197H97.1909V28.2635H95.903V18.2197H92.9114V17.0996Z" fill="white"/>
<path d="M109.024 16.9134C109.717 16.8888 110.405 17.0432 111.02 17.3617C111.636 17.6802 112.16 18.152 112.54 18.7317C113.241 19.7773 113.552 21.0774 113.552 22.8708C113.552 25.018 113.065 26.3677 111.923 27.4071C111.547 27.7666 111.103 28.0471 110.616 28.232C110.13 28.4169 109.612 28.5025 109.092 28.4838C108.491 28.497 107.895 28.377 107.346 28.1324C106.797 27.8877 106.309 27.5246 105.918 27.0689C105.039 26.0574 104.58 24.5432 104.58 22.6412C104.58 19.0854 106.274 16.9134 109.024 16.9134ZM109.024 17.987C108.546 17.969 108.071 18.0799 107.65 18.3081C107.229 18.5362 106.877 18.8733 106.631 19.284C106.243 20.0193 106.06 20.9843 106.06 22.3682C106.06 24.0406 106.34 25.5082 106.78 26.256C107.221 27.0037 108.245 27.463 109.154 27.463C109.554 27.482 109.952 27.4043 110.315 27.2362C110.679 27.0682 110.996 26.815 111.24 26.498C111.792 25.7999 112.053 24.9032 112.053 23.0632C112.053 21.4218 111.888 20.3017 111.516 19.5167C111.3 19.0422 110.948 18.6425 110.504 18.3685C110.06 18.0945 109.545 17.9585 109.024 17.9777V17.987Z" fill="white"/>
<path d="M118.706 17.1958H120.947C122.657 17.1958 123.43 17.2765 124.525 18.0615C125.795 18.9706 126.415 20.5623 126.415 22.7436C126.415 24.6953 125.894 26.0481 125.146 26.8797C124.168 27.9718 123.371 28.2635 121.63 28.2635H118.716L118.706 17.1958ZM120.041 18.288V27.1527H121.23C121.687 27.1685 122.145 27.1415 122.598 27.072C122.927 27.0178 123.241 26.8939 123.519 26.7088C123.797 26.5237 124.032 26.2815 124.209 25.9985C124.739 25.0526 124.997 23.979 124.957 22.8957C124.957 21.2139 124.746 20.1745 123.998 19.2778C123.25 18.3811 122.548 18.2725 121.375 18.2725L120.041 18.288Z" fill="white"/>
<path d="M135.778 17.0996L139.471 28.2697H137.96L136.901 24.8349H132.74L131.666 28.2697H130.316L134.04 17.0996H135.778ZM133.109 23.7396H136.56C136.56 23.7396 135.682 20.9471 135.387 19.9976L134.85 18.2694L134.292 19.917C134.233 20.1404 133.109 23.7396 133.109 23.7396Z" fill="white"/>
<path d="M142.385 17.0996H144.033L146.149 21.3629C146.329 21.7197 146.572 22.2441 146.717 22.604C146.879 22.2316 147.093 21.8035 147.319 21.3629L149.467 17.0996H151L147.369 23.9258V28.2697H145.988V23.8389L142.385 17.0996Z" fill="white"/>
<path d="M81.8944 22.8738C81.8212 23.1419 81.67 23.3823 81.4599 23.5643C81.2498 23.7463 80.9904 23.8618 80.7146 23.8961C80.4387 23.9305 80.1589 23.8821 79.9106 23.7571C79.6623 23.6322 79.4567 23.4362 79.32 23.1943C79.1833 22.9523 79.1215 22.6752 79.1426 22.398C79.1637 22.1209 79.2666 21.8563 79.4384 21.6378C79.6102 21.4193 79.843 21.2567 80.1073 21.1707C80.3717 21.0847 80.6556 21.0792 80.9231 21.1549C81.2794 21.2548 81.5816 21.4918 81.7637 21.8139C81.9457 22.136 81.9927 22.5171 81.8944 22.8738Z" fill="white"/>
<path d="M77.7266 21.7134C77.5704 22.2708 77.5831 22.8621 77.763 23.4123C77.943 23.9625 78.2822 24.447 78.7376 24.8044C79.1931 25.1619 79.7443 25.3762 80.3216 25.4203C80.899 25.4644 81.4764 25.3363 81.9809 25.0522C82.4853 24.768 82.8942 24.3407 83.1556 23.8242C83.4171 23.3077 83.5195 22.7252 83.4497 22.1505C83.38 21.5758 83.1414 21.0348 82.764 20.5957C82.3866 20.1567 81.8874 19.8395 81.3296 19.6842C80.5827 19.4762 79.7838 19.5731 79.1083 19.9536C78.4327 20.334 77.9358 20.967 77.7266 21.7134Z" fill="white"/>
<path d="M70.983 12.2592C70.7881 12.9548 70.8038 13.6926 71.0283 14.3793C71.2528 15.066 71.6759 15.6707 72.2442 16.1168C72.8125 16.563 73.5003 16.8307 74.2208 16.8859C74.9412 16.9412 75.6619 16.7816 76.2916 16.4273C76.9213 16.073 77.4317 15.5399 77.7583 14.8955C78.085 14.2511 78.2131 13.5243 78.1265 12.8071C78.04 12.0899 77.7426 11.4145 77.272 10.8662C76.8014 10.318 76.1788 9.92166 75.4829 9.7273C75.0212 9.59791 74.5384 9.56078 74.0623 9.61801C73.5862 9.67525 73.1261 9.82574 72.7082 10.0609C72.2903 10.296 71.9228 10.6112 71.6268 10.9884C71.3308 11.3656 71.112 11.7974 70.983 12.2592Z" fill="white"/>
<path d="M63.6498 5.28096C63.4771 5.90046 63.4919 6.55727 63.6925 7.16833C63.8931 7.77939 64.2704 8.31726 64.7767 8.71393C65.283 9.11059 65.8956 9.34824 66.537 9.3968C67.1785 9.44537 67.8199 9.30268 68.3802 8.98679C68.9405 8.67089 69.3945 8.19596 69.6848 7.62207C69.9752 7.04818 70.0888 6.4011 70.0113 5.76265C69.9338 5.12421 69.6687 4.52307 69.2495 4.03526C68.8303 3.54745 68.2759 3.19488 67.6563 3.02212C66.8254 2.79132 65.9369 2.89953 65.1858 3.32303C64.4346 3.74652 63.8822 4.45069 63.6498 5.28096Z" fill="white"/>
<path d="M54.4887 2.08505C54.3376 2.62771 54.3508 3.20298 54.5267 3.73814C54.7025 4.2733 55.0331 4.74432 55.4767 5.09163C55.9202 5.43895 56.4569 5.64697 57.0187 5.68939C57.5805 5.73182 58.1422 5.60674 58.6329 5.32998C59.1236 5.05322 59.5213 4.6372 59.7755 4.13452C60.0298 3.63184 60.1292 3.06507 60.0613 2.50587C59.9934 1.94668 59.7612 1.42016 59.3941 0.992896C59.0269 0.565632 58.5413 0.256805 57.9986 0.10546C57.6382 0.00493275 57.2614 -0.0235976 56.8899 0.0214893C56.5184 0.0665762 56.1594 0.184401 55.8335 0.368235C55.5076 0.552069 55.221 0.798312 54.9903 1.09289C54.7596 1.38747 54.5891 1.7246 54.4887 2.08505Z" fill="white"/>
<path d="M45.1569 2.3829C45.0268 2.84928 45.0379 3.34377 45.1889 3.80383C45.3399 4.26388 45.6239 4.66884 46.0051 4.96751C46.3862 5.26618 46.8474 5.44513 47.3303 5.48173C47.8132 5.51834 48.2961 5.41097 48.718 5.17318C49.1398 4.93539 49.4817 4.57787 49.7003 4.14583C49.9189 3.71379 50.0045 3.22663 49.9462 2.74597C49.8879 2.2653 49.6884 1.81271 49.3728 1.44543C49.0573 1.07814 48.6398 0.812659 48.1734 0.682554C47.8637 0.595741 47.5398 0.570879 47.2205 0.609387C46.9011 0.647895 46.5925 0.749012 46.3123 0.90696C46.0321 1.06491 45.7858 1.27658 45.5875 1.52984C45.3893 1.78311 45.243 2.073 45.1569 2.3829Z" fill="white"/>
<path d="M37.203 4.89312C37.0937 5.28334 37.1027 5.69721 37.2287 6.08234C37.3548 6.46747 37.5923 6.80655 37.9113 7.05665C38.2302 7.30675 38.6161 7.45663 39.0203 7.48731C39.4244 7.518 39.8286 7.4281 40.1816 7.22902C40.5346 7.02993 40.8206 6.73061 41.0034 6.36893C41.1862 6.00725 41.2576 5.59947 41.2085 5.19722C41.1594 4.79497 40.992 4.41633 40.7276 4.10922C40.4631 3.80212 40.1135 3.58037 39.7229 3.47203C39.2003 3.32791 38.6419 3.39649 38.1697 3.66277C37.6975 3.92905 37.35 4.37139 37.203 4.89312Z" fill="white"/>
<path d="M30.987 8.31239C30.8987 8.62571 30.9055 8.95815 31.0063 9.26764C31.1072 9.57712 31.2977 9.84972 31.5536 10.0509C31.8095 10.2521 32.1194 10.3728 32.444 10.3978C32.7686 10.4228 33.0933 10.3509 33.377 10.1912C33.6607 10.0316 33.8906 9.79131 34.0377 9.50091C34.1847 9.2105 34.2422 8.88299 34.203 8.55987C34.1637 8.23674 34.0294 7.93254 33.8171 7.68577C33.6048 7.439 33.3241 7.26077 33.0104 7.17366C32.5911 7.05806 32.1431 7.1129 31.764 7.32621C31.385 7.53953 31.1057 7.89402 30.987 8.31239Z" fill="white"/>
<path d="M25.823 12.1413C25.7794 12.2984 25.7672 12.4625 25.787 12.6243C25.8068 12.7861 25.8583 12.9424 25.9386 13.0843C26.0189 13.2262 26.1263 13.3509 26.2547 13.4513C26.3832 13.5517 26.5302 13.6258 26.6873 13.6694C27.0046 13.7575 27.3439 13.7159 27.6305 13.5538C27.9171 13.3918 28.1276 13.1225 28.2157 12.8053C28.3038 12.4881 28.2622 12.1488 28.1001 11.8623C27.938 11.5757 27.6687 11.3652 27.3514 11.2772C27.0341 11.1891 26.6948 11.2307 26.4082 11.3927C26.1216 11.5548 25.9111 11.8241 25.823 12.1413Z" fill="white"/>
<path d="M79.1945 22.123C79.2937 21.765 79.531 21.4611 79.8543 21.2781C80.0144 21.1875 80.1908 21.1293 80.3734 21.1068C80.5559 21.0843 80.7412 21.098 80.9184 21.1471C81.0957 21.1962 81.2616 21.2798 81.4066 21.393C81.5516 21.5062 81.6728 21.6468 81.7635 21.8068C81.8541 21.9669 81.9123 22.1432 81.9348 22.3258C81.9573 22.5083 81.9435 22.6935 81.8944 22.8708C81.7953 23.2287 81.5579 23.5326 81.2346 23.7156C80.9113 23.8986 80.5286 23.9457 80.1705 23.8466C79.8125 23.7474 79.5085 23.5101 79.3255 23.1869C79.1425 22.8636 79.0953 22.4809 79.1945 22.123Z" fill="white"/>
<path d="M84.5106 23.5845C84.7268 22.8118 84.709 21.9924 84.4593 21.2299C84.2096 20.4674 83.7393 19.7961 83.1079 19.3009C82.4765 18.8057 81.7124 18.5089 80.9122 18.4481C80.1121 18.3872 79.3118 18.565 78.6128 18.959C77.9137 19.353 77.3473 19.9455 76.9851 20.6614C76.6229 21.3774 76.4813 22.1847 76.5781 22.9811C76.6749 23.7776 77.0059 24.5275 77.5291 25.1358C78.0523 25.7442 78.7442 26.1837 79.5173 26.3987C80.03 26.5443 80.5665 26.5869 81.0957 26.524C81.625 26.4612 82.1365 26.2941 82.6008 26.0324C83.0651 25.7707 83.4729 25.4197 83.8007 24.9995C84.1285 24.5794 84.3698 24.0984 84.5106 23.5845Z" fill="white"/>
<path d="M90.2239 32.7377C90.4189 32.0421 90.4031 31.3042 90.1786 30.6176C89.9541 29.9309 89.531 29.3262 88.9627 28.88C88.3944 28.4338 87.7066 28.1662 86.9861 28.1109C86.2657 28.0557 85.545 28.2153 84.9154 28.5696C84.2857 28.9239 83.7752 29.4569 83.4486 30.1013C83.122 30.7457 82.9938 31.4725 83.0804 32.1898C83.167 32.907 83.4643 33.5824 83.9349 34.1306C84.4055 34.6788 85.0281 35.0752 85.724 35.2696C86.1858 35.3994 86.6686 35.4368 87.1448 35.3798C87.6211 35.3227 88.0814 35.1723 88.4994 34.9371C88.9174 34.7019 89.2849 34.3866 89.5808 34.0092C89.8767 33.6318 90.0952 33.1997 90.2239 32.7377Z" fill="white"/>
<path d="M97.554 39.7159C97.727 39.0963 97.7123 38.4393 97.5117 37.8281C97.3111 37.2168 96.9338 36.6788 96.4273 36.2821C95.9208 35.8853 95.308 35.6477 94.6665 35.5992C94.0249 35.5507 93.3833 35.6936 92.823 36.0098C92.2627 36.326 91.8087 36.8012 91.5186 37.3754C91.2284 37.9496 91.1152 38.5969 91.1931 39.2354C91.271 39.874 91.5365 40.4751 91.9562 40.9627C92.3759 41.4503 92.9308 41.8025 93.5507 41.9747C93.9619 42.0898 94.3918 42.1227 94.8157 42.0714C95.2396 42.0201 95.6493 41.8857 96.0212 41.6759C96.393 41.466 96.7199 41.1849 96.9829 40.8486C97.2459 40.5122 97.44 40.1273 97.554 39.7159Z" fill="white"/>
<path d="M106.718 42.9117C106.869 42.3691 106.856 41.7938 106.68 41.2587C106.504 40.7235 106.174 40.2525 105.73 39.9052C105.287 39.5579 104.75 39.3498 104.188 39.3074C103.627 39.265 103.065 39.3901 102.574 39.6668C102.083 39.9436 101.686 40.3596 101.431 40.8623C101.177 41.365 101.078 41.9317 101.146 42.4909C101.214 43.0501 101.446 43.5766 101.813 44.0039C102.18 44.4312 102.666 44.74 103.208 44.8913C103.936 45.0935 104.715 44.9986 105.373 44.6274C106.031 44.2563 106.515 43.6393 106.718 42.9117Z" fill="white"/>
<path d="M116.047 42.614C116.177 42.1475 116.166 41.6528 116.015 41.1926C115.864 40.7323 115.58 40.3272 115.199 40.0285C114.818 39.7297 114.356 39.5508 113.873 39.5143C113.39 39.4778 112.907 39.5854 112.485 39.8234C112.063 40.0615 111.721 40.4193 111.503 40.8516C111.285 41.284 111.199 41.7713 111.258 42.2521C111.317 42.7329 111.517 43.1855 111.833 43.5526C112.149 43.9196 112.567 44.1847 113.034 44.3143C113.659 44.4878 114.327 44.4063 114.892 44.0875C115.457 43.7687 115.872 43.2387 116.047 42.614Z" fill="white"/>
<path d="M124.001 40.1007C124.109 39.711 124.099 39.298 123.972 38.9139C123.846 38.5298 123.608 38.1919 123.289 37.943C122.97 37.694 122.585 37.5452 122.181 37.5152C121.778 37.4853 121.375 37.5757 121.023 37.7749C120.671 37.9741 120.386 38.2732 120.204 38.6344C120.022 38.9955 119.951 39.4026 120 39.804C120.05 40.2054 120.217 40.5831 120.481 40.8895C120.745 41.1958 121.094 41.4169 121.484 41.5249C121.743 41.597 122.013 41.6174 122.28 41.5848C122.547 41.5522 122.804 41.4673 123.038 41.335C123.272 41.2027 123.477 41.0256 123.642 40.8138C123.808 40.602 123.929 40.3597 124.001 40.1007Z" fill="white"/>
<path d="M130.22 36.6844C130.308 36.3712 130.301 36.039 130.2 35.7296C130.099 35.4203 129.909 35.1479 129.653 34.9468C129.397 34.7457 129.088 34.625 128.763 34.5999C128.439 34.5748 128.114 34.6465 127.831 34.8059C127.547 34.9653 127.317 35.2052 127.17 35.4953C127.022 35.7854 126.965 36.1127 127.003 36.4357C127.042 36.7587 127.176 37.063 127.388 37.3099C127.6 37.5569 127.88 37.7355 128.193 37.8232C128.613 37.9397 129.062 37.8853 129.442 37.6719C129.821 37.4585 130.101 37.1035 130.22 36.6844Z" fill="white"/>
<path d="M132.585 32.8184C132.519 33.055 132.525 33.3057 132.603 33.5388C132.68 33.7719 132.824 33.9768 133.018 34.1278C133.211 34.2788 133.445 34.3689 133.69 34.3869C133.935 34.4048 134.18 34.3498 134.393 34.2287C134.607 34.1076 134.78 33.9259 134.89 33.7066C135 33.4872 135.043 33.2401 135.013 32.9965C134.983 32.7529 134.881 32.5237 134.721 32.3379C134.56 32.1521 134.348 32.0181 134.112 31.9527C133.794 31.8651 133.455 31.9071 133.169 32.0695C132.882 32.2318 132.672 32.5012 132.585 32.8184Z" fill="white"/>
</g>
<defs>
<clipPath id="clip0_949_2263">
<rect width="151" height="45" fill="white"/>
</clipPath>
</defs>
</svg>
