<svg width="112" height="90" viewBox="0 0 112 90" fill="none" xmlns="http://www.w3.org/2000/svg">
<g clip-path="url(#clip0_949_1396)">
<path d="M56.7915 73.0096H48.5925L54.0345 78.3806H56.7915C57.5662 78.3806 58.2013 79.0122 58.2013 79.7932C58.2013 80.5743 57.571 81.2011 56.7915 81.2011H54.0345V78.3806H48.6839V89.1418H54.0345V86.5624H56.7915C60.5205 86.5624 63.5518 83.525 63.5518 79.7884C63.5518 76.0519 60.5205 73.0048 56.7915 73.0048V73.0096ZM73.6562 72.6528C68.8831 72.6528 65.0001 76.5437 65.0001 81.3264C65.0001 86.1092 68.8831 90 73.6562 90C78.4294 90 82.3123 86.1092 82.3123 81.3264C82.3123 76.5437 78.4294 72.6528 73.6562 72.6528ZM73.6562 84.6339C71.8326 84.6339 70.3507 83.1441 70.3507 81.3216C70.3507 79.4991 71.8278 78.0093 73.6562 78.0093C75.4846 78.0093 76.9618 79.4991 76.9618 81.3216C76.9618 83.1441 75.4846 84.6339 73.6562 84.6339ZM45.8307 73.0096V89.1418H40.4849V77.5272H35.0093V89.1418H29.6636V73.0096H45.8355H45.8307Z" fill="#FDC300"/>
<path d="M93.9179 52.3115V68.5691H88.322V62.5039H82.9523V68.5691H77.3515V52.3115H82.9523V57.9139H88.322V52.3115H93.9179ZM3.20454 52.3067L2.99283 58.7143C2.96396 59.7412 2.89659 60.6766 2.79074 61.4962C2.68488 62.2965 2.49723 62.9378 2.22297 63.4055C1.88134 63.9792 1.31838 64.1624 0.495596 63.984L0 63.8779V68.5209L0.139537 68.5546C0.572582 68.6607 0.986381 68.7379 1.37131 68.7861C1.75143 68.8343 2.12192 68.8536 2.46355 68.8536C3.58947 68.8536 4.52292 68.5932 5.24466 68.0918C5.96159 67.5856 6.51974 66.9491 6.90948 66.0186C7.29441 65.1026 7.56867 63.9937 7.72746 62.7305C7.88624 61.4721 7.99209 60.0546 8.04021 58.5214L8.08833 56.8436H11.3795V68.5643H17.0187V52.3067H3.20454ZM25.0781 64.1672V62.311H32.6516V58.3382H25.0781V56.7086H33.5803V52.3115H19.4726V68.5643H33.8738V64.1672H25.0781ZM51.1908 52.3067L46.3455 57.75L41.5002 52.3067H35.5867V68.5643H41.1922V60.8694H41.2307L41.2452 60.8839L46.3311 65.8884L51.4795 60.8164V60.826L51.4843 60.8935L51.4987 68.5595H57.0946V52.3019H51.186L51.1908 52.3067ZM95.7993 59.9919V68.5643H101.135V59.9919C101.135 58.4877 102.386 57.2631 103.883 57.2631C105.379 57.2631 106.611 58.4877 106.611 59.9919V63.174H101.198L106.5 68.5643H112V59.9919C112 55.5129 108.358 51.8728 103.888 51.8728C99.4176 51.8728 95.7993 55.5129 95.7993 59.9919ZM67.0932 51.8728C62.6232 51.8728 58.9808 55.5129 58.9808 59.9919V68.5643H64.4805L69.7829 63.174H64.3698V59.9919C64.3698 58.4877 65.592 57.2631 67.098 57.2631C68.604 57.2631 69.8454 58.4877 69.8454 59.9919V68.5643H75.1815V59.9919C75.1815 55.5129 71.5584 51.8728 67.0932 51.8728Z" fill="white"/>
<path d="M64.3457 8.29272L55.9783 16.5806L63.6961 24.2273V33.7687H48.2605V43.9851H75.5712V19.4107L64.3457 8.29272Z" fill="#BF8900"/>
<path d="M55.9832 0L36.3903 19.4107V43.9851H48.2654V24.2272L55.9832 16.5806L64.3506 8.29271L55.9832 0Z" fill="#FDC300"/>
<path d="M55.9832 16.5806L64.3506 8.29272L57.5325 18.1186L55.9832 16.5806Z" fill="#815F00"/>
<path d="M48.2605 33.7688V43.9852L50.4786 33.7688H48.2605Z" fill="#815F00"/>
</g>
<defs>
<clipPath id="clip0_949_1396">
<rect width="112" height="90" fill="white"/>
</clipPath>
</defs>
</svg>
