<svg width="255" height="61" viewBox="0 0 255 61" fill="none" xmlns="http://www.w3.org/2000/svg">
<path fill-rule="evenodd" clip-rule="evenodd" d="M0 23.436C0 10.4714 10.8694 0 24.2405 0V8.47684C15.7003 8.47684 8.71279 15.2084 8.71279 23.436C8.71279 31.6635 15.7003 38.3951 24.2405 38.3951C32.7807 38.3951 39.7682 31.7466 39.7682 23.3528H48.5673C48.5673 36.3174 37.6979 46.7889 24.2405 46.7889C10.8694 46.8719 0 36.3174 0 23.436Z" fill="white"/>
<path d="M13.5437 23.4361C13.5437 17.7018 18.3746 13.0479 24.3267 13.0479C30.2791 13.0479 35.1099 17.7018 35.1099 23.4361C35.1099 29.1704 30.2791 33.8244 24.3267 33.8244C18.3746 33.8244 13.5437 29.1704 13.5437 23.4361Z" fill="white"/>
<path d="M31.8321 10.2219C31.8321 6.89768 34.5926 4.23828 38.0433 4.23828C41.4939 4.23828 44.2544 6.89768 44.2544 10.2219C44.2544 13.5462 41.4939 16.2055 38.0433 16.2055C34.5926 16.2055 31.8321 13.5462 31.8321 10.2219Z" fill="white"/>
<path d="M228.603 15.7903L227.827 19.447C226.014 27.3421 225.324 29.9184 223.772 37.8135L223.426 38.0628L218.423 38.2291L218.165 37.8967L220.148 29.7522L220.752 27.0928C218.596 27.0097 216.439 27.0097 214.283 27.0097C212.643 27.0097 211.35 27.0097 210.056 27.0928C209.366 30.2509 208.676 33.0764 207.812 37.8135L207.468 38.0628L202.464 38.2291L202.205 37.8967L204.19 29.7522L204.966 26.1786C206.26 20.6105 206.518 19.3639 207.296 14.2113L207.64 13.8789C209.969 13.6296 210.487 13.4634 212.817 13.0479L213.075 13.3803L212.557 15.7072L211.781 19.3639L211.005 22.8544C212.817 22.8544 214.627 22.9375 216.439 22.9375C218.337 22.9375 219.631 22.9375 221.702 22.8544C222.392 19.8626 222.65 18.2004 223.254 14.2944L223.6 13.962C225.928 13.7127 226.446 13.5465 228.775 13.131L229.035 13.4634L228.603 15.7903Z" fill="white"/>
<path d="M166.493 26.3447C166.837 24.932 167.095 23.6022 167.095 22.2725C167.095 17.4523 163.905 16.7043 162.092 16.7043C154.329 16.7043 153.38 28.2562 153.38 30.0014C153.38 33.8242 155.709 35.4864 158.383 35.4864C163.645 35.4864 165.629 30.2507 166.493 26.3447ZM171.582 27.8406C170.46 31.9129 167.527 38.9768 158.211 38.9768C151.654 38.9768 148.031 35.7357 148.031 29.2534C148.031 28.4224 148.117 27.5082 148.204 26.5109C148.204 26.2616 148.29 26.0123 148.29 25.763C150.188 15.1254 155.019 4.98639 165.629 4.90327C167.009 4.90327 169.857 4.73707 171.84 4.32153L171.15 8.55995C169.165 9.05859 166.061 9.30791 164.335 9.30791C162.092 9.30791 160.54 10.139 159.504 11.1363C158.987 11.6349 158.556 12.1335 158.211 12.6322C157.865 13.1308 157.693 13.5463 157.52 13.8787C158.901 13.4632 160.454 13.2139 162.178 13.2139C168.649 13.2139 172.444 16.7043 172.444 22.7712C172.358 24.4332 172.1 26.1786 171.582 27.8406Z" fill="white"/>
<path fill-rule="evenodd" clip-rule="evenodd" d="M192.112 31.9961C191.594 32.4115 191.078 32.9103 190.474 33.2427C189.18 33.9907 187.54 34.323 186.246 34.323C181.761 34.323 180.553 30.6663 180.553 28.4224C180.553 28.1731 180.639 22.1064 185.815 18.699C188.748 16.7876 191.854 16.7045 193.492 16.7045C194.269 16.7045 194.959 16.7876 195.735 16.7876L192.112 31.9961ZM201.515 13.5465L201.257 13.131L194.528 13.0479C190.042 13.0479 183.659 13.2972 179.173 18.4497C177.102 20.7768 175.29 24.8489 175.29 28.5887C175.29 34.4893 179.345 37.8967 184.349 37.8967C188.49 37.8967 190.646 36.1515 191.508 35.4866L191.164 37.3981L191.422 37.7304L195.995 37.6474L196.339 37.3148C197.289 31.6636 197.633 29.9184 199.359 22.6051L201.515 13.5465Z" fill="white"/>
<path fill-rule="evenodd" clip-rule="evenodd" d="M79.4504 25.2645C78.5015 29.4198 77.4662 30.6664 76.9487 31.3312C76.086 32.3284 74.8783 33.1596 73.4119 33.1596C71.7727 33.1596 70.4787 32.4116 69.9612 30.9157C69.7886 30.5832 69.7024 30.0015 69.7024 28.838C69.7024 26.6772 70.7376 21.3584 72.5492 19.0315C73.0667 18.4497 74.2744 17.12 76.5173 17.12C79.364 17.12 79.9679 19.5302 79.9679 21.2754C79.9679 22.7713 79.7091 24.1009 79.4504 25.2645ZM87.473 27.0927C87.9043 25.5138 88.0769 23.9347 88.0769 22.3557C88.0769 19.5302 87.473 16.8707 84.9713 14.7099C82.6422 12.7154 79.5366 12.0505 76.5173 12.0505C63.8363 12.0505 61.421 23.353 61.421 27.6744C61.421 31.165 62.4561 33.7413 64.6128 35.5696C66.9419 37.5641 70.3925 37.9797 72.8942 37.9797C76.6037 37.9797 79.7955 37.2317 82.5559 34.9879C85.1438 33.1596 86.6966 30.1678 87.473 27.0927Z" fill="white"/>
<path d="M107.314 18.6158H106.796C106.365 20.5271 105.847 22.6879 104.985 26.0953L104.208 29.5858C103.346 33.5748 103.173 34.5721 102.656 37.8963L102.311 38.1456L93.8565 38.3119L93.5977 37.9795C95.0643 32.4113 95.3231 31.331 96.7895 25.3473L97.3072 23.0203C97.7384 21.1089 97.9972 19.8624 98.2561 18.6988H97.9972H95.3231L89.6296 18.8651L89.3708 18.4495L91.0098 12.8814L91.441 12.632H108.09L116.544 12.4658L116.803 12.7151L115.25 18.2832L114.819 18.6158L109.988 18.4495H107.314V18.6158Z" fill="white"/>
<path d="M136.299 18.5326L126.982 18.6158C126.982 18.6158 125.861 22.1893 124.826 26.1784C123.791 30.1674 122.669 34.5721 121.979 37.8132L121.634 38.0626L113.697 38.2288L113.439 37.8963C115.164 32.3282 115.509 31.2478 117.148 25.2641L117.752 22.9372C118.27 20.9427 118.615 19.6961 118.873 18.4495L120.254 12.8814L120.599 12.632H136.644L145.098 12.4658L145.443 12.7151C145.443 12.7151 143.804 20.444 142.769 25.5967C141.734 30.8323 140.612 37.647 140.612 37.647L140.267 37.8963L131.986 38.0626L131.727 37.7302C133.021 32.245 133.97 28.1729 134.66 25.098C135.523 22.1062 135.954 19.8624 136.299 18.5326Z" fill="white"/>
<path d="M238.524 23.4358C239.73 22.4386 240.334 21.8567 241.974 20.3608C243.699 18.7818 247.839 14.6265 248.617 13.7955L249.133 13.5462H254.742L254.914 13.9617C254.396 14.3772 254.138 14.5434 252.24 16.2056C251.463 16.7873 250.945 17.2859 249.997 18.1169L243.613 23.7682L251.204 37.73L250.945 38.1456L245.511 38.3119L245.079 38.0625C243.785 35.1538 243.44 34.4889 241.714 30.9984L238.264 24.2668C237.23 28.9208 236.54 31.8296 235.331 37.8963L234.986 38.1456L229.983 38.3119L229.725 37.9793L231.709 29.835L232.485 26.2614C233.779 20.6933 234.037 19.4467 234.814 14.2941L235.159 13.9617C237.488 13.7124 238.006 13.5462 240.334 13.1306L240.594 13.463L240.076 15.79L239.3 19.4467L238.524 23.4358Z" fill="white"/>
</svg>
