<svg width="165" height="51" viewBox="0 0 165 51" fill="none" xmlns="http://www.w3.org/2000/svg">
<g clip-path="url(#clip0_949_1638)">
<mask id="mask0_949_1638" style="mask-type:luminance" maskUnits="userSpaceOnUse" x="0" y="0" width="165" height="51">
<path d="M164.985 0H0V50.9697H164.985V0Z" fill="white"/>
</mask>
<g mask="url(#mask0_949_1638)">
<path d="M33.5836 0L16.7994 16.995H33.5836V50.9697L50.3828 34.0202V0H33.5836Z" fill="#EA5616"/>
<path d="M16.7992 50.9697L33.5834 33.9748H16.7992V0L0 16.9496V50.9697H16.7992Z" fill="white"/>
<path d="M67.1668 42.4646H75.9927V16.1322H89.4261V42.4646H98.237V8.48981H67.1668V42.4646ZM152.808 21.2171H145.284V16.1322H162.053V8.48981H136.458V42.4646C136.458 42.4646 149.039 42.4646 153.227 42.4646C159.944 42.4646 164.985 39.0595 164.985 31.8409C164.985 24.6222 159.944 21.2171 152.808 21.2171ZM151.971 35.2459H145.284V28.4509H151.971C154.05 28.4509 156.159 29.2833 156.159 31.8409C156.159 34.3984 154.05 35.2459 151.971 35.2459ZM119.808 35.2308C113.929 35.2308 110.623 30.8723 110.623 25.4696C110.623 21.1414 113.032 15.7085 119.644 15.7085C123.772 15.7085 126.435 18.2661 127.378 19.4465L132.733 14.0287C129.502 10.1242 124.64 7.64233 119.21 7.64233C109.471 7.64233 101.782 14.9367 101.782 25.4848C101.782 35.3367 109.471 43.3272 119.21 43.3272C125.044 43.3272 130.205 40.467 133.421 36.048L128.036 30.5696C126.33 33.2785 123.548 35.2308 119.808 35.2308Z" fill="white"/>
</g>
</g>
<defs>
<clipPath id="clip0_949_1638">
<rect width="165" height="51" fill="white"/>
</clipPath>
</defs>
</svg>
