<svg width="113" height="41" viewBox="0 0 113 41" fill="none" xmlns="http://www.w3.org/2000/svg">
<g clip-path="url(#clip0_509_9)">
<path d="M7.68511 -0.00231934L5.76065 5.36165H32.4275L34.352 -0.00231934H7.68511ZM4.799 8.04188L2.87454 13.4047H29.5414L31.4658 8.04188H4.799ZM1.9175 16.0861L-0.00695801 21.4489H26.6599L28.5832 16.0861H1.9175Z" fill="#00AAFF"/>
<path d="M56.6845 23.493V23.6066C57.9033 24.0611 59.0679 24.8577 59.6779 25.3684C61.562 26.9604 62.3945 29.0631 62.3945 31.7914C62.3945 36.2838 60.0664 39.5228 56.2417 40.5466C55.0771 40.8875 53.8584 41.0011 51.5857 41.0011H40.0032V8.1449H50.2573C52.364 8.1449 53.8042 8.25853 55.0783 8.59824C58.7923 9.62207 61.231 12.2367 61.231 16.3859C61.231 18.6034 60.455 20.48 59.1809 21.73C58.6263 22.2981 57.8503 22.981 56.6868 23.4918L56.6845 23.493ZM46.4315 26.9604V35.6008H50.8662C52.1956 35.6008 53.4156 35.4872 54.3023 34.6344C55.189 33.7816 55.5764 32.7016 55.5764 31.2806C55.5764 30.2017 55.2985 29.1779 54.7451 28.4387C53.803 27.245 52.6384 26.9604 50.6436 26.9604H46.4303H46.4315ZM46.375 21.2754H49.9783C51.0864 21.2754 51.641 21.2754 52.1945 21.1056C53.6923 20.6499 54.6344 19.2875 54.6344 17.4109C54.6344 15.1946 53.637 14.227 52.1945 13.7736C51.5845 13.6026 50.9757 13.5464 49.7558 13.5464H46.375V21.2766V21.2754ZM72.0375 41.0023V13.6588H62.7819V8.14607H88.5009L86.6722 13.6588H78.4681V41.0023H72.0387H72.0375ZM90.4957 41.0023V8.14607H111.337L109.509 13.6588H96.871V20.9357H102.026C106.183 20.9357 108.345 21.9596 109.842 23.2657C111.006 24.2895 113.001 26.5621 113.001 31.0545C113.001 35.4884 110.951 37.932 109.232 39.1831C107.237 40.6028 105.13 41.0023 100.862 41.0023H90.4969H90.4957ZM96.8698 35.4872H101.692C103.521 35.4872 104.629 35.0327 105.405 34.0089C105.792 33.4981 106.347 32.5868 106.347 30.8823C106.347 29.1779 105.792 27.983 104.684 27.1302C104.02 26.6195 103.132 26.336 101.635 26.336H96.8687V35.4872H96.8698Z" fill="#0A2896"/>
</g>
<defs>
<clipPath id="clip0_509_9">
<rect width="113" height="41" fill="white"/>
</clipPath>
</defs>
</svg>
