<svg width="50" height="41" viewBox="0 0 50 41" fill="none" xmlns="http://www.w3.org/2000/svg">
<g clip-path="url(#clip0_1961_11102)">
<path d="M25.3533 33.2599H21.6931L24.1225 35.7067H25.3533C25.6992 35.7067 25.9827 35.9944 25.9827 36.3503C25.9827 36.7061 25.7013 36.9916 25.3533 36.9916H24.1225V35.7067H21.7339V40.6091H24.1225V39.434H25.3533C27.0181 39.434 28.3713 38.0503 28.3713 36.3481C28.3713 34.6459 27.0181 33.2577 25.3533 33.2577V33.2599ZM32.8822 33.0974C30.7514 33.0974 29.0179 34.8699 29.0179 37.0487C29.0179 39.2275 30.7514 41 32.8822 41C35.0131 41 36.7466 39.2275 36.7466 37.0487C36.7466 34.8699 35.0131 33.0974 32.8822 33.0974ZM32.8822 38.5554C32.0681 38.5554 31.4065 37.8768 31.4065 37.0465C31.4065 36.2163 32.066 35.5376 32.8822 35.5376C33.6985 35.5376 34.3579 36.2163 34.3579 37.0465C34.3579 37.8768 33.6985 38.5554 32.8822 38.5554ZM20.4601 33.2599V40.6091H18.0736V35.318H15.6292V40.6091H13.2427V33.2599H20.4622H20.4601Z" fill="#FDC300"/>
<path d="M41.9277 23.8307V31.237H39.4295V28.4739H37.0323V31.237H34.5319V23.8307H37.0323V26.3829H39.4295V23.8307H41.9277ZM1.4306 23.8285L1.33608 26.7475C1.32319 27.2154 1.29312 27.6415 1.24586 28.0149C1.19861 28.3795 1.11483 28.6716 0.992396 28.8846C0.839885 29.146 0.588564 29.2295 0.221248 29.1482L0 29.0999V31.215L0.0622932 31.2304C0.255617 31.2787 0.440349 31.3138 0.612192 31.3358C0.781888 31.3578 0.947287 31.3665 1.0998 31.3665C1.60244 31.3665 2.01916 31.2479 2.34137 31.0195C2.66143 30.7889 2.9106 30.499 3.08459 30.0751C3.25643 29.6578 3.37887 29.1526 3.44976 28.5771C3.52064 28.0039 3.5679 27.3581 3.58938 26.6597L3.61086 25.8953H5.08012V31.2348H7.59763V23.8285H1.4306ZM11.1956 29.2317V28.386H14.5766V26.5762H11.1956V25.8338H14.9912V23.8307H8.69313V31.2348H15.1222V29.2317H11.1956ZM22.853 23.8285L20.69 26.3083L18.5269 23.8285H15.8869V31.2348H18.3894V27.7293H18.4066L18.413 27.7359L20.6835 30.0158L22.9819 27.7052V27.7096L22.9841 27.7403L22.9905 31.2326H25.4887V23.8263H22.8509L22.853 23.8285ZM42.7675 27.3296V31.2348H45.1497V27.3296C45.1497 26.6443 45.7082 26.0864 46.3762 26.0864C47.0443 26.0864 47.5942 26.6443 47.5942 27.3296V28.7792H45.1776L47.5448 31.2348H50V27.3296C50 25.2891 48.3739 23.6309 46.3784 23.6309C44.3829 23.6309 42.7675 25.2891 42.7675 27.3296ZM29.9523 23.6309C27.9568 23.6309 26.3307 25.2891 26.3307 27.3296V31.2348H28.7859L31.1531 28.7792H28.7365V27.3296C28.7365 26.6443 29.2821 26.0864 29.9545 26.0864C30.6268 26.0864 31.181 26.6443 31.181 27.3296V31.2348H33.5632V27.3296C33.5632 25.2891 31.9457 23.6309 29.9523 23.6309Z" fill="#21282B"/>
<path d="M28.7258 3.77783L24.9903 7.55342L28.4358 11.0369V15.3836H21.5449V20.0377H33.7372V8.8427L28.7258 3.77783Z" fill="#BF8900"/>
<path d="M24.9925 0L16.2457 8.84266V20.0377H21.547V11.0369L24.9925 7.55338L28.7279 3.77779L24.9925 0Z" fill="#FDC300"/>
<path d="M24.9925 7.55342L28.7279 3.77783L25.6842 8.25407L24.9925 7.55342Z" fill="#815F00"/>
<path d="M21.5449 15.3835V20.0377L22.5351 15.3835H21.5449Z" fill="#815F00"/>
</g>
<defs>
<clipPath id="clip0_1961_11102">
<rect width="50" height="41" fill="white"/>
</clipPath>
</defs>
</svg>
