<svg width="76" height="29" viewBox="0 0 76 29" fill="none" xmlns="http://www.w3.org/2000/svg">
<g clip-path="url(#clip0_1944_9351)">
<mask id="mask0_1944_9351" style="mask-type:luminance" maskUnits="userSpaceOnUse" x="0" y="0" width="76" height="29">
<path d="M76 0H0V29H76V0Z" fill="white"/>
</mask>
<g mask="url(#mask0_1944_9351)">
<path d="M43.2808 9.42885C43.2808 9.05346 43.4821 8.70987 43.7629 8.50631C47.7129 5.61397 48.8798 4.582 48.8798 3.33117C48.8798 2.42397 48.0558 1.97091 47.184 1.97091C46.3121 1.97091 45.6133 2.23683 44.9907 2.67456C44.8351 2.784 44.6489 2.84638 44.4465 2.84638C43.9022 2.84638 43.4668 2.40864 43.4668 1.86147C43.4668 1.53317 43.6378 1.2366 43.8718 1.0637C44.8361 0.329396 46.0182 0 47.1535 0C49.362 0 51.1199 1.25083 51.1199 3.33117C51.1199 5.11385 49.6581 6.66124 46.8738 8.63213H50.3264C50.8553 8.63213 51.306 9.06986 51.306 9.60173C51.306 10.1336 50.8553 10.5866 50.3264 10.5866H44.4323C43.8108 10.5866 43.2818 10.0701 43.2818 9.42991L43.2808 9.42885Z" fill="#EF4623"/>
<path d="M56.1278 0C59.083 0 60.4207 2.68989 60.4207 5.37868C60.4207 8.06747 59.083 10.7738 56.1278 10.7738C53.1727 10.7738 51.835 8.06858 51.835 5.37868C51.835 2.68879 53.1574 0 56.1278 0ZM56.1278 1.96981C54.6345 1.96981 54.075 3.45483 54.075 5.37868C54.075 7.30254 54.6345 8.8029 56.1278 8.8029C57.6212 8.8029 58.1655 7.30142 58.1655 5.37868C58.1655 3.45592 57.606 1.96981 56.1278 1.96981Z" fill="#EF4623"/>
<path d="M43.0043 9.70689C43.0043 9.33157 43.2056 8.98792 43.4864 8.78436C47.4365 5.89204 48.6033 4.86008 48.6033 3.60925C48.6033 2.70204 47.7793 2.24898 46.9075 2.24898C46.0356 2.24898 45.3368 2.5149 44.7142 2.95264C44.5586 3.06208 44.3725 3.12446 44.17 3.12446C43.6258 3.12446 43.1904 2.68672 43.1904 2.13955C43.1904 1.81125 43.3613 1.51468 43.5953 1.34178C44.5597 0.606379 45.7418 0.278076 46.8771 0.278076C49.0855 0.278076 50.8434 1.5289 50.8434 3.60815C50.8434 5.39083 49.3816 6.93935 46.5973 8.90911H50.0499C50.5789 8.90911 51.0295 9.34684 51.0295 9.87872C51.0295 10.4106 50.5789 10.8636 50.0499 10.8636H44.1558C43.5344 10.8636 43.0053 10.3471 43.0053 9.70689H43.0043Z" fill="#EC7A23"/>
<path d="M55.8514 0.278076C58.8065 0.278076 60.1443 2.96796 60.1443 5.65675C60.1443 8.34557 58.8065 11.0518 55.8514 11.0518C52.8962 11.0518 51.5585 8.34662 51.5585 5.65675C51.5585 2.96687 52.881 0.278076 55.8514 0.278076ZM55.8514 2.24789C54.358 2.24789 53.7985 3.7329 53.7985 5.65675C53.7985 7.58058 54.358 9.08094 55.8514 9.08094C57.3447 9.08094 57.889 7.57952 57.889 5.65675C57.889 3.734 57.3295 2.24789 55.8514 2.24789Z" fill="#EC7A23"/>
<path d="M43.9948 10.3274H50.1773" stroke="#EF4623" stroke-miterlimit="10"/>
<path d="M58.369 2.06973C58.4755 1.93022 58.3342 1.6414 58.0533 1.42463C57.7725 1.20788 57.4584 1.14526 57.3519 1.28478C57.2454 1.42429 57.3867 1.7131 57.6676 1.92986C57.9484 2.14662 58.2625 2.20924 58.369 2.06973Z" fill="#FBD4DA"/>
<path d="M53.9914 9.97037C54.0979 9.83084 53.9566 9.54202 53.6758 9.32529C53.3949 9.10851 53.0809 9.04591 52.9743 9.18538C52.8678 9.32492 53.0091 9.61374 53.29 9.83053C53.5709 10.0472 53.8849 10.1099 53.9914 9.97037Z" fill="#EF4623"/>
<path d="M49.6745 2.02676C49.781 1.88724 49.6397 1.59843 49.3588 1.38167C49.0779 1.16491 48.7639 1.10229 48.6574 1.24181C48.5509 1.38132 48.6922 1.67013 48.9731 1.88689C49.2539 2.10365 49.568 2.16627 49.6745 2.02676Z" fill="#FBD4DA"/>
<path d="M0 14.0085H2.95628L2.8496 14.5677H0.679201V16.3953H2.48279V16.9457H0.679201V19.6324H0V14.0085Z" fill="#1B1C20"/>
<path d="M5.35742 13.9834H6.0203V17.598C6.0203 17.9865 6.04533 18.306 6.07798 18.4636C6.17703 18.909 6.58633 19.1563 7.21653 19.1563C7.68347 19.1563 8.03725 19.0327 8.20811 18.8007C8.3812 18.5719 8.42035 18.3651 8.42035 17.8377V13.9834H9.08542V17.9109C9.08542 18.7196 9.00268 18.99 8.65873 19.2953C8.31695 19.5919 7.86417 19.7309 7.18493 19.7309C6.31634 19.7309 5.78301 19.4551 5.52178 18.9167C5.39878 18.6682 5.35742 18.5544 5.35742 17.9296V13.9845" fill="#1B1C20"/>
<path d="M11.5269 13.9834H15.2473L15.2059 14.5502H13.6831V19.6324H13.0355V14.5502H11.5269V13.9834Z" fill="#1B1C20"/>
<path d="M17.73 13.9834H18.3929V17.598C18.3929 17.9865 18.418 18.306 18.4506 18.4636C18.5496 18.909 18.9589 19.1563 19.5891 19.1563C20.0561 19.1563 20.4087 19.0327 20.5807 18.8007C20.7516 18.5719 20.7929 18.3651 20.7929 17.8377V13.9834H21.458V17.9109C21.458 18.7196 21.3742 18.99 21.0313 19.2953C20.6874 19.5919 20.2346 19.7309 19.5554 19.7309C18.6879 19.7309 18.1556 19.4551 17.8922 18.9167C17.7703 18.6682 17.7289 18.5544 17.7289 17.9296V13.9845" fill="#1B1C20"/>
<path d="M24.4546 13.99H25.7662C26.5379 13.99 26.9134 14.1301 27.1845 14.3544C27.4392 14.5579 27.7418 14.9399 27.7418 15.5407C27.7418 16.4709 27.1431 17.087 26.2495 17.087H26.1689C26.4302 17.3004 26.6196 17.5663 26.7327 17.7217C26.8481 17.8793 26.994 18.1025 27.1921 18.3805C27.3956 18.6847 28.028 19.6324 28.028 19.6324H27.1845C27.0528 19.3359 26.9951 19.2286 26.7513 18.8522C26.3975 18.3159 26.0536 17.8213 25.751 17.4514C25.5289 17.1724 25.4059 17.0957 25.1273 17.087V19.6324H24.4546V13.99ZM25.136 14.5569V16.6679H25.7335C26.2343 16.6679 26.5466 16.5847 26.7523 16.3779C26.9385 16.206 27.0375 15.8996 27.0375 15.5308C27.0375 15.162 26.8089 14.7976 26.49 14.6739C26.3093 14.5995 26.0884 14.5569 25.7847 14.5569H25.1382H25.136Z" fill="#1B1C20"/>
<path d="M30.7829 14.0251H33.8546L33.7642 14.5854H31.4621V16.4141H33.3866V16.9974H31.4621V19.0492H33.9351V19.6347H30.7829V14.0251Z" fill="#1B1C20"/>
<path d="M46.7638 13.9834H50.482L50.4406 14.5502H48.9157V19.6324H48.267V14.5502H46.7638V13.9834Z" fill="#1B1C20"/>
<path d="M54.8717 13.8838C55.8492 13.8838 56.3706 14.4014 56.6405 14.8052C56.9921 15.3327 57.151 15.9915 57.151 16.8998C57.151 17.9865 56.9061 18.6682 56.3314 19.1957C55.9124 19.5744 55.489 19.7396 54.9044 19.7396C54.2165 19.7396 53.6854 19.4584 53.3088 19.0217C52.8657 18.5117 52.6339 17.7446 52.6339 16.7838C52.6339 14.9891 53.4883 13.8838 54.8717 13.8838ZM54.8717 14.4277C54.3482 14.4277 53.8813 14.6827 53.6679 15.0843C53.4742 15.4553 53.3795 15.9422 53.3795 16.6437C53.3795 17.4907 53.521 18.2316 53.7419 18.6125C53.9553 18.9714 54.481 19.2209 54.9382 19.2209C55.3953 19.2209 55.7414 19.0534 55.9874 18.735C56.2639 18.3815 56.3967 17.9274 56.3967 16.9961C56.3967 16.1655 56.314 15.5986 56.1268 15.2014C55.9297 14.7812 55.5194 14.4277 54.8717 14.4277Z" fill="#1B1C20"/>
<path d="M59.7449 14.0315H60.8671C61.728 14.0315 62.1209 14.0731 62.6682 14.4703C63.3082 14.9299 63.6199 15.7354 63.6199 16.8406C63.6199 17.8278 63.3583 18.5128 62.9799 18.9331C62.4901 19.4868 62.0881 19.6345 61.211 19.6345H59.7449V14.0315ZM60.4176 14.5852V19.0731H61.0151C61.3754 19.0731 61.4984 19.0633 61.703 19.0315C62.0405 18.9735 62.3497 18.7689 62.5142 18.4876C62.777 18.0586 62.8908 17.517 62.8908 16.9249C62.8908 16.0747 62.7838 15.5482 62.4072 15.0941C62.0405 14.6586 61.678 14.5863 61.088 14.5863H60.4186L60.4176 14.5852Z" fill="#1B1C20"/>
<path d="M68.3369 13.9834L70.1964 19.6345H69.4364L68.9034 17.8957H66.8058L66.2647 19.6345H65.5857L67.4631 13.9834H68.3381M66.9962 17.3452H68.7333C68.7333 17.3452 68.2893 15.9357 68.1415 15.4509L67.8713 14.5776L67.5936 15.4093C67.5608 15.5231 66.9962 17.3452 66.9962 17.3452Z" fill="#1B1C20"/>
<path d="M71.6638 13.9834H72.4906L73.5555 16.1425C73.6458 16.3209 73.7676 16.5857 73.8418 16.7739C73.924 16.5857 74.031 16.3702 74.1442 16.1425L75.227 13.9834H75.9987L74.1714 17.4338V19.6324H73.4757V17.3944L71.6644 13.9834" fill="#1B1C20"/>
<path d="M40.6956 12.2371V13.095H40.4823V13.3095H40.2689V13.095H40.0556V12.8805H40.2689V12.4515H40.4823V12.2371H40.6956Z" fill="#FFCB05"/>
<path d="M38.1355 16.9547H37.9233V15.4544H38.3489V15.2399H38.9889V15.0254H40.0555V15.6677H40.6956V15.0254H41.7612V15.2399H42.4012V15.4544H42.8279V16.5258H42.6146V16.7402H42.4012V16.5258H42.1879V16.3113H41.9745V16.5258H41.7612V17.5982H41.5478V17.3837H41.3356V16.9547H41.1223V16.7402H40.9089V16.9547H40.6956V17.8127H40.4822V16.7402H40.2689V16.5258H40.0555V16.7402H39.8423V17.1692H39.6289V16.9547H39.4156V16.7402H39.2022V16.9547H38.9889V17.3837H38.7755V16.5258H38.5622V16.3113H38.3489V16.5258H38.1355V16.9547Z" fill="#EC7A23"/>
<path d="M40.4822 13.7383H40.2689V15.4542H40.4822V13.7383Z" fill="white"/>
<path d="M38.35 15.2397H37.9233V15.4542H38.35V15.2397Z" fill="#231F20"/>
<path d="M38.9889 15.0254H38.3488V15.2399H38.9889V15.0254Z" fill="#231F20"/>
<path d="M40.2689 13.095H40.0556V13.3095H40.2689V13.095Z" fill="#231F20"/>
<path d="M40.6956 13.095H40.4823V13.3095H40.6956V13.095Z" fill="#231F20"/>
<path d="M40.9089 12.2371H40.6956V13.095H40.9089V12.2371Z" fill="#231F20"/>
<path d="M40.0555 12.4514H39.8422V13.0949H40.0555V12.4514Z" fill="#231F20"/>
<path d="M40.2689 12.2371H40.0556V12.4515H40.2689V12.2371Z" fill="#231F20"/>
<path d="M40.4822 11.8091V12.0236H40.2689V12.2369H40.4822H40.6955V12.0236V11.8091H40.4822Z" fill="#231F20"/>
<path d="M40.4823 15.4543H40.269V13.7383H40.4823V15.4543ZM41.7623 14.8107H40.6956V13.5238H40.4823V13.3093H40.269V13.5238H40.0556V14.8107H38.9889V15.0252H40.0556V15.6688H40.6956V15.0252H41.7623V14.8107Z" fill="#231F20"/>
<path d="M42.4012 15.0254H41.7612V15.2399H42.4012V15.0254Z" fill="#231F20"/>
<path d="M42.8279 15.2397H42.4012V15.4542H42.8279V15.2397Z" fill="#231F20"/>
<path d="M41.5478 18.6707H39.2022V18.8851H41.5478V18.6707Z" fill="#231F20"/>
<path d="M42.1878 18.4561H41.5479V18.6705H42.1878V18.4561Z" fill="#231F20"/>
<path d="M42.8279 18.2415H42.1879V18.4559H42.8279V18.2415Z" fill="#231F20"/>
<path d="M39.2022 18.4561H38.5622V18.6705H39.2022V18.4561Z" fill="#231F20"/>
<path d="M38.5633 18.2415H37.9233V18.4559H38.5633V18.2415Z" fill="#231F20"/>
<path d="M41.3345 18.2415H39.4155V18.4559H41.3345V18.2415Z" fill="#231F20"/>
<path d="M41.9756 18.0271H41.3356V18.2416H41.9756V18.0271Z" fill="#231F20"/>
<path d="M42.6145 17.8125H41.9745V18.027H42.6145V17.8125Z" fill="#231F20"/>
<path d="M39.4155 18.0271H38.7755V18.2416H39.4155V18.0271Z" fill="#231F20"/>
<path d="M38.7755 17.8125H38.1355V18.027H38.7755V17.8125Z" fill="#231F20"/>
<path d="M38.1355 17.1692V16.9547H37.9232V15.4543H37.7099V16.9547V17.1692V17.5982V17.8127V18.2416H37.9232V17.8127H38.1355V17.5982H37.9232V17.1692H38.1355Z" fill="#231F20"/>
<path d="M38.3488 16.5256H38.1355V16.9546H38.3488V16.5256Z" fill="#231F20"/>
<path d="M38.5622 16.3113H38.3488V16.5258H38.5622V16.3113Z" fill="#231F20"/>
<path d="M38.7755 16.5256H38.5622V17.3836H38.7755V16.5256Z" fill="#231F20"/>
<path d="M38.9889 17.3835H38.7755V17.598H38.9889V17.3835Z" fill="#231F20"/>
<path d="M39.2022 16.9546H38.9889V17.3836H39.2022V16.9546Z" fill="#231F20"/>
<path d="M39.4156 16.74H39.2022V16.9545H39.4156V16.74Z" fill="#231F20"/>
<path d="M39.6289 16.9546H39.4155V17.1691H39.6289V16.9546Z" fill="#231F20"/>
<path d="M39.8423 17.1689H39.6289V17.3834H39.8423V17.1689Z" fill="#231F20"/>
<path d="M40.0555 16.74H39.8422V17.169H40.0555V16.74Z" fill="#231F20"/>
<path d="M40.2689 16.5256H40.0556V16.7401H40.2689V16.5256Z" fill="#231F20"/>
<path d="M40.4822 16.74H40.2689V17.8124H40.4822V16.74Z" fill="#231F20"/>
<path d="M40.6956 17.8125H40.4823V18.027H40.6956V17.8125Z" fill="#231F20"/>
<path d="M40.9089 16.9546H40.6956V17.8126H40.9089V16.9546Z" fill="#231F20"/>
<path d="M41.1222 16.74H40.9089V16.9545H41.1222V16.74Z" fill="#231F20"/>
<path d="M41.3356 16.9546H41.1223V17.3836H41.3356V16.9546Z" fill="#231F20"/>
<path d="M41.5489 17.3835H41.3356V17.598H41.5489V17.3835Z" fill="#231F20"/>
<path d="M41.7612 17.5981H41.5479V17.8126H41.7612V17.5981Z" fill="#231F20"/>
<path d="M41.9745 16.5256H41.7612V17.5981H41.9745V16.5256Z" fill="#231F20"/>
<path d="M42.1878 16.3113H41.9745V16.5258H42.1878V16.3113Z" fill="#231F20"/>
<path d="M42.4012 16.5256H42.1879V16.7401H42.4012V16.5256Z" fill="#231F20"/>
<path d="M42.6145 16.74H42.4012V16.9545H42.6145V16.74Z" fill="#231F20"/>
<path d="M42.8279 15.4543V16.5257H42.6146V16.7402H42.8279V17.5982H42.6146V17.8127H42.8279V18.2416H43.0412V15.4543H42.8279Z" fill="#231F20"/>
<path d="M41.7613 16.0967H38.9889V16.3112H41.7613V16.0967Z" fill="#FFF0D8"/>
<path d="M42.4012 15.8821H41.7612V16.0966H42.4012V15.8821Z" fill="#FFF0D8"/>
<path d="M38.9889 15.8821H38.3488V16.0966H38.9889V15.8821Z" fill="#FFF0D8"/>
<path d="M38.3488 15.6677H38.1355V15.8822H38.3488V15.6677Z" fill="#FFF0D8"/>
<path d="M42.6145 15.6677H42.4012V15.8822H42.6145V15.6677Z" fill="#FFF0D8"/>
<path d="M40.4822 13.9529H40.2689V14.1674H40.4822V13.9529Z" fill="#ED1C24"/>
<path d="M40.4822 14.3818H40.2689V14.5963H40.4822V14.3818Z" fill="#ED1C24"/>
<path d="M40.4822 14.8108H40.2689V15.0253H40.4822V14.8108Z" fill="#ED1C24"/>
<path d="M40.4822 15.2397H40.2689V15.4542H40.4822V15.2397Z" fill="#ED1C24"/>
<path d="M40.4822 12.2371H40.2689V12.4515H40.4822V12.2371Z" fill="#FFEDA9"/>
<path d="M40.2689 12.4514H40.0556V12.8804H40.2689V12.4514Z" fill="#FFEDA9"/>
<path d="M37.9233 17.5981V17.1691H38.1355V16.9546H38.3489V16.5256H38.5622V17.3836H38.7755V17.5981H38.9889V17.3836H39.2022V16.9546H39.4156V17.1691H39.6289V17.3836H39.8423V17.1691H40.0555V16.7401H40.2689V17.8126H40.4822V18.0271H40.6956V17.8126H40.9089V16.9546H41.1223V17.3836H41.3356V17.5981H41.5478V17.8126H41.7612V17.5981H41.9745V16.5256H42.1879V16.7401H42.4012V16.9546H42.6146V16.7401H42.8279V17.5981H42.6146V17.8126H41.9745V18.0271H41.3356V18.2415H39.4156V18.0271H38.7755V17.8126H38.1355V17.5981H37.9233Z" fill="#FFF0D8"/>
<path d="M37.9233 18.2415V17.8125H38.1355V18.027H38.7755V18.2415H39.4156V18.456H41.3356V18.2415H41.9745V18.027H42.6146V17.8125H42.8279V18.2415H42.1879V18.456H41.5478V18.6705H39.2022V18.456H38.5622V18.2415H37.9233Z" fill="#CD8454"/>
<path d="M44.4694 17.6648V18.4407H44.2767V18.6344H44.084V18.4407H43.8914V18.247H44.084V17.8585H44.2767V17.6648H44.4694Z" fill="#FFCB05"/>
<path d="M42.1563 21.9285H41.9636V20.5715H42.3489V20.3778H42.928V20.1841H43.8913V20.7652H44.4693V20.1841H45.4326V20.3778H46.0105V20.5715H46.3959V21.54H46.2032V21.7337H46.0105V21.54H45.8179V21.3463H45.6252V21.54H45.4326V22.5095H45.2399V22.3159H45.0473V21.9285H44.8546V21.7337H44.662V21.9285H44.4693V22.7033H44.2766V21.7337H44.084V21.54H43.8913V21.7337H43.6986V22.1222H43.506V21.9285H43.3133V21.7337H43.1207V21.9285H42.928V22.3159H42.7354V21.54H42.5416V21.3463H42.3489V21.54H42.1563V21.9285Z" fill="#EC7A23"/>
<path d="M44.2767 19.0217H44.084V20.5713H44.2767V19.0217Z" fill="white"/>
<path d="M42.3489 20.3777H41.9636V20.5714H42.3489V20.3777Z" fill="#231F20"/>
<path d="M42.9269 20.1841H42.349V20.3778H42.9269V20.1841Z" fill="#231F20"/>
<path d="M44.084 18.4407H43.8914V18.6344H44.084V18.4407Z" fill="#231F20"/>
<path d="M44.4693 18.4407H44.2767V18.6344H44.4693V18.4407Z" fill="#231F20"/>
<path d="M44.662 17.6648H44.4693V18.4396H44.662V17.6648Z" fill="#231F20"/>
<path d="M43.8914 17.8586H43.6987V18.4398H43.8914V17.8586Z" fill="#231F20"/>
<path d="M44.084 17.6648H43.8914V17.8585H44.084V17.6648Z" fill="#231F20"/>
<path d="M44.2767 17.2776V17.4713H44.084V17.665H44.2767H44.4693V17.4713V17.2776H44.2767Z" fill="#231F20"/>
<path d="M44.2766 20.5715H44.0839V19.022H44.2766V20.5715ZM45.4326 19.9904H44.4693V18.8282H44.2766V18.6345H44.0839V18.8282H43.8913V19.9904H42.928V20.1841H43.8913V20.7652H44.4693V20.1841H45.4326V19.9904Z" fill="#231F20"/>
<path d="M46.0106 20.1841H45.4326V20.3778H46.0106V20.1841Z" fill="#231F20"/>
<path d="M46.3959 20.3777H46.0106V20.5714H46.3959V20.3777Z" fill="#231F20"/>
<path d="M45.241 23.478H43.1207V23.6717H45.241V23.478Z" fill="#231F20"/>
<path d="M45.8179 23.2842H45.24V23.4779H45.8179V23.2842Z" fill="#231F20"/>
<path d="M46.3959 23.0906H45.8179V23.2843H46.3959V23.0906Z" fill="#231F20"/>
<path d="M43.1196 23.2842H42.5416V23.4779H43.1196V23.2842Z" fill="#231F20"/>
<path d="M42.5416 23.0906H41.9636V23.2843H42.5416V23.0906Z" fill="#231F20"/>
<path d="M45.0473 23.0906H43.3133V23.2843H45.0473V23.0906Z" fill="#231F20"/>
<path d="M45.6252 22.897H45.0473V23.0907H45.6252V22.897Z" fill="#231F20"/>
<path d="M46.2033 22.7031H45.6253V22.8968H46.2033V22.7031Z" fill="#231F20"/>
<path d="M43.3134 22.897H42.7354V23.0907H43.3134V22.897Z" fill="#231F20"/>
<path d="M42.7343 22.7031H42.1563V22.8968H42.7343V22.7031Z" fill="#231F20"/>
<path d="M42.1563 22.1222V21.9285H41.9636V20.5715H41.771V21.9285V22.1222V22.5096V22.7033V23.0907H41.9636V22.7033H42.1563V22.5096H41.9636V22.1222H42.1563Z" fill="#231F20"/>
<path d="M42.3489 21.54H42.1563V21.9275H42.3489V21.54Z" fill="#231F20"/>
<path d="M42.5416 21.3462H42.349V21.5399H42.5416V21.3462Z" fill="#231F20"/>
<path d="M42.7343 21.54H42.5416V22.3148H42.7343V21.54Z" fill="#231F20"/>
<path d="M42.928 22.3157H42.7354V22.5094H42.928V22.3157Z" fill="#231F20"/>
<path d="M43.1207 21.9285H42.928V22.3158H43.1207V21.9285Z" fill="#231F20"/>
<path d="M43.3134 21.7336H43.1207V21.9274H43.3134V21.7336Z" fill="#231F20"/>
<path d="M43.506 21.9285H43.3133V22.1222H43.506V21.9285Z" fill="#231F20"/>
<path d="M43.6987 22.1221H43.506V22.3158H43.6987V22.1221Z" fill="#231F20"/>
<path d="M43.8914 21.7336H43.6987V22.1211H43.8914V21.7336Z" fill="#231F20"/>
<path d="M44.084 21.54H43.8914V21.7337H44.084V21.54Z" fill="#231F20"/>
<path d="M44.2767 21.7336H44.084V22.7021H44.2767V21.7336Z" fill="#231F20"/>
<path d="M44.4693 22.7031H44.2767V22.8968H44.4693V22.7031Z" fill="#231F20"/>
<path d="M44.662 21.9285H44.4693V22.7033H44.662V21.9285Z" fill="#231F20"/>
<path d="M44.8546 21.7336H44.662V21.9274H44.8546V21.7336Z" fill="#231F20"/>
<path d="M45.0473 21.9285H44.8546V22.3158H45.0473V21.9285Z" fill="#231F20"/>
<path d="M45.2399 22.3157H45.0473V22.5094H45.2399V22.3157Z" fill="#231F20"/>
<path d="M45.4326 22.5095H45.24V22.7033H45.4326V22.5095Z" fill="#231F20"/>
<path d="M45.6252 21.54H45.4326V22.5085H45.6252V21.54Z" fill="#231F20"/>
<path d="M45.8179 21.3462H45.6253V21.5399H45.8179V21.3462Z" fill="#231F20"/>
<path d="M46.0106 21.54H45.8179V21.7337H46.0106V21.54Z" fill="#231F20"/>
<path d="M46.2033 21.7336H46.0106V21.9274H46.2033V21.7336Z" fill="#231F20"/>
<path d="M46.3959 20.5715V21.54H46.2032V21.7337H46.3959V22.5096H46.2032V22.7033H46.3959V23.0907H46.5896V20.5715H46.3959Z" fill="#231F20"/>
<path d="M45.4336 21.1526H42.928V21.3463H45.4336V21.1526Z" fill="#FFF0D8"/>
<path d="M46.0106 20.9587H45.4326V21.1524H46.0106V20.9587Z" fill="#FFF0D8"/>
<path d="M42.9269 20.9587H42.349V21.1524H42.9269V20.9587Z" fill="#FFF0D8"/>
<path d="M42.3489 20.7651H42.1563V20.9588H42.3489V20.7651Z" fill="#FFF0D8"/>
<path d="M46.2033 20.7651H46.0106V20.9588H46.2033V20.7651Z" fill="#FFF0D8"/>
<path d="M44.2767 19.2156H44.084V19.4093H44.2767V19.2156Z" fill="#ED1C24"/>
<path d="M44.2767 19.603H44.084V19.7967H44.2767V19.603Z" fill="#ED1C24"/>
<path d="M44.2767 19.9902H44.084V20.1839H44.2767V19.9902Z" fill="#ED1C24"/>
<path d="M44.2767 20.3777H44.084V20.5714H44.2767V20.3777Z" fill="#ED1C24"/>
<path d="M44.2767 17.6648H44.084V17.8585H44.2767V17.6648Z" fill="#FFEDA9"/>
<path d="M44.084 17.8586H43.8914V18.246H44.084V17.8586Z" fill="#FFEDA9"/>
<path d="M41.9636 22.5096V22.1222H42.1563V21.9285H42.3489V21.54H42.5416V22.316H42.7354V22.5096H42.928V22.316H43.1207V21.9285H43.3133V22.1222H43.506V22.316H43.6986V22.1222H43.8913V21.7337H44.084V22.7033H44.2766V22.897H44.4693V22.7033H44.662V21.9285H44.8546V22.316H45.0473V22.5096H45.2399V22.7033H45.4326V22.5096H45.6252V21.54H45.8179V21.7337H46.0105V21.9285H46.2032V21.7337H46.3959V22.5096H46.2032V22.7033H45.6252V22.897H45.0473V23.0907H43.3133V22.897H42.7354V22.7033H42.1563V22.5096H41.9636Z" fill="#FFF0D8"/>
<path d="M41.9636 23.0905V22.7031H42.1563V22.8968H42.7354V23.0905H43.3133V23.2842H45.0473V23.0905H45.6252V22.8968H46.2032V22.7031H46.3959V23.0905H45.8179V23.2842H45.2399V23.4779H43.1207V23.2842H42.5416V23.0905H41.9636Z" fill="#CD8454"/>
<path d="M36.8413 8.04004V8.8159H36.6487V9.00958H36.456V8.8159H36.2634V8.62221H36.456V8.23372H36.6487V8.04004H36.8413Z" fill="#FFCB05"/>
<path d="M34.5294 12.3037H34.3367V10.9467H34.7221V10.753H35.3001V10.5593H36.2633V11.1404H36.8413V10.5593H37.8057V10.753H38.3837V10.9467H38.769V11.9152H38.5763V12.1089H38.3837V11.9152H38.191V11.7215H37.9983V11.9152H37.8057V12.8848H37.613V12.6911H37.4204V12.3037H37.2277V12.1089H37.0351V12.3037H36.8413V13.0785H36.6486V12.1089H36.456V11.9152H36.2633V12.1089H36.0707V12.4974H35.878V12.3037H35.6854V12.1089H35.4927V12.3037H35.3001V12.6911H35.1074V11.9152H34.9147V11.7215H34.7221V11.9152H34.5294V12.3037Z" fill="#EC7A23"/>
<path d="M36.6486 9.39722H36.456V10.9468H36.6486V9.39722Z" fill="white"/>
<path d="M34.7221 10.7529H34.3367V10.9466H34.7221V10.7529Z" fill="#231F20"/>
<path d="M35.3001 10.5593H34.7221V10.753H35.3001V10.5593Z" fill="#231F20"/>
<path d="M36.456 8.81592H36.2634V9.0096H36.456V8.81592Z" fill="#231F20"/>
<path d="M36.8413 8.81592H36.6486V9.0096H36.8413V8.81592Z" fill="#231F20"/>
<path d="M37.0339 8.04004H36.8413V8.81478H37.0339V8.04004Z" fill="#231F20"/>
<path d="M36.2633 8.23389H36.0707V8.81494H36.2633V8.23389Z" fill="#231F20"/>
<path d="M36.456 8.04004H36.2634V8.23372H36.456V8.04004Z" fill="#231F20"/>
<path d="M36.6486 7.65259V7.84634H36.456V8.04002H36.6486H36.8413V7.84634V7.65259H36.6486Z" fill="#231F20"/>
<path d="M36.6486 10.9467H36.456V9.39714H36.6486V10.9467ZM37.8046 10.3656H36.8413V9.20345H36.6486V9.00977H36.456V9.20345H36.2633V10.3656H35.3V10.5594H36.2633V11.1404H36.8413V10.5594H37.8046V10.3656Z" fill="#231F20"/>
<path d="M38.3837 10.5593H37.8057V10.753H38.3837V10.5593Z" fill="#231F20"/>
<path d="M38.769 10.7529H38.3837V10.9466H38.769V10.7529Z" fill="#231F20"/>
<path d="M37.6131 13.8533H35.4927V14.047H37.6131V13.8533Z" fill="#231F20"/>
<path d="M38.191 13.6597H37.6131V13.8534H38.191V13.6597Z" fill="#231F20"/>
<path d="M38.769 13.4658H38.191V13.6595H38.769V13.4658Z" fill="#231F20"/>
<path d="M35.4927 13.6597H34.9147V13.8534H35.4927V13.6597Z" fill="#231F20"/>
<path d="M34.9147 13.4658H34.3367V13.6595H34.9147V13.4658Z" fill="#231F20"/>
<path d="M37.4193 13.4658H35.6854V13.6595H37.4193V13.4658Z" fill="#231F20"/>
<path d="M37.9984 13.2722H37.4204V13.4659H37.9984V13.2722Z" fill="#231F20"/>
<path d="M38.5764 13.0784H37.9984V13.2721H38.5764V13.0784Z" fill="#231F20"/>
<path d="M35.6854 13.2722H35.1074V13.4659H35.6854V13.2722Z" fill="#231F20"/>
<path d="M35.1074 13.0784H34.5294V13.2721H35.1074V13.0784Z" fill="#231F20"/>
<path d="M34.5294 12.4975V12.3038H34.3367V10.9468H34.1441V12.3038V12.4975V12.8849V13.0786V13.466H34.3367V13.0786H34.5294V12.8849H34.3367V12.4975H34.5294Z" fill="#231F20"/>
<path d="M34.722 11.9153H34.5294V12.3027H34.722V11.9153Z" fill="#231F20"/>
<path d="M34.9147 11.7214H34.7221V11.9151H34.9147V11.7214Z" fill="#231F20"/>
<path d="M35.1074 11.9153H34.9147V12.6901H35.1074V11.9153Z" fill="#231F20"/>
<path d="M35.3 12.6912H35.1074V12.8848H35.3V12.6912Z" fill="#231F20"/>
<path d="M35.4927 12.3037H35.3V12.6911H35.4927V12.3037Z" fill="#231F20"/>
<path d="M35.6854 12.1089H35.4927V12.3026H35.6854V12.1089Z" fill="#231F20"/>
<path d="M35.878 12.3037H35.6854V12.4974H35.878V12.3037Z" fill="#231F20"/>
<path d="M36.0707 12.4973H35.8781V12.691H36.0707V12.4973Z" fill="#231F20"/>
<path d="M36.2633 12.1089H36.0707V12.4963H36.2633V12.1089Z" fill="#231F20"/>
<path d="M36.456 11.9153H36.2634V12.109H36.456V11.9153Z" fill="#231F20"/>
<path d="M36.6486 12.1089H36.456V13.0774H36.6486V12.1089Z" fill="#231F20"/>
<path d="M36.8413 13.0784H36.6486V13.2721H36.8413V13.0784Z" fill="#231F20"/>
<path d="M37.0339 12.3037H36.8413V13.0785H37.0339V12.3037Z" fill="#231F20"/>
<path d="M37.2277 12.1089H37.035V12.3026H37.2277V12.1089Z" fill="#231F20"/>
<path d="M37.4204 12.3037H37.2277V12.6911H37.4204V12.3037Z" fill="#231F20"/>
<path d="M37.613 12.6912H37.4204V12.8848H37.613V12.6912Z" fill="#231F20"/>
<path d="M37.8057 12.8848H37.6131V13.0785H37.8057V12.8848Z" fill="#231F20"/>
<path d="M37.9984 11.9153H37.8057V12.8838H37.9984V11.9153Z" fill="#231F20"/>
<path d="M38.191 11.7214H37.9984V11.9151H38.191V11.7214Z" fill="#231F20"/>
<path d="M38.3837 11.9153H38.191V12.109H38.3837V11.9153Z" fill="#231F20"/>
<path d="M38.5764 12.1089H38.3837V12.3026H38.5764V12.1089Z" fill="#231F20"/>
<path d="M38.769 10.9468V11.9153H38.5764V12.109H38.769V12.8849H38.5764V13.0786H38.769V13.466H38.9617V10.9468H38.769Z" fill="#231F20"/>
<path d="M37.8057 11.5278H35.3V11.7215H37.8057V11.5278Z" fill="#FFF0D8"/>
<path d="M38.3837 11.334H37.8057V11.5277H38.3837V11.334Z" fill="#FFF0D8"/>
<path d="M35.3001 11.334H34.7221V11.5277H35.3001V11.334Z" fill="#FFF0D8"/>
<path d="M34.722 11.1404H34.5294V11.3341H34.722V11.1404Z" fill="#FFF0D8"/>
<path d="M38.5764 11.1404H38.3837V11.3341H38.5764V11.1404Z" fill="#FFF0D8"/>
<path d="M36.6486 9.59082H36.456V9.78457H36.6486V9.59082Z" fill="#ED1C24"/>
<path d="M36.6486 9.97827H36.456V10.172H36.6486V9.97827Z" fill="#ED1C24"/>
<path d="M36.6486 10.3657H36.456V10.5594H36.6486V10.3657Z" fill="#ED1C24"/>
<path d="M36.6486 10.7529H36.456V10.9466H36.6486V10.7529Z" fill="#ED1C24"/>
<path d="M36.6486 8.04004H36.456V8.23372H36.6486V8.04004Z" fill="#FFEDA9"/>
<path d="M36.456 8.23389H36.2634V8.62126H36.456V8.23389Z" fill="#FFEDA9"/>
<path d="M34.3367 12.8849V12.4975H34.5294V12.3038H34.7221V11.9153H34.9147V12.6911H35.1074V12.8849H35.3001V12.6911H35.4927V12.3038H35.6854V12.4975H35.878V12.6911H36.0707V12.4975H36.2633V12.109H36.456V13.0786H36.6486V13.2723H36.8413V13.0786H37.0351V12.3038H37.2277V12.6911H37.4204V12.8849H37.613V13.0786H37.8057V12.8849H37.9983V11.9153H38.191V12.109H38.3837V12.3038H38.5763V12.109H38.769V12.8849H38.5763V13.0786H37.9983V13.2723H37.4204V13.4659H35.6854V13.2723H35.1074V13.0786H34.5294V12.8849H34.3367Z" fill="#FFF0D8"/>
<path d="M34.3367 13.4658V13.0784H34.5294V13.2721H35.1074V13.4658H35.6854V13.6595H37.4204V13.4658H37.9983V13.2721H38.5763V13.0784H38.769V13.4658H38.191V13.6595H37.613V13.8532H35.4927V13.6595H34.9147V13.4658H34.3367Z" fill="#CD8454"/>
<path d="M48.8264 21.8232V22.516H48.6544V22.6888H48.4814V22.516H48.3094V22.343H48.4814V21.9972H48.6544V21.8232H48.8264Z" fill="#FFCB05"/>
<path d="M46.7605 25.6317H46.5886V24.4202H46.9325V24.2473H47.4484V24.0745H48.3094V24.5932H48.8265V24.0745H49.6863V24.2473H50.2034V24.4202H50.5473V25.2859H50.3753V25.4588H50.2034V25.2859H50.0314V25.113H49.8594V25.2859H49.6863V26.1515H49.5143V25.9775H49.3424V25.6317H49.1704V25.4588H48.9984V25.6317H48.8265V26.3244H48.6545V25.4588H48.4814V25.2859H48.3094V25.4588H48.1374V25.8046H47.9655V25.6317H47.7935V25.4588H47.6215V25.6317H47.4484V25.9775H47.2765V25.2859H47.1045V25.113H46.9325V25.2859H46.7605V25.6317Z" fill="#EC7A23"/>
<path d="M48.6534 23.0359H48.4814V24.4203H48.6534V23.0359Z" fill="white"/>
<path d="M46.9325 24.2473H46.5886V24.4202H46.9325V24.2473Z" fill="#231F20"/>
<path d="M47.4484 24.0745H46.9325V24.2473H47.4484V24.0745Z" fill="#231F20"/>
<path d="M48.4814 22.5161H48.3094V22.689H48.4814V22.5161Z" fill="#231F20"/>
<path d="M48.8265 22.5161H48.6545V22.689H48.8265V22.5161Z" fill="#231F20"/>
<path d="M48.9983 21.8232H48.8264V22.516H48.9983V21.8232Z" fill="#231F20"/>
<path d="M48.3094 21.9973H48.1375V22.5161H48.3094V21.9973Z" fill="#231F20"/>
<path d="M48.4814 21.8232H48.3094V21.9961H48.4814V21.8232Z" fill="#231F20"/>
<path d="M48.6545 21.4775V21.6505H48.4814V21.8234H48.6545H48.8264V21.6505V21.4775H48.6545Z" fill="#231F20"/>
<path d="M48.6545 24.4201H48.4825V23.0357H48.6545V24.4201ZM49.6874 23.9014H48.8264V22.8628H48.6545V22.6899H48.4825V22.8628H48.3105V23.9014H47.4495V24.0742H48.3105V24.5929H48.8264V24.0742H49.6874V23.9014Z" fill="#231F20"/>
<path d="M50.2023 24.0745H49.6863V24.2473H50.2023V24.0745Z" fill="#231F20"/>
<path d="M50.5473 24.2473H50.2034V24.4202H50.5473V24.2473Z" fill="#231F20"/>
<path d="M49.5155 27.0161H47.6215V27.189H49.5155V27.0161Z" fill="#231F20"/>
<path d="M50.0303 26.843H49.5143V27.0159H50.0303V26.843Z" fill="#231F20"/>
<path d="M50.5473 26.6702H50.0314V26.8431H50.5473V26.6702Z" fill="#231F20"/>
<path d="M47.6204 26.843H47.1045V27.0159H47.6204V26.843Z" fill="#231F20"/>
<path d="M47.1045 26.6702H46.5886V26.8431H47.1045V26.6702Z" fill="#231F20"/>
<path d="M49.3423 26.6702H47.7935V26.8431H49.3423V26.6702Z" fill="#231F20"/>
<path d="M49.8583 26.4973H49.3423V26.6703H49.8583V26.4973Z" fill="#231F20"/>
<path d="M50.3752 26.3245H49.8593V26.4973H50.3752V26.3245Z" fill="#231F20"/>
<path d="M47.7924 26.4973H47.2764V26.6703H47.7924V26.4973Z" fill="#231F20"/>
<path d="M47.2764 26.3245H46.7605V26.4973H47.2764V26.3245Z" fill="#231F20"/>
<path d="M46.7605 25.8045V25.6316H46.5886V24.4202H46.4155V25.6316V25.8045V26.1514V26.3243V26.6701H46.5886V26.3243H46.7605V26.1514H46.5886V25.8045H46.7605Z" fill="#231F20"/>
<path d="M46.9325 25.2859H46.7605V25.6317H46.9325V25.2859Z" fill="#231F20"/>
<path d="M47.1045 25.1128H46.9325V25.2857H47.1045V25.1128Z" fill="#231F20"/>
<path d="M47.2765 25.2859H47.1045V25.9787H47.2765V25.2859Z" fill="#231F20"/>
<path d="M47.4484 25.9773H47.2764V26.1502H47.4484V25.9773Z" fill="#231F20"/>
<path d="M47.6204 25.6316H47.4484V25.9774H47.6204V25.6316Z" fill="#231F20"/>
<path d="M47.7935 25.4587H47.6215V25.6316H47.7935V25.4587Z" fill="#231F20"/>
<path d="M47.9654 25.6316H47.7935V25.8045H47.9654V25.6316Z" fill="#231F20"/>
<path d="M48.1374 25.8044H47.9654V25.9773H48.1374V25.8044Z" fill="#231F20"/>
<path d="M48.3094 25.4587H48.1375V25.8045H48.3094V25.4587Z" fill="#231F20"/>
<path d="M48.4814 25.2859H48.3094V25.4588H48.4814V25.2859Z" fill="#231F20"/>
<path d="M48.6534 25.4587H48.4814V26.3243H48.6534V25.4587Z" fill="#231F20"/>
<path d="M48.8265 26.3245H48.6545V26.4973H48.8265V26.3245Z" fill="#231F20"/>
<path d="M48.9983 25.6316H48.8264V26.3243H48.9983V25.6316Z" fill="#231F20"/>
<path d="M49.1704 25.4587H48.9984V25.6316H49.1704V25.4587Z" fill="#231F20"/>
<path d="M49.3424 25.6316H49.1704V25.9774H49.3424V25.6316Z" fill="#231F20"/>
<path d="M49.5143 25.9773H49.3423V26.1502H49.5143V25.9773Z" fill="#231F20"/>
<path d="M49.6863 26.1514H49.5143V26.3242H49.6863V26.1514Z" fill="#231F20"/>
<path d="M49.8583 25.2859H49.6863V26.1515H49.8583V25.2859Z" fill="#231F20"/>
<path d="M50.0313 25.1128H49.8593V25.2857H50.0313V25.1128Z" fill="#231F20"/>
<path d="M50.2033 25.2859H50.0314V25.4588H50.2033V25.2859Z" fill="#231F20"/>
<path d="M50.3753 25.4587H50.2034V25.6316H50.3753V25.4587Z" fill="#231F20"/>
<path d="M50.5473 24.4202V25.2858H50.3753V25.4587H50.5473V26.1514H50.3753V26.3243H50.5473V26.6701H50.7193V24.4202H50.5473Z" fill="#231F20"/>
<path d="M49.6863 24.939H47.4484V25.1118H49.6863V24.939Z" fill="#FFF0D8"/>
<path d="M50.2023 24.7661H49.6863V24.9391H50.2023V24.7661Z" fill="#FFF0D8"/>
<path d="M47.4484 24.7661H46.9325V24.9391H47.4484V24.7661Z" fill="#FFF0D8"/>
<path d="M46.9325 24.593H46.7605V24.766H46.9325V24.593Z" fill="#FFF0D8"/>
<path d="M50.3753 24.593H50.2034V24.766H50.3753V24.593Z" fill="#FFF0D8"/>
<path d="M48.6534 23.2087H48.4814V23.3817H48.6534V23.2087Z" fill="#ED1C24"/>
<path d="M48.6534 23.5547H48.4814V23.7276H48.6534V23.5547Z" fill="#ED1C24"/>
<path d="M48.6534 23.9004H48.4814V24.0733H48.6534V23.9004Z" fill="#ED1C24"/>
<path d="M48.6534 24.2473H48.4814V24.4202H48.6534V24.2473Z" fill="#ED1C24"/>
<path d="M48.6534 21.8232H48.4814V21.9961H48.6534V21.8232Z" fill="#FFEDA9"/>
<path d="M48.4814 21.9973H48.3094V22.3431H48.4814V21.9973Z" fill="#FFEDA9"/>
<path d="M46.5886 26.1515V25.8047H46.7605V25.6317H46.9325V25.2859H47.1045V25.9775H47.2765V26.1515H47.4484V25.9775H47.6215V25.6317H47.7935V25.8047H47.9655V25.9775H48.1374V25.8047H48.3094V25.4588H48.4814V26.3244H48.6545V26.4974H48.8265V26.3244H48.9984V25.6317H49.1704V25.9775H49.3424V26.1515H49.5143V26.3244H49.6863V26.1515H49.8594V25.2859H50.0314V25.4588H50.2034V25.6317H50.3753V25.4588H50.5473V26.1515H50.3753V26.3244H49.8594V26.4974H49.3424V26.6703H47.7935V26.4974H47.2765V26.3244H46.7605V26.1515H46.5886Z" fill="#FFF0D8"/>
<path d="M46.5886 26.6703V26.3245H46.7605V26.4973H47.2765V26.6703H47.7935V26.8432H49.3424V26.6703H49.8594V26.4973H50.3753V26.3245H50.5473V26.6703H50.0314V26.8432H49.5143V27.0161H47.6215V26.8432H47.1045V26.6703H46.5886Z" fill="#CD8454"/>
<path d="M32.8651 4.75488V5.44651H32.6931V5.61941H32.5212V5.44651H32.3481V5.2736H32.5212V4.92779H32.6931V4.75488H32.8651Z" fill="#FFCB05"/>
<path d="M30.7992 8.56213H30.6273V7.35065H30.9713V7.17776H31.4882V7.00488H32.3482V7.52359H32.8651V7.00488H33.7261V7.17776H34.242V7.35065H34.5871V8.2163H34.4141V8.38918H34.242V8.2163H34.0701V8.04342H33.8981V8.2163H33.7261V9.08189H33.5542V8.90795H33.3811V8.56213H33.2092V8.38918H33.0371V8.56213H32.8651V9.25484H32.6932V8.38918H32.5212V8.2163H32.3482V8.38918H32.1762V8.73501H32.0042V8.56213H31.8322V8.38918H31.6602V8.56213H31.4882V8.90795H31.3163V8.2163H31.1432V8.04342H30.9713V8.2163H30.7992V8.56213Z" fill="#EC7A23"/>
<path d="M32.6932 5.96631H32.5212V7.35066H32.6932V5.96631Z" fill="white"/>
<path d="M30.9713 7.17773H30.6273V7.35062H30.9713V7.17773Z" fill="#231F20"/>
<path d="M31.4872 7.00488H30.9712V7.17776H31.4872V7.00488Z" fill="#231F20"/>
<path d="M32.5201 5.44653H32.3481V5.61944H32.5201V5.44653Z" fill="#231F20"/>
<path d="M32.8652 5.44653H32.6932V5.61944H32.8652V5.44653Z" fill="#231F20"/>
<path d="M33.0371 4.75488H32.8652V5.4476H33.0371V4.75488Z" fill="#231F20"/>
<path d="M32.3481 4.92798H32.1761V5.44669H32.3481V4.92798Z" fill="#231F20"/>
<path d="M32.5201 4.75488H32.3481V4.92779H32.5201V4.75488Z" fill="#231F20"/>
<path d="M32.6932 4.40796V4.58087H32.5212V4.75487H32.6932H32.8651V4.58087V4.40796H32.6932Z" fill="#231F20"/>
<path d="M32.6932 7.35075H32.5212V5.96642H32.6932V7.35075ZM33.7261 6.83204H32.8651V5.79351H32.6932V5.62061H32.5212V5.79351H32.3492V6.83204H31.4882V7.00492H32.3492V7.52369H32.8651V7.00492H33.7261V6.83204Z" fill="#231F20"/>
<path d="M34.2421 7.00488H33.7261V7.17776H34.2421V7.00488Z" fill="#231F20"/>
<path d="M34.5861 7.17773H34.2421V7.35062H34.5861V7.17773Z" fill="#231F20"/>
<path d="M33.5542 9.94653H31.6602V10.1194H33.5542V9.94653Z" fill="#231F20"/>
<path d="M34.0701 9.77368H33.5541V9.94656H34.0701V9.77368Z" fill="#231F20"/>
<path d="M34.586 9.60059H34.0701V9.77347H34.586V9.60059Z" fill="#231F20"/>
<path d="M31.6591 9.77368H31.1432V9.94656H31.6591V9.77368Z" fill="#231F20"/>
<path d="M31.1432 9.60059H30.6273V9.77347H31.1432V9.60059Z" fill="#231F20"/>
<path d="M33.3811 9.60059H31.8322V9.77347H33.3811V9.60059Z" fill="#231F20"/>
<path d="M33.897 9.42773H33.381V9.60068H33.897V9.42773Z" fill="#231F20"/>
<path d="M34.4141 9.25488H33.8981V9.42783H34.4141V9.25488Z" fill="#231F20"/>
<path d="M31.8322 9.42773H31.3163V9.60068H31.8322V9.42773Z" fill="#231F20"/>
<path d="M31.3152 9.25488H30.7993V9.42783H31.3152V9.25488Z" fill="#231F20"/>
<path d="M30.7992 8.73519V8.56225H30.6272V7.35083H30.4553V8.56225V8.73519V9.08207V9.25496V9.60078H30.6272V9.25496H30.7992V9.08207H30.6272V8.73519H30.7992Z" fill="#231F20"/>
<path d="M30.9712 8.21631H30.7993V8.56207H30.9712V8.21631Z" fill="#231F20"/>
<path d="M31.1432 8.04346H30.9712V8.2164H31.1432V8.04346Z" fill="#231F20"/>
<path d="M31.3152 8.21631H31.1432V8.90902H31.3152V8.21631Z" fill="#231F20"/>
<path d="M31.4883 8.90796H31.3163V9.0809H31.4883V8.90796Z" fill="#231F20"/>
<path d="M31.6602 8.56226H31.4882V8.90808H31.6602V8.56226Z" fill="#231F20"/>
<path d="M31.8322 8.38916H31.6602V8.56204H31.8322V8.38916Z" fill="#231F20"/>
<path d="M32.0042 8.56226H31.8322V8.73514H32.0042V8.56226Z" fill="#231F20"/>
<path d="M32.1762 8.73511H32.0042V8.90799H32.1762V8.73511Z" fill="#231F20"/>
<path d="M32.3481 8.38916H32.1761V8.73493H32.3481V8.38916Z" fill="#231F20"/>
<path d="M32.5201 8.21631H32.3481V8.38919H32.5201V8.21631Z" fill="#231F20"/>
<path d="M32.6932 8.38916H32.5212V9.25475H32.6932V8.38916Z" fill="#231F20"/>
<path d="M32.8652 9.25488H32.6932V9.42783H32.8652V9.25488Z" fill="#231F20"/>
<path d="M33.0371 8.56226H32.8652V9.25496H33.0371V8.56226Z" fill="#231F20"/>
<path d="M33.2091 8.38916H33.0371V8.56204H33.2091V8.38916Z" fill="#231F20"/>
<path d="M33.3811 8.56226H33.2091V8.90808H33.3811V8.56226Z" fill="#231F20"/>
<path d="M33.553 8.90796H33.381V9.0809H33.553V8.90796Z" fill="#231F20"/>
<path d="M33.7261 9.08203H33.5541V9.25491H33.7261V9.08203Z" fill="#231F20"/>
<path d="M33.8981 8.21631H33.7261V9.0819H33.8981V8.21631Z" fill="#231F20"/>
<path d="M34.0701 8.04346H33.8981V8.2164H34.0701V8.04346Z" fill="#231F20"/>
<path d="M34.242 8.21631H34.0701V8.38919H34.242V8.21631Z" fill="#231F20"/>
<path d="M34.4141 8.38916H34.2421V8.56204H34.4141V8.38916Z" fill="#231F20"/>
<path d="M34.5871 7.35083V8.21648H34.414V8.38936H34.5871V9.08207H34.414V9.25496H34.5871V9.60078H34.7591V7.35083H34.5871Z" fill="#231F20"/>
<path d="M33.7261 7.86938H31.4882V8.04227H33.7261V7.86938Z" fill="#FFF0D8"/>
<path d="M34.2421 7.69653H33.7261V7.86948H34.2421V7.69653Z" fill="#FFF0D8"/>
<path d="M31.4872 7.69653H30.9712V7.86948H31.4872V7.69653Z" fill="#FFF0D8"/>
<path d="M30.9712 7.52368H30.7993V7.69663H30.9712V7.52368Z" fill="#FFF0D8"/>
<path d="M34.4141 7.52368H34.2421V7.69663H34.4141V7.52368Z" fill="#FFF0D8"/>
<path d="M32.6932 6.13916H32.5212V6.31209H32.6932V6.13916Z" fill="#ED1C24"/>
<path d="M32.6932 6.48511H32.5212V6.65799H32.6932V6.48511Z" fill="#ED1C24"/>
<path d="M32.6932 6.83081H32.5212V7.00369H32.6932V6.83081Z" fill="#ED1C24"/>
<path d="M32.6932 7.17773H32.5212V7.35062H32.6932V7.17773Z" fill="#ED1C24"/>
<path d="M32.6932 4.75488H32.5212V4.92779H32.6932V4.75488Z" fill="#FFEDA9"/>
<path d="M32.5201 4.92798H32.3481V5.27379H32.5201V4.92798Z" fill="#FFEDA9"/>
<path d="M30.6273 9.0819V8.73502H30.7992V8.56207H30.9713V8.21631H31.1432V8.9079H31.3163V9.0819H31.4882V8.9079H31.6602V8.56207H31.8322V8.73502H32.0042V8.9079H32.1762V8.73502H32.3482V8.38919H32.5212V9.25478H32.6932V9.42773H32.8651V9.25478H33.0371V8.56207H33.2092V8.9079H33.3811V9.0819H33.5542V9.25478H33.7261V9.0819H33.8981V8.21631H34.0701V8.38919H34.242V8.56207H34.4141V8.38919H34.5871V9.0819H34.4141V9.25478H33.8981V9.42773H33.3811V9.60061H31.8322V9.42773H31.3163V9.25478H30.7992V9.0819H30.6273Z" fill="#FFF0D8"/>
<path d="M30.6273 9.60071V9.25488H30.7992V9.42783H31.3163V9.60071H31.8322V9.77359H33.3811V9.60071H33.8981V9.42783H34.4141V9.25488H34.5871V9.60071H34.0701V9.77359H33.5542V9.94654H31.6602V9.77359H31.1432V9.60071H30.6273Z" fill="#CD8454"/>
<path d="M54.1457 24.2747V24.8842H53.9944V25.0374H53.8432V24.8842H53.6907V24.7321H53.8432V24.4279H53.9944V24.2747H54.1457Z" fill="#FFCB05"/>
<path d="M52.3269 27.6276H52.1756V26.5606H52.4782V26.4085H52.9332V26.2563H53.6908V26.7138H54.1457V26.2563H54.9033V26.4085H55.3583V26.5606H55.662V27.3233H55.5107V27.4755H55.3583V27.3233H55.207V27.1701H55.0557V27.3233H54.9033V28.085H54.752V27.9329H54.6007V27.6276H54.4494V27.4755H54.297V27.6276H54.1457V28.2371H53.9945V27.4755H53.8431V27.3233H53.6908V27.4755H53.5395V27.7808H53.3882V27.6276H53.2358V27.4755H53.0845V27.6276H52.9332V27.9329H52.7819V27.3233H52.6295V27.1701H52.4782V27.3233H52.3269V27.6276Z" fill="#EC7A23"/>
<path d="M53.9945 25.3416H53.8431V26.5607H53.9945V25.3416Z" fill="white"/>
<path d="M52.4793 26.4087H52.1756V26.5608H52.4793V26.4087Z" fill="#231F20"/>
<path d="M52.9332 26.2563H52.4782V26.4085H52.9332V26.2563Z" fill="#231F20"/>
<path d="M53.8421 24.8843H53.6907V25.0364H53.8421V24.8843Z" fill="#231F20"/>
<path d="M54.1458 24.8843H53.9944V25.0364H54.1458V24.8843Z" fill="#231F20"/>
<path d="M54.297 24.2747H54.1458V24.8842H54.297V24.2747Z" fill="#231F20"/>
<path d="M53.6908 24.4277H53.5395V24.8852H53.6908V24.4277Z" fill="#231F20"/>
<path d="M53.8421 24.2747H53.6907V24.4268H53.8421V24.2747Z" fill="#231F20"/>
<path d="M53.9945 23.9705V24.1225H53.8431V24.2747H53.9945H54.1457V24.1225V23.9705H53.9945Z" fill="#231F20"/>
<path d="M53.9945 26.5608H53.8432V25.3417H53.9945V26.5608ZM54.9044 26.1034H54.1469V25.1885H53.9956V25.0364H53.8443V25.1885H53.693V26.1034H52.9354V26.2555H53.693V26.7129H54.148V26.2555H54.9056V26.1034H54.9044Z" fill="#231F20"/>
<path d="M55.3583 26.2563H54.9033V26.4085H55.3583V26.2563Z" fill="#231F20"/>
<path d="M55.662 26.4087H55.3583V26.5608H55.662V26.4087Z" fill="#231F20"/>
<path d="M54.752 28.8479H53.0845V29H54.752V28.8479Z" fill="#231F20"/>
<path d="M55.207 28.6946H54.752V28.8467H55.207V28.6946Z" fill="#231F20"/>
<path d="M55.6619 28.5425H55.207V28.6946H55.6619V28.5425Z" fill="#231F20"/>
<path d="M53.0845 28.6946H52.6295V28.8467H53.0845V28.6946Z" fill="#231F20"/>
<path d="M52.6306 28.5425H52.1756V28.6946H52.6306V28.5425Z" fill="#231F20"/>
<path d="M54.5996 28.5425H53.2358V28.6946H54.5996V28.5425Z" fill="#231F20"/>
<path d="M55.0557 28.3904H54.6007V28.5425H55.0557V28.3904Z" fill="#231F20"/>
<path d="M55.5107 28.2373H55.0557V28.3894H55.5107V28.2373Z" fill="#231F20"/>
<path d="M53.2369 28.3904H52.7819V28.5425H53.2369V28.3904Z" fill="#231F20"/>
<path d="M52.7819 28.2373H52.327V28.3894H52.7819V28.2373Z" fill="#231F20"/>
<path d="M52.3269 27.781V27.6278H52.1756V26.5608H52.0233V27.6278V27.781V28.0852V28.2373V28.5426H52.1756V28.2373H52.3269V28.0852H52.1756V27.781H52.3269Z" fill="#231F20"/>
<path d="M52.4782 27.3235H52.327V27.6288H52.4782V27.3235Z" fill="#231F20"/>
<path d="M52.6295 27.1702H52.4782V27.3223H52.6295V27.1702Z" fill="#231F20"/>
<path d="M52.7808 27.3235H52.6295V27.933H52.7808V27.3235Z" fill="#231F20"/>
<path d="M52.9332 27.9329H52.7819V28.085H52.9332V27.9329Z" fill="#231F20"/>
<path d="M53.0845 27.6277H52.9332V27.933H53.0845V27.6277Z" fill="#231F20"/>
<path d="M53.2358 27.4756H53.0845V27.6277H53.2358V27.4756Z" fill="#231F20"/>
<path d="M53.3871 27.6277H53.2358V27.7798H53.3871V27.6277Z" fill="#231F20"/>
<path d="M53.5394 27.7808H53.3882V27.9329H53.5394V27.7808Z" fill="#231F20"/>
<path d="M53.6908 27.4756H53.5395V27.7809H53.6908V27.4756Z" fill="#231F20"/>
<path d="M53.8421 27.3235H53.6907V27.4756H53.8421V27.3235Z" fill="#231F20"/>
<path d="M53.9945 27.4756H53.8431V28.2373H53.9945V27.4756Z" fill="#231F20"/>
<path d="M54.1458 28.2373H53.9944V28.3894H54.1458V28.2373Z" fill="#231F20"/>
<path d="M54.297 27.6277H54.1458V28.2372H54.297V27.6277Z" fill="#231F20"/>
<path d="M54.4483 27.4756H54.297V27.6277H54.4483V27.4756Z" fill="#231F20"/>
<path d="M54.6008 27.6277H54.4495V27.933H54.6008V27.6277Z" fill="#231F20"/>
<path d="M54.752 27.9329H54.6007V28.085H54.752V27.9329Z" fill="#231F20"/>
<path d="M54.9033 28.0852H54.752V28.2373H54.9033V28.0852Z" fill="#231F20"/>
<path d="M55.0546 27.3235H54.9033V28.0851H55.0546V27.3235Z" fill="#231F20"/>
<path d="M55.207 27.1702H55.0557V27.3223H55.207V27.1702Z" fill="#231F20"/>
<path d="M55.3582 27.3235H55.207V27.4756H55.3582V27.3235Z" fill="#231F20"/>
<path d="M55.5096 27.4756H55.3583V27.6277H55.5096V27.4756Z" fill="#231F20"/>
<path d="M55.662 26.5608V27.3235H55.5107V27.4756H55.662V28.0852H55.5107V28.2373H55.662V28.5426H55.8133V26.5608H55.662Z" fill="#231F20"/>
<path d="M54.9044 27.0181H52.9332V27.1702H54.9044V27.0181Z" fill="#FFF0D8"/>
<path d="M55.3583 26.866H54.9033V27.018H55.3583V26.866Z" fill="#FFF0D8"/>
<path d="M52.9332 26.866H52.4782V27.018H52.9332V26.866Z" fill="#FFF0D8"/>
<path d="M52.4782 26.7139H52.327V26.8659H52.4782V26.7139Z" fill="#FFF0D8"/>
<path d="M55.5096 26.7139H55.3583V26.8659H55.5096V26.7139Z" fill="#FFF0D8"/>
<path d="M53.9945 25.4937H53.8431V25.6458H53.9945V25.4937Z" fill="#ED1C24"/>
<path d="M53.9945 25.7991H53.8431V25.9512H53.9945V25.7991Z" fill="#ED1C24"/>
<path d="M53.9945 26.1042H53.8431V26.2564H53.9945V26.1042Z" fill="#ED1C24"/>
<path d="M53.9945 26.4087H53.8431V26.5608H53.9945V26.4087Z" fill="#ED1C24"/>
<path d="M53.9945 24.2747H53.8431V24.4268H53.9945V24.2747Z" fill="#FFEDA9"/>
<path d="M53.8421 24.4277H53.6907V24.7331H53.8421V24.4277Z" fill="#FFEDA9"/>
<path d="M52.1756 28.0851V27.7809H52.3269V27.6277H52.4782V27.3235H52.6295V27.933H52.7819V28.0851H52.9332V27.933H53.0845V27.6277H53.2358V27.7809H53.3882V27.933H53.5395V27.7809H53.6908V27.4756H53.8431V28.2373H53.9945V28.3905H54.1457V28.2373H54.297V27.6277H54.4494V27.933H54.6007V28.0851H54.752V28.2373H54.9033V28.0851H55.0557V27.3235H55.207V27.4756H55.3583V27.6277H55.5107V27.4756H55.662V28.0851H55.5107V28.2373H55.0557V28.3905H54.6007V28.5426H53.2358V28.3905H52.7819V28.2373H52.3269V28.0851H52.1756Z" fill="#FFF0D8"/>
<path d="M52.1756 28.5426V28.2373H52.3269V28.3905H52.7819V28.5426H53.2358V28.6947H54.6007V28.5426H55.0557V28.3905H55.5107V28.2373H55.662V28.5426H55.207V28.6947H54.752V28.8479H53.0845V28.6947H52.6295V28.5426H52.1756Z" fill="#CD8454"/>
<path d="M27.9257 3.28955V3.8991H27.7744V4.05231H27.622V3.8991H27.4707V3.74699H27.622V3.44276H27.7744V3.28955H27.9257Z" fill="#FFCB05"/>
<path d="M26.1069 6.6427H25.9545V5.57571H26.2582V5.42359H26.7132V5.27148H27.4708V5.72892H27.9257V5.27148H28.6833V5.42359H29.1382V5.57571H29.4419V6.33848H29.2896V6.49056H29.1382V6.33848H28.987V6.18526H28.8357V6.33848H28.6833V7.10012H28.532V6.94804H28.3807V6.6427H28.2294V6.49056H28.077V6.6427H27.9257V7.25226H27.7744V6.49056H27.622V6.33848H27.4708V6.49056H27.3194V6.7959H27.1681V6.6427H27.0157V6.49056H26.8644V6.6427H26.7132V6.94804H26.5618V6.33848H26.4095V6.18526H26.2582V6.33848H26.1069V6.6427Z" fill="#EC7A23"/>
<path d="M27.7733 4.35645H27.622V5.57554H27.7733V4.35645Z" fill="white"/>
<path d="M26.2582 5.42358H25.9545V5.57569H26.2582V5.42358Z" fill="#231F20"/>
<path d="M26.7132 5.27148H26.2582V5.42359H26.7132V5.27148Z" fill="#231F20"/>
<path d="M27.622 3.89917H27.4707V4.05128H27.622V3.89917Z" fill="#231F20"/>
<path d="M27.9257 3.89917H27.7744V4.05128H27.9257V3.89917Z" fill="#231F20"/>
<path d="M28.077 3.28955H27.9257V3.8991H28.077V3.28955Z" fill="#231F20"/>
<path d="M27.4707 3.44287H27.3195V3.90031H27.4707V3.44287Z" fill="#231F20"/>
<path d="M27.622 3.28955H27.4707V3.44167H27.622V3.28955Z" fill="#231F20"/>
<path d="M27.7744 2.98535V3.13747H27.622V3.28958H27.7744H27.9257V3.13747V2.98535H27.7744Z" fill="#231F20"/>
<path d="M27.7744 5.57568H27.6231V4.35659H27.7744V5.57568ZM28.6843 5.11825H27.9268V4.20338H27.7755V4.05127H27.6242V4.20338H27.4729V5.11825H26.7153V5.27036H27.4729V5.7278H27.9279V5.27036H28.6855V5.11825H28.6843Z" fill="#231F20"/>
<path d="M29.1382 5.27148H28.6832V5.42359H29.1382V5.27148Z" fill="#231F20"/>
<path d="M29.4419 5.42358H29.1382V5.57569H29.4419V5.42358Z" fill="#231F20"/>
<path d="M28.532 7.86182H26.8644V8.0139H28.532V7.86182Z" fill="#231F20"/>
<path d="M28.987 7.70947H28.532V7.86161H28.987V7.70947Z" fill="#231F20"/>
<path d="M29.4419 7.55737H28.987V7.70951H29.4419V7.55737Z" fill="#231F20"/>
<path d="M26.8644 7.70947H26.4095V7.86161H26.8644V7.70947Z" fill="#231F20"/>
<path d="M26.4095 7.55737H25.9545V7.70951H26.4095V7.55737Z" fill="#231F20"/>
<path d="M28.3796 7.55737H27.0157V7.70951H28.3796V7.55737Z" fill="#231F20"/>
<path d="M28.8357 7.40527H28.3807V7.55735H28.8357V7.40527Z" fill="#231F20"/>
<path d="M29.2906 7.2522H28.8356V7.40434H29.2906V7.2522Z" fill="#231F20"/>
<path d="M27.0168 7.40527H26.5618V7.55735H27.0168V7.40527Z" fill="#231F20"/>
<path d="M26.5618 7.2522H26.1068V7.40434H26.5618V7.2522Z" fill="#231F20"/>
<path d="M26.1069 6.79585V6.64265H25.9545V5.57568H25.8032V6.64265V6.79585V7.10007V7.25221V7.55755H25.9545V7.25221H26.1069V7.10007H25.9545V6.79585H26.1069Z" fill="#231F20"/>
<path d="M26.2581 6.33838H26.1068V6.64372H26.2581V6.33838Z" fill="#231F20"/>
<path d="M26.4095 6.18506H26.2582V6.33717H26.4095V6.18506Z" fill="#231F20"/>
<path d="M26.5607 6.33838H26.4095V6.94794H26.5607V6.33838Z" fill="#231F20"/>
<path d="M26.7131 6.948H26.5618V7.10008H26.7131V6.948Z" fill="#231F20"/>
<path d="M26.8644 6.64258H26.7131V6.94785H26.8644V6.64258Z" fill="#231F20"/>
<path d="M27.0158 6.49048H26.8644V6.64256H27.0158V6.49048Z" fill="#231F20"/>
<path d="M27.1671 6.64258H27.0157V6.79466H27.1671V6.64258Z" fill="#231F20"/>
<path d="M27.3194 6.7959H27.1681V6.94798H27.3194V6.7959Z" fill="#231F20"/>
<path d="M27.4707 6.49048H27.3195V6.79575H27.4707V6.49048Z" fill="#231F20"/>
<path d="M27.622 6.33838H27.4707V6.49052H27.622V6.33838Z" fill="#231F20"/>
<path d="M27.7733 6.49048H27.622V7.25212H27.7733V6.49048Z" fill="#231F20"/>
<path d="M27.9257 7.2522H27.7744V7.40434H27.9257V7.2522Z" fill="#231F20"/>
<path d="M28.077 6.64258H27.9257V7.25214H28.077V6.64258Z" fill="#231F20"/>
<path d="M28.2283 6.49048H28.077V6.64256H28.2283V6.49048Z" fill="#231F20"/>
<path d="M28.3806 6.64258H28.2294V6.94785H28.3806V6.64258Z" fill="#231F20"/>
<path d="M28.532 6.948H28.3807V7.10008H28.532V6.948Z" fill="#231F20"/>
<path d="M28.6833 7.1001H28.532V7.25224H28.6833V7.1001Z" fill="#231F20"/>
<path d="M28.8345 6.33838H28.6832V7.10008H28.8345V6.33838Z" fill="#231F20"/>
<path d="M28.9869 6.18506H28.8356V6.33717H28.9869V6.18506Z" fill="#231F20"/>
<path d="M29.1383 6.33838H28.987V6.49052H29.1383V6.33838Z" fill="#231F20"/>
<path d="M29.2896 6.49048H29.1382V6.64256H29.2896V6.49048Z" fill="#231F20"/>
<path d="M29.4419 5.57568V6.33843H29.2896V6.49057H29.4419V7.10007H29.2896V7.25221H29.4419V7.55755H29.5932V5.57568H29.4419Z" fill="#231F20"/>
<path d="M28.6843 6.03296H26.7131V6.18508H28.6843V6.03296Z" fill="#FFF0D8"/>
<path d="M29.1382 5.8811H28.6832V6.03321H29.1382V5.8811Z" fill="#FFF0D8"/>
<path d="M26.7132 5.8811H26.2582V6.03321H26.7132V5.8811Z" fill="#FFF0D8"/>
<path d="M26.2581 5.72876H26.1068V5.88088H26.2581V5.72876Z" fill="#FFF0D8"/>
<path d="M29.2896 5.72876H29.1382V5.88088H29.2896V5.72876Z" fill="#FFF0D8"/>
<path d="M27.7733 4.50854H27.622V4.66066H27.7733V4.50854Z" fill="#ED1C24"/>
<path d="M27.7733 4.81396H27.622V4.96608H27.7733V4.81396Z" fill="#ED1C24"/>
<path d="M27.7733 5.11938H27.622V5.2715H27.7733V5.11938Z" fill="#ED1C24"/>
<path d="M27.7733 5.42358H27.622V5.57569H27.7733V5.42358Z" fill="#ED1C24"/>
<path d="M27.7733 3.28955H27.622V3.44167H27.7733V3.28955Z" fill="#FFEDA9"/>
<path d="M27.622 3.44287H27.4707V3.74819H27.622V3.44287Z" fill="#FFEDA9"/>
<path d="M25.9545 7.10008V6.79586H26.1069V6.6426H26.2582V6.33838H26.4095V6.94794H26.5618V7.10008H26.7132V6.94794H26.8644V6.6426H27.0157V6.79586H27.1681V6.94794H27.3194V6.79586H27.4708V6.49052H27.622V7.25216H27.7744V7.40536H27.9257V7.25216H28.077V6.6426H28.2294V6.94794H28.3807V7.10008H28.532V7.25216H28.6833V7.10008H28.8357V6.33838H28.987V6.49052H29.1382V6.6426H29.2896V6.49052H29.4419V7.10008H29.2896V7.25216H28.8357V7.40536H28.3807V7.5575H27.0157V7.40536H26.5618V7.25216H26.1069V7.10008H25.9545Z" fill="#FFF0D8"/>
<path d="M25.9545 7.55754V7.2522H26.1069V7.40539H26.5618V7.55754H27.0157V7.70961H28.3807V7.55754H28.8357V7.40539H29.2896V7.2522H29.4419V7.55754H28.987V7.70961H28.532V7.86176H26.8644V7.70961H26.4095V7.55754H25.9545Z" fill="#CD8454"/>
<path d="M59.1593 24.3787V24.9051H59.0286V25.0375H58.897V24.9051H58.7663V24.7737H58.897V24.51H59.0286V24.3787H59.1593Z" fill="#FFCB05"/>
<path d="M57.5864 27.2765H57.4558V26.354H57.7181V26.2226H58.1111V26.0913H58.7664V26.4864H59.1593V26.0913H59.8145V26.2226H60.2075V26.354H60.4698V27.0127H60.3392V27.1452H60.2075V27.0127H60.0769V26.8814H59.9451V27.0127H59.8145V27.6715H59.6839V27.5403H59.5522V27.2765H59.4216V27.1452H59.2899V27.2765H59.1593V27.804H59.0287V27.1452H58.897V27.0127H58.7664V27.1452H58.6357V27.4089H58.504V27.2765H58.3734V27.1452H58.2417V27.2765H58.1111V27.5403H57.9805V27.0127H57.8487V26.8814H57.7181V27.0127H57.5864V27.2765Z" fill="#EC7A23"/>
<path d="M59.0276 25.3H58.897V26.3539H59.0276V25.3Z" fill="white"/>
<path d="M57.7181 26.2227H57.4558V26.354H57.7181V26.2227Z" fill="#231F20"/>
<path d="M58.1111 26.0913H57.7181V26.2226H58.1111V26.0913Z" fill="#231F20"/>
<path d="M58.897 24.905H58.7663V25.0363H58.897V24.905Z" fill="#231F20"/>
<path d="M59.1593 24.905H59.0287V25.0363H59.1593V24.905Z" fill="#231F20"/>
<path d="M59.2899 24.3787H59.1593V24.9061H59.2899V24.3787Z" fill="#231F20"/>
<path d="M58.7663 24.51H58.6357V24.9051H58.7663V24.51Z" fill="#231F20"/>
<path d="M58.897 24.3787H58.7663V24.51H58.897V24.3787Z" fill="#231F20"/>
<path d="M59.0287 24.115V24.2463H58.897V24.3787H59.0287H59.1593V24.2463V24.115H59.0287Z" fill="#231F20"/>
<path d="M59.0286 26.3539H58.898V25.3H59.0286V26.3539ZM59.8145 25.9588H59.1592V25.1687H59.0286V25.0374H58.898V25.1687H58.7674V25.9588H58.1121V26.0901H58.7674V26.4852H59.1604V26.0901H59.8156V25.9588H59.8145Z" fill="#231F20"/>
<path d="M60.2074 26.0913H59.8145V26.2226H60.2074V26.0913Z" fill="#231F20"/>
<path d="M60.4698 26.2227H60.2075V26.354H60.4698V26.2227Z" fill="#231F20"/>
<path d="M59.6828 28.3303H58.2416V28.4617H59.6828V28.3303Z" fill="#231F20"/>
<path d="M60.0768 28.199H59.6838V28.3302H60.0768V28.199Z" fill="#231F20"/>
<path d="M60.4698 28.0667H60.0768V28.1979H60.4698V28.0667Z" fill="#231F20"/>
<path d="M58.2417 28.199H57.8488V28.3302H58.2417V28.199Z" fill="#231F20"/>
<path d="M57.8487 28.0667H57.4558V28.1979H57.8487V28.0667Z" fill="#231F20"/>
<path d="M59.5522 28.0667H58.3734V28.1979H59.5522V28.0667Z" fill="#231F20"/>
<path d="M59.9452 27.9353H59.5522V28.0666H59.9452V27.9353Z" fill="#231F20"/>
<path d="M60.3381 27.804H59.9451V27.9353H60.3381V27.804Z" fill="#231F20"/>
<path d="M58.3735 27.9353H57.9805V28.0666H58.3735V27.9353Z" fill="#231F20"/>
<path d="M57.9794 27.804H57.5864V27.9353H57.9794V27.804Z" fill="#231F20"/>
<path d="M57.5864 27.4089V27.2765H57.4558V26.354H57.3252V27.2765V27.4089V27.6715V27.804V28.0666H57.4558V27.804H57.5864V27.6715H57.4558V27.4089H57.5864Z" fill="#231F20"/>
<path d="M57.7171 27.0127H57.5864V27.2764H57.7171V27.0127Z" fill="#231F20"/>
<path d="M57.8487 26.8813H57.7181V27.0127H57.8487V26.8813Z" fill="#231F20"/>
<path d="M57.9794 27.0127H57.8488V27.5402H57.9794V27.0127Z" fill="#231F20"/>
<path d="M58.1111 27.5403H57.9805V27.6716H58.1111V27.5403Z" fill="#231F20"/>
<path d="M58.2417 27.2764H58.1111V27.5401H58.2417V27.2764Z" fill="#231F20"/>
<path d="M58.3722 27.145H58.2416V27.2764H58.3722V27.145Z" fill="#231F20"/>
<path d="M58.504 27.2764H58.3734V27.4077H58.504V27.2764Z" fill="#231F20"/>
<path d="M58.6346 27.4089H58.504V27.5403H58.6346V27.4089Z" fill="#231F20"/>
<path d="M58.7663 27.145H58.6357V27.4088H58.7663V27.145Z" fill="#231F20"/>
<path d="M58.897 27.0127H58.7663V27.144H58.897V27.0127Z" fill="#231F20"/>
<path d="M59.0276 27.145H58.897V27.8038H59.0276V27.145Z" fill="#231F20"/>
<path d="M59.1593 27.804H59.0287V27.9353H59.1593V27.804Z" fill="#231F20"/>
<path d="M59.2899 27.2764H59.1593V27.8038H59.2899V27.2764Z" fill="#231F20"/>
<path d="M59.4205 27.145H59.2899V27.2764H59.4205V27.145Z" fill="#231F20"/>
<path d="M59.5522 27.2764H59.4216V27.5401H59.5522V27.2764Z" fill="#231F20"/>
<path d="M59.6828 27.5403H59.5522V27.6716H59.6828V27.5403Z" fill="#231F20"/>
<path d="M59.8145 27.6714H59.6838V27.8027H59.8145V27.6714Z" fill="#231F20"/>
<path d="M59.9451 27.0127H59.8145V27.6715H59.9451V27.0127Z" fill="#231F20"/>
<path d="M60.0757 26.8813H59.9451V27.0127H60.0757V26.8813Z" fill="#231F20"/>
<path d="M60.2074 27.0127H60.0768V27.144H60.2074V27.0127Z" fill="#231F20"/>
<path d="M60.3381 27.145H60.2075V27.2764H60.3381V27.145Z" fill="#231F20"/>
<path d="M60.4698 26.354V27.0127H60.3392V27.1452H60.4698V27.6715H60.3392V27.804H60.4698V28.0666H60.6004V26.354H60.4698Z" fill="#231F20"/>
<path d="M59.8145 26.75H58.1111V26.8813H59.8145V26.75Z" fill="#FFF0D8"/>
<path d="M60.2074 26.6177H59.8145V26.749H60.2074V26.6177Z" fill="#FFF0D8"/>
<path d="M58.1111 26.6177H57.7181V26.749H58.1111V26.6177Z" fill="#FFF0D8"/>
<path d="M57.7171 26.4863H57.5864V26.6177H57.7171V26.4863Z" fill="#FFF0D8"/>
<path d="M60.3381 26.4863H60.2075V26.6177H60.3381V26.4863Z" fill="#FFF0D8"/>
<path d="M59.0276 25.4326H58.897V25.564H59.0276V25.4326Z" fill="#ED1C24"/>
<path d="M59.0276 25.6963H58.897V25.8276H59.0276V25.6963Z" fill="#ED1C24"/>
<path d="M59.0276 25.9587H58.897V26.0901H59.0276V25.9587Z" fill="#ED1C24"/>
<path d="M59.0276 26.2227H58.897V26.354H59.0276V26.2227Z" fill="#ED1C24"/>
<path d="M59.0276 24.3787H58.897V24.51H59.0276V24.3787Z" fill="#FFEDA9"/>
<path d="M58.897 24.51H58.7663V24.7737H58.897V24.51Z" fill="#FFEDA9"/>
<path d="M57.4558 27.6715V27.4088H57.5864V27.2764H57.7181V27.0127H57.8487V27.5402H57.9805V27.6715H58.1111V27.5402H58.2417V27.2764H58.3734V27.4088H58.504V27.5402H58.6357V27.4088H58.7664V27.1451H58.897V27.8039H59.0287V27.9352H59.1593V27.8039H59.2899V27.2764H59.4216V27.5402H59.5522V27.6715H59.6839V27.8039H59.8145V27.6715H59.9451V27.0127H60.0769V27.1451H60.2075V27.2764H60.3392V27.1451H60.4698V27.6715H60.3392V27.8039H59.9451V27.9352H59.5522V28.0666H58.3734V27.9352H57.9805V27.8039H57.5864V27.6715H57.4558Z" fill="#FFF0D8"/>
<path d="M57.4558 28.0666V27.804H57.5864V27.9353H57.9805V28.0666H58.3734V28.199H59.5522V28.0666H59.9451V27.9353H60.3392V27.804H60.4698V28.0666H60.0769V28.199H59.6839V28.3304H58.2417V28.199H57.8487V28.0666H57.4558Z" fill="#CD8454"/>
<path d="M23.0896 3.90894V4.43641H22.959V4.56773H22.8273V4.43641H22.6967V4.30509H22.8273V4.04135H22.959V3.90894H23.0896Z" fill="#FFCB05"/>
<path d="M21.5168 6.80783H21.3862V5.88532H21.6485V5.754H22.0415V5.62158H22.6967V6.01773H23.0896V5.62158H23.7449V5.754H24.1378V5.88532H24.4001V6.5441H24.2685V6.67655H24.1378V6.5441H24.0072V6.41282H23.8755V6.5441H23.7449V7.2029H23.6143V7.07156H23.4826V6.80783H23.352V6.67655H23.2202V6.80783H23.0896V7.33424H22.959V6.67655H22.8273V6.5441H22.6967V6.67655H22.565V6.93917H22.4344V6.80783H22.3038V6.67655H22.1721V6.80783H22.0415V7.07156H21.9108V6.5441H21.7792V6.41282H21.6485V6.5441H21.5168V6.80783Z" fill="#EC7A23"/>
<path d="M22.9579 4.83154H22.8273V5.88539H22.9579V4.83154Z" fill="white"/>
<path d="M21.6485 5.75415H21.3862V5.88547H21.6485V5.75415Z" fill="#231F20"/>
<path d="M22.0414 5.62158H21.6485V5.75291H22.0414V5.62158Z" fill="#231F20"/>
<path d="M22.8273 4.43652H22.6967V4.56784H22.8273V4.43652Z" fill="#231F20"/>
<path d="M23.0897 4.43652H22.959V4.56784H23.0897V4.43652Z" fill="#231F20"/>
<path d="M23.2203 3.90894H23.0897V4.43641H23.2203V3.90894Z" fill="#231F20"/>
<path d="M22.6956 4.04126H22.565V4.43632H22.6956V4.04126Z" fill="#231F20"/>
<path d="M22.8273 3.90894H22.6967V4.04026H22.8273V3.90894Z" fill="#231F20"/>
<path d="M22.959 3.64624V3.77756H22.8273V3.90888H22.959H23.0897V3.77756V3.64624H22.959Z" fill="#231F20"/>
<path d="M22.9591 5.88534H22.8285V4.83149H22.9591V5.88534ZM23.7449 5.49028H23.0897V4.70017H22.9591V4.56885H22.8285V4.70017H22.6978V5.49028H22.0425V5.6216H22.6978V6.01666H23.0908V5.6216H23.746V5.49028H23.7449Z" fill="#231F20"/>
<path d="M24.1378 5.62158H23.7449V5.75291H24.1378V5.62158Z" fill="#231F20"/>
<path d="M24.4001 5.75415H24.1378V5.88547H24.4001V5.75415Z" fill="#231F20"/>
<path d="M23.6132 7.86182H22.1721V7.99309H23.6132V7.86182Z" fill="#231F20"/>
<path d="M24.0072 7.73047H23.6143V7.86181H24.0072V7.73047Z" fill="#231F20"/>
<path d="M24.4001 7.5979H24.0072V7.72924H24.4001V7.5979Z" fill="#231F20"/>
<path d="M22.1721 7.73047H21.7791V7.86181H22.1721V7.73047Z" fill="#231F20"/>
<path d="M21.7792 7.5979H21.3862V7.72924H21.7792V7.5979Z" fill="#231F20"/>
<path d="M23.4826 7.5979H22.3038V7.72924H23.4826V7.5979Z" fill="#231F20"/>
<path d="M23.8755 7.46655H23.4826V7.59789H23.8755V7.46655Z" fill="#231F20"/>
<path d="M24.2684 7.33423H23.8755V7.46557H24.2684V7.33423Z" fill="#231F20"/>
<path d="M22.3038 7.46655H21.9108V7.59789H22.3038V7.46655Z" fill="#231F20"/>
<path d="M21.9098 7.33423H21.5168V7.46557H21.9098V7.33423Z" fill="#231F20"/>
<path d="M21.5168 6.9391V6.80776H21.3862V5.88525H21.2556V6.80776V6.9391V7.20283V7.33417V7.59791H21.3862V7.33417H21.5168V7.20283H21.3862V6.9391H21.5168Z" fill="#231F20"/>
<path d="M21.6474 6.54419H21.5168V6.80792H21.6474V6.54419Z" fill="#231F20"/>
<path d="M21.7791 6.41284H21.6485V6.54412H21.7791V6.41284Z" fill="#231F20"/>
<path d="M21.9098 6.54419H21.7791V7.07165H21.9098V6.54419Z" fill="#231F20"/>
<path d="M22.0414 7.07153H21.9108V7.20287H22.0414V7.07153Z" fill="#231F20"/>
<path d="M22.1721 6.80786H22.0415V7.07159H22.1721V6.80786Z" fill="#231F20"/>
<path d="M22.3027 6.67651H22.1721V6.80779H22.3027V6.67651Z" fill="#231F20"/>
<path d="M22.4344 6.80786H22.3038V6.9392H22.4344V6.80786Z" fill="#231F20"/>
<path d="M22.565 6.93921H22.4344V7.07055H22.565V6.93921Z" fill="#231F20"/>
<path d="M22.6956 6.67651H22.565V6.94025H22.6956V6.67651Z" fill="#231F20"/>
<path d="M22.8273 6.54419H22.6967V6.67553H22.8273V6.54419Z" fill="#231F20"/>
<path d="M22.9579 6.67651H22.8273V7.33525H22.9579V6.67651Z" fill="#231F20"/>
<path d="M23.0897 7.33423H22.959V7.46557H23.0897V7.33423Z" fill="#231F20"/>
<path d="M23.2203 6.80786H23.0897V7.33533H23.2203V6.80786Z" fill="#231F20"/>
<path d="M23.3509 6.67651H23.2203V6.80779H23.3509V6.67651Z" fill="#231F20"/>
<path d="M23.4826 6.80786H23.352V7.07159H23.4826V6.80786Z" fill="#231F20"/>
<path d="M23.6132 7.07153H23.4826V7.20287H23.6132V7.07153Z" fill="#231F20"/>
<path d="M23.7449 7.20288H23.6143V7.33422H23.7449V7.20288Z" fill="#231F20"/>
<path d="M23.8755 6.54419H23.7449V7.20299H23.8755V6.54419Z" fill="#231F20"/>
<path d="M24.0061 6.41284H23.8755V6.54412H24.0061V6.41284Z" fill="#231F20"/>
<path d="M24.1378 6.54419H24.0072V6.67553H24.1378V6.54419Z" fill="#231F20"/>
<path d="M24.2685 6.67651H24.1378V6.80779H24.2685V6.67651Z" fill="#231F20"/>
<path d="M24.4001 5.88525V6.54403H24.2684V6.67649H24.4001V7.20283H24.2684V7.33417H24.4001V7.59791H24.5308V5.88525H24.4001Z" fill="#231F20"/>
<path d="M23.7449 6.28052H22.0415V6.41179H23.7449V6.28052Z" fill="#FFF0D8"/>
<path d="M24.1378 6.14917H23.7449V6.28048H24.1378V6.14917Z" fill="#FFF0D8"/>
<path d="M22.0414 6.14917H21.6485V6.28048H22.0414V6.14917Z" fill="#FFF0D8"/>
<path d="M21.6474 6.01782H21.5168V6.14914H21.6474V6.01782Z" fill="#FFF0D8"/>
<path d="M24.2685 6.01782H24.1378V6.14914H24.2685V6.01782Z" fill="#FFF0D8"/>
<path d="M22.9579 4.96387H22.8273V5.09519H22.9579V4.96387Z" fill="#ED1C24"/>
<path d="M22.9579 5.22656H22.8273V5.35788H22.9579V5.22656Z" fill="#ED1C24"/>
<path d="M22.9579 5.49023H22.8273V5.62155H22.9579V5.49023Z" fill="#ED1C24"/>
<path d="M22.9579 5.75415H22.8273V5.88547H22.9579V5.75415Z" fill="#ED1C24"/>
<path d="M22.9579 3.90894H22.8273V4.04026H22.9579V3.90894Z" fill="#FFEDA9"/>
<path d="M22.8273 4.04126H22.6967V4.30499H22.8273V4.04126Z" fill="#FFEDA9"/>
<path d="M21.3862 7.20299V6.93926H21.5168V6.80792H21.6485V6.54419H21.7792V7.07165H21.9108V7.20299H22.0415V7.07165H22.1721V6.80792H22.3038V6.93926H22.4344V7.07165H22.565V6.93926H22.6967V6.67658H22.8273V7.33427H22.959V7.46672H23.0896V7.33427H23.2202V6.80792H23.352V7.07165H23.4826V7.20299H23.6143V7.33427H23.7449V7.20299H23.8755V6.54419H24.0072V6.67658H24.1378V6.80792H24.2685V6.67658H24.4001V7.20299H24.2685V7.33427H23.8755V7.46672H23.4826V7.598H22.3038V7.46672H21.9108V7.33427H21.5168V7.20299H21.3862Z" fill="#FFF0D8"/>
<path d="M21.3862 7.59796V7.33423H21.5168V7.46668H21.9108V7.59796H22.3038V7.73042H23.4826V7.59796H23.8755V7.46668H24.2685V7.33423H24.4001V7.59796H24.0072V7.73042H23.6143V7.86176H22.1721V7.73042H21.7792V7.59796H21.3862Z" fill="#CD8454"/>
<path d="M62.9285 23.4604V23.9048H62.8178V24.0164H62.7077V23.9048H62.5964V23.7942H62.7077V23.572H62.8178V23.4604H62.9285Z" fill="#FFCB05"/>
<path d="M61.6029 25.9041H61.4919V25.1272H61.7128V25.0156H62.0448V24.905H62.5964V25.2377H62.9285V24.905H63.4807V25.0156H63.8122V25.1272H64.0323V25.682H63.9223V25.7936H63.8122V25.682H63.7015V25.5715H63.5914V25.682H63.4807V26.2379H63.3707V26.1263H63.2594V25.9041H63.1493V25.7936H63.0386V25.9041H62.9285V26.3484H62.8178V25.7936H62.7078V25.682H62.5964V25.7936H62.487V26.0158H62.3757V25.9041H62.2656V25.7936H62.1549V25.9041H62.0448V26.1263H61.9335V25.682H61.8238V25.5715H61.7128V25.682H61.6029V25.9041Z" fill="#EC7A23"/>
<path d="M62.8178 24.2385H62.7077V25.1272H62.8178V24.2385Z" fill="white"/>
<path d="M61.7128 25.0156H61.4919V25.1262H61.7128V25.0156Z" fill="#231F20"/>
<path d="M62.0436 24.905H61.7128V25.0156H62.0436V24.905Z" fill="#231F20"/>
<path d="M62.7065 23.9048H62.5964V24.0153H62.7065V23.9048Z" fill="#231F20"/>
<path d="M62.9273 23.9048H62.8178V24.0153H62.9273V23.9048Z" fill="#231F20"/>
<path d="M63.0385 23.4604H62.9285V23.9048H63.0385V23.4604Z" fill="#231F20"/>
<path d="M62.5964 23.572H62.4869V23.9047H62.5964V23.572Z" fill="#231F20"/>
<path d="M62.7065 23.4604H62.5964V23.571H62.7065V23.4604Z" fill="#231F20"/>
<path d="M62.8178 23.2383V23.3499H62.7077V23.4604H62.8178H62.9285V23.3499V23.2383H62.8178Z" fill="#231F20"/>
<path d="M62.8178 25.1272H62.7077V24.2386H62.8178V25.1272ZM63.4807 24.7946H62.9285V24.1281H62.8184V24.0176H62.709V24.1281H62.5989V24.7946H62.0473V24.9051H62.5989V25.2378H62.9297V24.9051H63.4814V24.7946H63.4807Z" fill="#231F20"/>
<path d="M63.8115 24.905H63.4807V25.0156H63.8115V24.905Z" fill="#231F20"/>
<path d="M64.0336 25.0156H63.8128V25.1262H64.0336V25.0156Z" fill="#231F20"/>
<path d="M63.3694 26.7927H62.1549V26.9033H63.3694V26.7927Z" fill="#231F20"/>
<path d="M63.7015 26.6821H63.3707V26.7927H63.7015V26.6821Z" fill="#231F20"/>
<path d="M64.0323 26.5706H63.7015V26.6811H64.0323V26.5706Z" fill="#231F20"/>
<path d="M62.1549 26.6821H61.8239V26.7927H62.1549V26.6821Z" fill="#231F20"/>
<path d="M61.8228 26.5706H61.4919V26.6811H61.8228V26.5706Z" fill="#231F20"/>
<path d="M63.2593 26.5706H62.2656V26.6811H63.2593V26.5706Z" fill="#231F20"/>
<path d="M63.5902 26.46H63.2593V26.5705H63.5902V26.46Z" fill="#231F20"/>
<path d="M63.9223 26.3484H63.5914V26.4589H63.9223V26.3484Z" fill="#231F20"/>
<path d="M62.265 26.46H61.9335V26.5705H62.265V26.46Z" fill="#231F20"/>
<path d="M61.9335 26.3484H61.6029V26.4589H61.9335V26.3484Z" fill="#231F20"/>
<path d="M61.6029 26.0158V25.9042H61.4918V25.1272H61.3819V25.9042V26.0158V26.238V26.3485V26.5706H61.4918V26.3485H61.6029V26.238H61.4918V26.0158H61.6029Z" fill="#231F20"/>
<path d="M61.7128 25.6819H61.6029V25.9041H61.7128V25.6819Z" fill="#231F20"/>
<path d="M61.8228 25.5715H61.7128V25.6821H61.8228V25.5715Z" fill="#231F20"/>
<path d="M61.9335 25.6819H61.8239V26.1262H61.9335V25.6819Z" fill="#231F20"/>
<path d="M62.0436 26.1262H61.9335V26.2368H62.0436V26.1262Z" fill="#231F20"/>
<path d="M62.1549 25.9041H62.0448V26.1262H62.1549V25.9041Z" fill="#231F20"/>
<path d="M62.265 25.7935H62.1549V25.904H62.265V25.7935Z" fill="#231F20"/>
<path d="M62.3756 25.9041H62.2656V26.0145H62.3756V25.9041Z" fill="#231F20"/>
<path d="M62.4857 26.0156H62.3757V26.1262H62.4857V26.0156Z" fill="#231F20"/>
<path d="M62.5964 25.7935H62.4869V26.0156H62.5964V25.7935Z" fill="#231F20"/>
<path d="M62.7065 25.6819H62.5964V25.7924H62.7065V25.6819Z" fill="#231F20"/>
<path d="M62.8178 25.7935H62.7077V26.3483H62.8178V25.7935Z" fill="#231F20"/>
<path d="M62.9273 26.3484H62.8178V26.4589H62.9273V26.3484Z" fill="#231F20"/>
<path d="M63.0385 25.9041H62.9285V26.3483H63.0385V25.9041Z" fill="#231F20"/>
<path d="M63.1486 25.7935H63.0386V25.904H63.1486V25.7935Z" fill="#231F20"/>
<path d="M63.2594 25.9041H63.1499V26.1262H63.2594V25.9041Z" fill="#231F20"/>
<path d="M63.3694 26.1262H63.2593V26.2368H63.3694V26.1262Z" fill="#231F20"/>
<path d="M63.4807 26.238H63.3707V26.3485H63.4807V26.238Z" fill="#231F20"/>
<path d="M63.5902 25.6819H63.4807V26.2367H63.5902V25.6819Z" fill="#231F20"/>
<path d="M63.7015 25.5715H63.5914V25.6821H63.7015V25.5715Z" fill="#231F20"/>
<path d="M63.8116 25.6819H63.7015V25.7924H63.8116V25.6819Z" fill="#231F20"/>
<path d="M63.9223 25.7935H63.8128V25.904H63.9223V25.7935Z" fill="#231F20"/>
<path d="M64.0323 25.1272V25.682H63.9222V25.7936H64.0323V26.238H63.9222V26.3485H64.0323V26.5706H64.1436V25.1272H64.0323Z" fill="#231F20"/>
<path d="M63.4807 25.4597H62.0448V25.5703H63.4807V25.4597Z" fill="#FFF0D8"/>
<path d="M63.8115 25.3494H63.4807V25.4599H63.8115V25.3494Z" fill="#FFF0D8"/>
<path d="M62.0436 25.3494H61.7128V25.4599H62.0436V25.3494Z" fill="#FFF0D8"/>
<path d="M61.7128 25.2375H61.6029V25.3481H61.7128V25.2375Z" fill="#FFF0D8"/>
<path d="M63.9223 25.2375H63.8128V25.3481H63.9223V25.2375Z" fill="#FFF0D8"/>
<path d="M62.8178 24.3491H62.7077V24.4596H62.8178V24.3491Z" fill="#ED1C24"/>
<path d="M62.8178 24.5713H62.7077V24.6818H62.8178V24.5713Z" fill="#ED1C24"/>
<path d="M62.8178 24.7935H62.7077V24.904H62.8178V24.7935Z" fill="#ED1C24"/>
<path d="M62.8178 25.0156H62.7077V25.1262H62.8178V25.0156Z" fill="#ED1C24"/>
<path d="M62.8178 23.4604H62.7077V23.571H62.8178V23.4604Z" fill="#FFEDA9"/>
<path d="M62.7065 23.572H62.5964V23.7941H62.7065V23.572Z" fill="#FFEDA9"/>
<path d="M61.4919 26.2379V26.0157H61.6029V25.9041H61.7128V25.6819H61.8238V26.1262H61.9335V26.2379H62.0448V26.1262H62.1549V25.9041H62.2656V26.0157H62.3757V26.1262H62.487V26.0157H62.5964V25.7935H62.7078V26.3484H62.8178V26.46H62.9285V26.3484H63.0386V25.9041H63.1493V26.1262H63.2594V26.2379H63.3707V26.3484H63.4807V26.2379H63.5914V25.6819H63.7015V25.7935H63.8122V25.9041H63.9223V25.7935H64.0323V26.2379H63.9223V26.3484H63.5914V26.46H63.2594V26.5705H62.2656V26.46H61.9335V26.3484H61.6029V26.2379H61.4919Z" fill="#FFF0D8"/>
<path d="M61.4919 26.5705V26.3484H61.6029V26.46H61.9335V26.5705H62.2656V26.6822H63.2594V26.5705H63.5914V26.46H63.9223V26.3484H64.0323V26.5705H63.7015V26.6822H63.3707V26.7927H62.1549V26.6822H61.8238V26.5705H61.4919Z" fill="#CD8454"/>
<path d="M19.1244 5.91919V6.36349H19.0134V6.47402H18.9034V6.36349H18.7924V6.25189H18.9034V6.02972H19.0134V5.91919H19.1244Z" fill="#FFCB05"/>
<path d="M17.7986 8.36283H17.6876V7.58474H17.9086V7.4742H18.2405V7.36255H18.7924V7.69633H19.1244V7.36255H19.6762V7.4742H20.0082V7.58474H20.2292V8.14064H20.1181V8.25118H20.0082V8.14064H19.8972V8.02905H19.7872V8.14064H19.6762V8.69549H19.5663V8.58496H19.4553V8.36283H19.3453V8.25118H19.2343V8.36283H19.1244V8.80708H19.0134V8.25118H18.9034V8.14064H18.7924V8.25118H18.6825V8.4733H18.5714V8.36283H18.4615V8.25118H18.3505V8.36283H18.2405V8.58496H18.1295V8.14064H18.0196V8.02905H17.9086V8.14064H17.7986V8.36283Z" fill="#EC7A23"/>
<path d="M19.0133 6.69629H18.9034V7.58492H19.0133V6.69629Z" fill="white"/>
<path d="M17.9086 7.47437H17.6876V7.5849H17.9086V7.47437Z" fill="#231F20"/>
<path d="M18.2395 7.36255H17.9086V7.47308H18.2395V7.36255Z" fill="#231F20"/>
<path d="M18.9023 6.36353H18.7924V6.474H18.9023V6.36353Z" fill="#231F20"/>
<path d="M19.1233 6.36353H19.0134V6.474H19.1233V6.36353Z" fill="#231F20"/>
<path d="M19.2343 5.91919H19.1243V6.36349H19.2343V5.91919Z" fill="#231F20"/>
<path d="M18.7924 6.02979H18.6824V6.36247H18.7924V6.02979Z" fill="#231F20"/>
<path d="M18.9023 5.91919H18.7924V6.02972H18.9023V5.91919Z" fill="#231F20"/>
<path d="M19.0133 5.69702V5.80754H18.9034V5.91917H19.0133H19.1243V5.80754V5.69702H19.0133Z" fill="#231F20"/>
<path d="M19.0133 7.5848H18.9034V6.69617H19.0133V7.5848ZM19.6762 7.25214H19.1244V6.58563H19.0144V6.4751H18.9045V6.58563H18.7945V7.25214H18.2427V7.36261H18.7945V7.69533H19.1254V7.36261H19.6773V7.25214H19.6762Z" fill="#231F20"/>
<path d="M20.0071 7.36255H19.6762V7.47308H20.0071V7.36255Z" fill="#231F20"/>
<path d="M20.2292 7.47437H20.0082V7.5849H20.2292V7.47437Z" fill="#231F20"/>
<path d="M19.5652 9.25146H18.3505V9.362H19.5652V9.25146Z" fill="#231F20"/>
<path d="M19.8972 9.13989H19.5663V9.25037H19.8972V9.13989Z" fill="#231F20"/>
<path d="M20.2281 9.0293H19.8972V9.13983H20.2281V9.0293Z" fill="#231F20"/>
<path d="M18.3504 9.13989H18.0196V9.25037H18.3504V9.13989Z" fill="#231F20"/>
<path d="M18.0185 9.0293H17.6876V9.13983H18.0185V9.0293Z" fill="#231F20"/>
<path d="M19.4552 9.0293H18.4615V9.13983H19.4552V9.0293Z" fill="#231F20"/>
<path d="M19.7862 8.91772H19.4553V9.02826H19.7862V8.91772Z" fill="#231F20"/>
<path d="M20.1181 8.80713H19.7872V8.91766H20.1181V8.80713Z" fill="#231F20"/>
<path d="M18.4604 8.91772H18.1295V9.02826H18.4604V8.91772Z" fill="#231F20"/>
<path d="M18.1295 8.80713H17.7986V8.91766H18.1295V8.80713Z" fill="#231F20"/>
<path d="M17.7986 8.47353V8.36299H17.6876V7.58496H17.5776V8.36299V8.47353V8.69572V8.80731V9.02943H17.6876V8.80731H17.7986V8.69572H17.6876V8.47353H17.7986Z" fill="#231F20"/>
<path d="M17.9085 8.14087H17.7986V8.363H17.9085V8.14087Z" fill="#231F20"/>
<path d="M18.0185 8.02905H17.9086V8.13959H18.0185V8.02905Z" fill="#231F20"/>
<path d="M18.1295 8.14087H18.0196V8.58518H18.1295V8.14087Z" fill="#231F20"/>
<path d="M18.2395 8.58496H18.1295V8.6955H18.2395V8.58496Z" fill="#231F20"/>
<path d="M18.3504 8.36304H18.2405V8.58516H18.3504V8.36304Z" fill="#231F20"/>
<path d="M18.4604 8.25122H18.3505V8.36176H18.4604V8.25122Z" fill="#231F20"/>
<path d="M18.5714 8.36304H18.4615V8.47357H18.5714V8.36304Z" fill="#231F20"/>
<path d="M18.6814 8.47339H18.5714V8.58392H18.6814V8.47339Z" fill="#231F20"/>
<path d="M18.7924 8.25122H18.6824V8.47335H18.7924V8.25122Z" fill="#231F20"/>
<path d="M18.9023 8.14087H18.7924V8.2514H18.9023V8.14087Z" fill="#231F20"/>
<path d="M19.0133 8.25122H18.9034V8.80607H19.0133V8.25122Z" fill="#231F20"/>
<path d="M19.1233 8.80713H19.0134V8.91766H19.1233V8.80713Z" fill="#231F20"/>
<path d="M19.2343 8.36304H19.1243V8.80735H19.2343V8.36304Z" fill="#231F20"/>
<path d="M19.3442 8.25122H19.2343V8.36176H19.3442V8.25122Z" fill="#231F20"/>
<path d="M19.4553 8.36304H19.3453V8.58516H19.4553V8.36304Z" fill="#231F20"/>
<path d="M19.5652 8.58496H19.4553V8.6955H19.5652V8.58496Z" fill="#231F20"/>
<path d="M19.6762 8.69556H19.5663V8.80609H19.6762V8.69556Z" fill="#231F20"/>
<path d="M19.7862 8.14087H19.6762V8.69566H19.7862V8.14087Z" fill="#231F20"/>
<path d="M19.8972 8.02905H19.7872V8.13959H19.8972V8.02905Z" fill="#231F20"/>
<path d="M20.0071 8.14087H19.8972V8.2514H20.0071V8.14087Z" fill="#231F20"/>
<path d="M20.1181 8.25122H20.0082V8.36176H20.1181V8.25122Z" fill="#231F20"/>
<path d="M20.2291 7.58496V8.14087H20.1181V8.2514H20.2291V8.69572H20.1181V8.80731H20.2291V9.02943H20.3391V7.58496H20.2291Z" fill="#231F20"/>
<path d="M19.6762 7.9187H18.2405V8.02917H19.6762V7.9187Z" fill="#FFF0D8"/>
<path d="M20.0071 7.80713H19.6762V7.91766H20.0071V7.80713Z" fill="#FFF0D8"/>
<path d="M18.2395 7.80713H17.9086V7.91766H18.2395V7.80713Z" fill="#FFF0D8"/>
<path d="M17.9085 7.69653H17.7986V7.80707H17.9085V7.69653Z" fill="#FFF0D8"/>
<path d="M20.1181 7.69653H20.0082V7.80707H20.1181V7.69653Z" fill="#FFF0D8"/>
<path d="M19.0133 6.80786H18.9034V6.9184H19.0133V6.80786Z" fill="#ED1C24"/>
<path d="M19.0133 7.03003H18.9034V7.14056H19.0133V7.03003Z" fill="#ED1C24"/>
<path d="M19.0133 7.2522H18.9034V7.36273H19.0133V7.2522Z" fill="#ED1C24"/>
<path d="M19.0133 7.47437H18.9034V7.5849H19.0133V7.47437Z" fill="#ED1C24"/>
<path d="M19.0133 5.91919H18.9034V6.02972H19.0133V5.91919Z" fill="#FFEDA9"/>
<path d="M18.9023 6.02979H18.7924V6.25194H18.9023V6.02979Z" fill="#FFEDA9"/>
<path d="M17.6876 8.69566V8.47353H17.7986V8.363H17.9086V8.14087H18.0196V8.58518H18.1295V8.69566H18.2405V8.58518H18.3505V8.363H18.4615V8.47353H18.5714V8.58518H18.6825V8.47353H18.7924V8.2514H18.9034V8.80731H19.0134V8.91785H19.1244V8.80731H19.2343V8.363H19.3453V8.58518H19.4553V8.69566H19.5663V8.80731H19.6762V8.69566H19.7872V8.14087H19.8972V8.2514H20.0082V8.363H20.1181V8.2514H20.2292V8.69566H20.1181V8.80731H19.7872V8.91785H19.4553V9.02944H18.4615V8.91785H18.1295V8.80731H17.7986V8.69566H17.6876Z" fill="#FFF0D8"/>
<path d="M17.6876 9.02932V8.80713H17.7986V8.91766H18.1295V9.02932H18.4615V9.13979H19.4553V9.02932H19.7872V8.91766H20.1181V8.80713H20.2292V9.02932H19.8972V9.13979H19.5663V9.25144H18.3505V9.13979H18.0196V9.02932H17.6876Z" fill="#CD8454"/>
<path d="M65.5455 22.0686V22.4297H65.4552V22.5206H65.3656V22.4297H65.2753V22.3389H65.3656V22.1583H65.4552V22.0686H65.5455Z" fill="#FFCB05"/>
<path d="M64.4664 24.057H64.3762V23.4244H64.5561V23.3336H64.8257V23.2439H65.2753V23.5142H65.5455V23.2439H65.9951V23.3336H66.2647V23.4244H66.4447V23.8764H66.3538V23.9662H66.2647V23.8764H66.1744V23.7856H66.0854V23.8764H65.9951V24.3284H65.9042V24.2375H65.8152V24.057H65.7249V23.9662H65.6346V24.057H65.5455V24.4181H65.4552V23.9662H65.3656V23.8764H65.2753V23.9662H65.185V24.1478H65.096V24.057H65.0057V23.9662H64.916V24.057H64.8257V24.2375H64.7354V23.8764H64.6464V23.7856H64.5561V23.8764H64.4664V24.057Z" fill="#EC7A23"/>
<path d="M65.4558 22.7009H65.3655V23.4243H65.4558V22.7009Z" fill="white"/>
<path d="M64.5561 23.3335H64.3762V23.4243H64.5561V23.3335Z" fill="#231F20"/>
<path d="M64.8257 23.2439H64.5561V23.3347H64.8257V23.2439Z" fill="#231F20"/>
<path d="M65.3656 22.4297H65.2753V22.5205H65.3656V22.4297Z" fill="#231F20"/>
<path d="M65.5455 22.4297H65.4552V22.5205H65.5455V22.4297Z" fill="#231F20"/>
<path d="M65.6358 22.0686H65.5455V22.4297H65.6358V22.0686Z" fill="#231F20"/>
<path d="M65.2753 22.1582H65.185V22.4296H65.2753V22.1582Z" fill="#231F20"/>
<path d="M65.3656 22.0686H65.2753V22.1595H65.3656V22.0686Z" fill="#231F20"/>
<path d="M65.4552 21.8867V21.9776H65.3655V22.0684H65.4552H65.5455V21.9776V21.8867H65.4552Z" fill="#231F20"/>
<path d="M65.4552 23.4243H65.3643V22.7009H65.4552V23.4243ZM65.9951 23.1529H65.5455V22.6101H65.4552V22.5193H65.3643V22.6101H65.274V23.1529H64.8245V23.2437H65.274V23.5151H65.5443V23.2437H65.9938V23.1529H65.9951Z" fill="#231F20"/>
<path d="M66.2647 23.2439H65.9951V23.3347H66.2647V23.2439Z" fill="#231F20"/>
<path d="M66.4447 23.3335H66.2647V23.4243H66.4447V23.3335Z" fill="#231F20"/>
<path d="M65.9054 24.7803H64.916V24.8711H65.9054V24.7803Z" fill="#231F20"/>
<path d="M66.1744 24.6895H65.9048V24.7803H66.1744V24.6895Z" fill="#231F20"/>
<path d="M66.4447 24.5996H66.1744V24.6904H66.4447V24.5996Z" fill="#231F20"/>
<path d="M64.916 24.6895H64.6464V24.7803H64.916V24.6895Z" fill="#231F20"/>
<path d="M64.6464 24.5996H64.3762V24.6904H64.6464V24.5996Z" fill="#231F20"/>
<path d="M65.8139 24.5996H65.0057V24.6904H65.8139V24.5996Z" fill="#231F20"/>
<path d="M66.0854 24.5088H65.8151V24.5996H66.0854V24.5088Z" fill="#231F20"/>
<path d="M66.355 24.418H66.0854V24.5088H66.355V24.418Z" fill="#231F20"/>
<path d="M65.0056 24.5088H64.7354V24.5996H65.0056V24.5088Z" fill="#231F20"/>
<path d="M64.7367 24.418H64.4664V24.5088H64.7367V24.418Z" fill="#231F20"/>
<path d="M64.4664 24.1476V24.0569H64.3761V23.4243H64.2858V24.0569V24.1476V24.3282V24.418V24.5997H64.3761V24.418H64.4664V24.3282H64.3761V24.1476H64.4664Z" fill="#231F20"/>
<path d="M64.5567 23.8762H64.4664V24.0568H64.5567V23.8762Z" fill="#231F20"/>
<path d="M64.6464 23.7854H64.5561V23.8762H64.6464V23.7854Z" fill="#231F20"/>
<path d="M64.7366 23.8762H64.6464V24.2374H64.7366V23.8762Z" fill="#231F20"/>
<path d="M64.8257 24.2375H64.7354V24.3283H64.8257V24.2375Z" fill="#231F20"/>
<path d="M64.916 24.0569H64.8257V24.2375H64.916V24.0569Z" fill="#231F20"/>
<path d="M65.0063 23.9661H64.916V24.0569H65.0063V23.9661Z" fill="#231F20"/>
<path d="M65.096 24.0569H65.0057V24.1477H65.096V24.0569Z" fill="#231F20"/>
<path d="M65.1862 24.1477H65.0959V24.2386H65.1862V24.1477Z" fill="#231F20"/>
<path d="M65.2753 23.9661H65.185V24.1466H65.2753V23.9661Z" fill="#231F20"/>
<path d="M65.3656 23.8762H65.2753V23.9671H65.3656V23.8762Z" fill="#231F20"/>
<path d="M65.4558 23.9661H65.3655V24.418H65.4558V23.9661Z" fill="#231F20"/>
<path d="M65.5455 24.418H65.4552V24.5088H65.5455V24.418Z" fill="#231F20"/>
<path d="M65.6358 24.0569H65.5455V24.418H65.6358V24.0569Z" fill="#231F20"/>
<path d="M65.7249 23.9661H65.6346V24.0569H65.7249V23.9661Z" fill="#231F20"/>
<path d="M65.8151 24.0569H65.7249V24.2375H65.8151V24.0569Z" fill="#231F20"/>
<path d="M65.9054 24.2375H65.8151V24.3283H65.9054V24.2375Z" fill="#231F20"/>
<path d="M65.9951 24.3284H65.9048V24.4192H65.9951V24.3284Z" fill="#231F20"/>
<path d="M66.0854 23.8762H65.9951V24.3282H66.0854V23.8762Z" fill="#231F20"/>
<path d="M66.1757 23.7854H66.0854V23.8762H66.1757V23.7854Z" fill="#231F20"/>
<path d="M66.2647 23.8762H66.1744V23.9671H66.2647V23.8762Z" fill="#231F20"/>
<path d="M66.355 23.9661H66.2647V24.0569H66.355V23.9661Z" fill="#231F20"/>
<path d="M66.4447 23.4243V23.8763H66.3538V23.966H66.4447V24.3282H66.3538V24.418H66.4447V24.5997H66.5349V23.4243H66.4447Z" fill="#231F20"/>
<path d="M65.9951 23.6958H64.8257V23.7866H65.9951V23.6958Z" fill="#FFF0D8"/>
<path d="M66.2647 23.605H65.9951V23.6958H66.2647V23.605Z" fill="#FFF0D8"/>
<path d="M64.8257 23.605H64.5561V23.6958H64.8257V23.605Z" fill="#FFF0D8"/>
<path d="M64.5567 23.5142H64.4664V23.605H64.5567V23.5142Z" fill="#FFF0D8"/>
<path d="M66.355 23.5142H66.2647V23.605H66.355V23.5142Z" fill="#FFF0D8"/>
<path d="M65.4558 22.7917H65.3655V22.8826H65.4558V22.7917Z" fill="#ED1C24"/>
<path d="M65.4558 22.9724H65.3655V23.0632H65.4558V22.9724Z" fill="#ED1C24"/>
<path d="M65.4558 23.1531H65.3655V23.2439H65.4558V23.1531Z" fill="#ED1C24"/>
<path d="M65.4558 23.3335H65.3655V23.4243H65.4558V23.3335Z" fill="#ED1C24"/>
<path d="M65.4558 22.0686H65.3655V22.1595H65.4558V22.0686Z" fill="#FFEDA9"/>
<path d="M65.3656 22.1582H65.2753V22.3388H65.3656V22.1582Z" fill="#FFEDA9"/>
<path d="M64.3762 24.3282V24.1477H64.4664V24.0568H64.5561V23.8762H64.6464V24.2374H64.7354V24.3282H64.8257V24.2374H64.916V24.0568H65.0057V24.1477H65.096V24.2374H65.185V24.1477H65.2753V23.966H65.3656V24.4179H65.4552V24.5088H65.5455V24.4179H65.6346V24.0568H65.7249V24.2374H65.8152V24.3282H65.9042V24.4179H65.9951V24.3282H66.0854V23.8762H66.1744V23.966H66.2647V24.0568H66.3538V23.966H66.4447V24.3282H66.3538V24.4179H66.0854V24.5088H65.8152V24.5996H65.0057V24.5088H64.7354V24.4179H64.4664V24.3282H64.3762Z" fill="#FFF0D8"/>
<path d="M64.3762 24.5996V24.418H64.4664V24.5088H64.7354V24.5996H65.0057V24.6893H65.8152V24.5996H66.0854V24.5088H66.3538V24.418H66.4447V24.5996H66.1744V24.6893H65.9042V24.7802H64.916V24.6893H64.6464V24.5996H64.3762Z" fill="#CD8454"/>
<path d="M16.0538 7.97119V8.33341H15.9635V8.42314H15.8742V8.33341H15.7839V8.24262H15.8742V8.06204H15.9635V7.97119H16.0538Z" fill="#FFCB05"/>
<path d="M14.9752 9.96066H14.8848V9.32812H15.0644V9.23734H15.3343V9.14648H15.7839V9.41786H16.0538V9.14648H16.5033V9.23734H16.7733V9.32812H16.9529V9.78014H16.8626V9.86987H16.7733V9.78014H16.683V9.68929H16.5937V9.78014H16.5033V10.2321H16.413V10.1412H16.3238V9.96066H16.2334V9.86987H16.1442V9.96066H16.0538V10.3218H15.9635V9.86987H15.8742V9.78014H15.7839V9.86987H15.6936V10.0504H15.6043V9.96066H15.5139V9.86987H15.4247V9.96066H15.3343V10.1412H15.244V9.78014H15.1548V9.68929H15.0644V9.78014H14.9752V9.96066Z" fill="#EC7A23"/>
<path d="M15.9646 8.60474H15.8742V9.32812H15.9646V8.60474Z" fill="white"/>
<path d="M15.0644 9.2373H14.8848V9.32815H15.0644V9.2373Z" fill="#231F20"/>
<path d="M15.3343 9.14648H15.0644V9.23734H15.3343V9.14648Z" fill="#231F20"/>
<path d="M15.8742 8.3335H15.7839V8.42435H15.8742V8.3335Z" fill="#231F20"/>
<path d="M16.0538 8.3335H15.9634V8.42435H16.0538V8.3335Z" fill="#231F20"/>
<path d="M16.1442 7.97119H16.0538V8.33236H16.1442V7.97119Z" fill="#231F20"/>
<path d="M15.7839 8.06201H15.6935V8.33344H15.7839V8.06201Z" fill="#231F20"/>
<path d="M15.8742 7.97119H15.7839V8.06204H15.8742V7.97119Z" fill="#231F20"/>
<path d="M15.9634 7.79053V7.88138H15.8742V7.97111H15.9634H16.0538V7.88138V7.79053H15.9634Z" fill="#231F20"/>
<path d="M15.9635 9.32812H15.8731V8.60473H15.9635V9.32812ZM16.5033 9.05669H16.0538V8.51388H15.9635V8.4231H15.8731V8.51388H15.7828V9.05669H15.3333V9.14754H15.7828V9.41891H16.0527V9.14754H16.5023V9.05669H16.5033Z" fill="#231F20"/>
<path d="M16.7733 9.14648H16.5033V9.23734H16.7733V9.14648Z" fill="#231F20"/>
<path d="M16.9529 9.2373H16.7733V9.32815H16.9529V9.2373Z" fill="#231F20"/>
<path d="M16.4141 10.6841H15.4247V10.7749H16.4141V10.6841Z" fill="#231F20"/>
<path d="M16.683 10.5933H16.413V10.6841H16.683V10.5933Z" fill="#231F20"/>
<path d="M16.9529 10.5024H16.683V10.5933H16.9529V10.5024Z" fill="#231F20"/>
<path d="M15.4247 10.5933H15.1547V10.6841H15.4247V10.5933Z" fill="#231F20"/>
<path d="M15.1548 10.5024H14.8848V10.5933H15.1548V10.5024Z" fill="#231F20"/>
<path d="M16.3227 10.5024H15.5139V10.5933H16.3227V10.5024Z" fill="#231F20"/>
<path d="M16.5937 10.4126H16.3237V10.5034H16.5937V10.4126Z" fill="#231F20"/>
<path d="M16.8637 10.3218H16.5937V10.4126H16.8637V10.3218Z" fill="#231F20"/>
<path d="M15.5139 10.4126H15.244V10.5034H15.5139V10.4126Z" fill="#231F20"/>
<path d="M15.2451 10.3218H14.9752V10.4126H15.2451V10.3218Z" fill="#231F20"/>
<path d="M14.9751 10.0504V9.96066H14.8848V9.32812H14.7944V9.96066V10.0504V10.232V10.3218V10.5023H14.8848V10.3218H14.9751V10.232H14.8848V10.0504H14.9751Z" fill="#231F20"/>
<path d="M15.0655 9.78003H14.9752V9.96061H15.0655V9.78003Z" fill="#231F20"/>
<path d="M15.1547 9.68921H15.0644V9.78006H15.1547V9.68921Z" fill="#231F20"/>
<path d="M15.2451 9.78003H15.1547V10.1412H15.2451V9.78003Z" fill="#231F20"/>
<path d="M15.3343 10.1414H15.244V10.2321H15.3343V10.1414Z" fill="#231F20"/>
<path d="M15.4246 9.96069H15.3343V10.1413H15.4246V9.96069Z" fill="#231F20"/>
<path d="M15.515 9.86987H15.4247V9.96072H15.515V9.86987Z" fill="#231F20"/>
<path d="M15.6043 9.96069H15.5139V10.0515H15.6043V9.96069Z" fill="#231F20"/>
<path d="M15.6946 10.0505H15.6042V10.1413H15.6946V10.0505Z" fill="#231F20"/>
<path d="M15.7839 9.86987H15.6935V10.0505H15.7839V9.86987Z" fill="#231F20"/>
<path d="M15.8742 9.78003H15.7839V9.87088H15.8742V9.78003Z" fill="#231F20"/>
<path d="M15.9646 9.86987H15.8742V10.3219H15.9646V9.86987Z" fill="#231F20"/>
<path d="M16.0538 10.3218H15.9634V10.4126H16.0538V10.3218Z" fill="#231F20"/>
<path d="M16.1442 9.96069H16.0538V10.3219H16.1442V9.96069Z" fill="#231F20"/>
<path d="M16.2345 9.86987H16.1442V9.96072H16.2345V9.86987Z" fill="#231F20"/>
<path d="M16.3237 9.96069H16.2334V10.1413H16.3237V9.96069Z" fill="#231F20"/>
<path d="M16.4141 10.1414H16.3237V10.2321H16.4141V10.1414Z" fill="#231F20"/>
<path d="M16.5033 10.2322H16.413V10.323H16.5033V10.2322Z" fill="#231F20"/>
<path d="M16.5936 9.78003H16.5033V10.232H16.5936V9.78003Z" fill="#231F20"/>
<path d="M16.684 9.68921H16.5937V9.78006H16.684V9.68921Z" fill="#231F20"/>
<path d="M16.7733 9.78003H16.683V9.87088H16.7733V9.78003Z" fill="#231F20"/>
<path d="M16.8637 9.86987H16.7733V9.96072H16.8637V9.86987Z" fill="#231F20"/>
<path d="M16.9529 9.32812V9.78008H16.8625V9.86981H16.9529V10.232H16.8625V10.3218H16.9529V10.5023H17.0432V9.32812H16.9529Z" fill="#231F20"/>
<path d="M16.5033 9.59839H15.3343V9.68924H16.5033V9.59839Z" fill="#FFF0D8"/>
<path d="M16.7733 9.50879H16.5033V9.59964H16.7733V9.50879Z" fill="#FFF0D8"/>
<path d="M15.3343 9.50879H15.0644V9.59964H15.3343V9.50879Z" fill="#FFF0D8"/>
<path d="M15.0655 9.41797H14.9752V9.50882H15.0655V9.41797Z" fill="#FFF0D8"/>
<path d="M16.8637 9.41797H16.7733V9.50882H16.8637V9.41797Z" fill="#FFF0D8"/>
<path d="M15.9646 8.69458H15.8742V8.78537H15.9646V8.69458Z" fill="#ED1C24"/>
<path d="M15.9646 8.875H15.8742V8.96585H15.9646V8.875Z" fill="#ED1C24"/>
<path d="M15.9646 9.05688H15.8742V9.14767H15.9646V9.05688Z" fill="#ED1C24"/>
<path d="M15.9646 9.2373H15.8742V9.32815H15.9646V9.2373Z" fill="#ED1C24"/>
<path d="M15.9646 7.97119H15.8742V8.06204H15.9646V7.97119Z" fill="#FFEDA9"/>
<path d="M15.8742 8.06201H15.7839V8.24259H15.8742V8.06201Z" fill="#FFEDA9"/>
<path d="M14.8848 10.232V10.0503H14.9752V9.96061H15.0644V9.78003H15.1548V10.1412H15.244V10.232H15.3343V10.1412H15.4247V9.96061H15.5139V10.0503H15.6043V10.1412H15.6936V10.0503H15.7839V9.86976H15.8742V10.3217H15.9635V10.4126H16.0538V10.3217H16.1442V9.96061H16.2334V10.1412H16.3238V10.232H16.413V10.3217H16.5033V10.232H16.5937V9.78003H16.683V9.86976H16.7733V9.96061H16.8626V9.86976H16.9529V10.232H16.8626V10.3217H16.5937V10.4126H16.3238V10.5023H15.5139V10.4126H15.244V10.3217H14.9752V10.232H14.8848Z" fill="#FFF0D8"/>
<path d="M14.8848 10.5024V10.3218H14.9752V10.4126H15.244V10.5024H15.5139V10.5931H16.3238V10.5024H16.5937V10.4126H16.8626V10.3218H16.9529V10.5024H16.683V10.5931H16.413V10.684H15.4247V10.5931H15.1548V10.5024H14.8848Z" fill="#CD8454"/>
<path d="M67.5058 20.7969V21.0759H67.4359V21.146H67.3661V21.0759H67.2974V21.007H67.3661V20.8669H67.4359V20.7969H67.5058Z" fill="#FFCB05"/>
<path d="M66.6728 22.3312H66.6042V21.8431H66.7427V21.7741H66.9505V21.7041H67.2974V21.9131H67.5058V21.7041H67.8527V21.7741H68.0605V21.8431H68.199V22.1921H68.1291V22.2622H68.0605V22.1921H67.9912V22.1221H67.9214V22.1921H67.8527V22.5401H67.7835V22.4712H67.7136V22.3312H67.6437V22.2622H67.5751V22.3312H67.5058V22.6102H67.4359V22.2622H67.366V22.1921H67.2974V22.2622H67.2281V22.4012H67.1583V22.3312H67.0896V22.2622H67.0204V22.3312H66.9505V22.4712H66.8806V22.1921H66.812V22.1221H66.7427V22.1921H66.6728V22.3312Z" fill="#EC7A23"/>
<path d="M67.4359 21.2849H67.366V21.843H67.4359V21.2849Z" fill="white"/>
<path d="M66.7427 21.7742H66.6042V21.8442H66.7427V21.7742Z" fill="#231F20"/>
<path d="M66.9505 21.7041H66.7427V21.7741H66.9505V21.7041Z" fill="#231F20"/>
<path d="M67.3673 21.0759H67.2974V21.1459H67.3673V21.0759Z" fill="#231F20"/>
<path d="M67.5058 21.0759H67.4359V21.1459H67.5058V21.0759Z" fill="#231F20"/>
<path d="M67.5751 20.7969H67.5058V21.0759H67.5751V20.7969Z" fill="#231F20"/>
<path d="M67.2974 20.8669H67.2281V21.076H67.2974V20.8669Z" fill="#231F20"/>
<path d="M67.3673 20.7969H67.2974V20.8669H67.3673V20.7969Z" fill="#231F20"/>
<path d="M67.4359 20.6577V20.7278H67.366V20.7967H67.4359H67.5058V20.7278V20.6577H67.4359Z" fill="#231F20"/>
<path d="M67.4359 21.8429H67.366V21.2848H67.4359V21.8429ZM67.8515 21.6338H67.5045V21.2158H67.4347V21.1458H67.3654V21.2158H67.2955V21.6338H66.948V21.7039H67.2955V21.9129H67.5033V21.7039H67.8508V21.6338H67.8515Z" fill="#231F20"/>
<path d="M68.0605 21.7041H67.8527V21.7741H68.0605V21.7041Z" fill="#231F20"/>
<path d="M68.199 21.7742H68.0605V21.8442H68.199V21.7742Z" fill="#231F20"/>
<path d="M67.7829 22.8892H67.0204V22.9592H67.7829V22.8892Z" fill="#231F20"/>
<path d="M67.9912 22.8191H67.7828V22.8891H67.9912V22.8191Z" fill="#231F20"/>
<path d="M68.199 22.7502H67.9913V22.8203H68.199V22.7502Z" fill="#231F20"/>
<path d="M67.0204 22.8191H66.812V22.8891H67.0204V22.8191Z" fill="#231F20"/>
<path d="M66.812 22.7502H66.6042V22.8203H66.812V22.7502Z" fill="#231F20"/>
<path d="M67.7136 22.7502H67.0897V22.8203H67.7136V22.7502Z" fill="#231F20"/>
<path d="M67.9213 22.6802H67.7136V22.7502H67.9213V22.6802Z" fill="#231F20"/>
<path d="M68.1292 22.6101H67.9214V22.6801H68.1292V22.6101Z" fill="#231F20"/>
<path d="M67.089 22.6802H66.8806V22.7502H67.089V22.6802Z" fill="#231F20"/>
<path d="M66.8806 22.6101H66.6729V22.6801H66.8806V22.6101Z" fill="#231F20"/>
<path d="M66.6728 22.4012V22.3311H66.6042V21.843H66.5349V22.3311V22.4012V22.5401V22.6102V22.7502H66.6042V22.6102H66.6728V22.5401H66.6042V22.4012H66.6728Z" fill="#231F20"/>
<path d="M66.7427 22.1921H66.6729V22.3311H66.7427V22.1921Z" fill="#231F20"/>
<path d="M66.812 22.1221H66.7427V22.1921H66.812V22.1221Z" fill="#231F20"/>
<path d="M66.8819 22.1921H66.812V22.4712H66.8819V22.1921Z" fill="#231F20"/>
<path d="M66.9505 22.4712H66.8806V22.5412H66.9505V22.4712Z" fill="#231F20"/>
<path d="M67.0204 22.3311H66.9505V22.4701H67.0204V22.3311Z" fill="#231F20"/>
<path d="M67.0896 22.2622H67.0204V22.3323H67.0896V22.2622Z" fill="#231F20"/>
<path d="M67.1595 22.3311H67.0897V22.4011H67.1595V22.3311Z" fill="#231F20"/>
<path d="M67.2281 22.4011H67.1583V22.4712H67.2281V22.4011Z" fill="#231F20"/>
<path d="M67.2974 22.2622H67.2281V22.4012H67.2974V22.2622Z" fill="#231F20"/>
<path d="M67.3673 22.1921H67.2974V22.2622H67.3673V22.1921Z" fill="#231F20"/>
<path d="M67.4359 22.2622H67.366V22.6113H67.4359V22.2622Z" fill="#231F20"/>
<path d="M67.5058 22.6101H67.4359V22.6801H67.5058V22.6101Z" fill="#231F20"/>
<path d="M67.5751 22.3311H67.5058V22.6101H67.5751V22.3311Z" fill="#231F20"/>
<path d="M67.645 22.2622H67.5751V22.3323H67.645V22.2622Z" fill="#231F20"/>
<path d="M67.7136 22.3311H67.6437V22.4701H67.7136V22.3311Z" fill="#231F20"/>
<path d="M67.7828 22.4712H67.7136V22.5412H67.7828V22.4712Z" fill="#231F20"/>
<path d="M67.8527 22.54H67.7828V22.6101H67.8527V22.54Z" fill="#231F20"/>
<path d="M67.9226 22.1921H67.8527V22.5413H67.9226V22.1921Z" fill="#231F20"/>
<path d="M67.9913 22.1221H67.9214V22.1921H67.9913V22.1221Z" fill="#231F20"/>
<path d="M68.0605 22.1921H67.9913V22.2622H68.0605V22.1921Z" fill="#231F20"/>
<path d="M68.1304 22.2622H68.0605V22.3323H68.1304V22.2622Z" fill="#231F20"/>
<path d="M68.199 21.843V22.1921H68.1292V22.2622H68.199V22.5401H68.1292V22.6102H68.199V22.7502H68.2683V21.843H68.199Z" fill="#231F20"/>
<path d="M67.8515 22.052H66.9505V22.122H67.8515V22.052Z" fill="#FFF0D8"/>
<path d="M68.0605 21.9832H67.8527V22.0532H68.0605V21.9832Z" fill="#FFF0D8"/>
<path d="M66.9505 21.9832H66.7427V22.0532H66.9505V21.9832Z" fill="#FFF0D8"/>
<path d="M66.7427 21.9131H66.6729V21.9831H66.7427V21.9131Z" fill="#FFF0D8"/>
<path d="M68.1304 21.9131H68.0605V21.9831H68.1304V21.9131Z" fill="#FFF0D8"/>
<path d="M67.4359 21.355H67.366V21.425H67.4359V21.355Z" fill="#ED1C24"/>
<path d="M67.4359 21.4951H67.366V21.5651H67.4359V21.4951Z" fill="#ED1C24"/>
<path d="M67.4359 21.634H67.366V21.7041H67.4359V21.634Z" fill="#ED1C24"/>
<path d="M67.4359 21.7742H67.366V21.8442H67.4359V21.7742Z" fill="#ED1C24"/>
<path d="M67.4359 20.7969H67.366V20.8669H67.4359V20.7969Z" fill="#FFEDA9"/>
<path d="M67.3673 20.8669H67.2974V21.0059H67.3673V20.8669Z" fill="#FFEDA9"/>
<path d="M66.6042 22.5401V22.4012H66.6728V22.3311H66.7427V22.1921H66.812V22.4712H66.8806V22.5401H66.9505V22.4712H67.0204V22.3311H67.0896V22.4012H67.1583V22.4712H67.2281V22.4012H67.2974V22.2622H67.366V22.6102H67.4359V22.6802H67.5058V22.6102H67.5751V22.3311H67.6437V22.4712H67.7136V22.5401H67.7835V22.6102H67.8527V22.5401H67.9214V22.1921H67.9912V22.2622H68.0605V22.3311H68.1291V22.2622H68.199V22.5401H68.1291V22.6102H67.9214V22.6802H67.7136V22.7503H67.0896V22.6802H66.8806V22.6102H66.6728V22.5401H66.6042Z" fill="#FFF0D8"/>
<path d="M66.6042 22.7501V22.6101H66.6728V22.6801H66.8806V22.7501H67.0896V22.8191H67.7136V22.7501H67.9214V22.6801H68.1291V22.6101H68.199V22.7501H67.9912V22.8191H67.7835V22.8891H67.0204V22.8191H66.812V22.7501H66.6042Z" fill="#CD8454"/>
<path d="M13.7484 10.1917V10.4696H13.6787V10.5397H13.6091V10.4696H13.5405V10.4007H13.6091V10.2606H13.6787V10.1917H13.7484Z" fill="#FFCB05"/>
<path d="M12.9157 11.7247H12.8472V11.2366H12.9854V11.1677H13.1933V11.0977H13.5406V11.3067H13.7485V11.0977H14.0957V11.1677H14.3035V11.2366H14.4418V11.5858H14.3721V11.6557H14.3035V11.5858H14.2339V11.5157H14.1642V11.5858H14.0957V11.9348H14.026V11.8648H13.9564V11.7247H13.8867V11.6557H13.8181V11.7247H13.7485V12.0037H13.6788V11.6557H13.6091V11.5858H13.5406V11.6557H13.4709V11.7948H13.4012V11.7247H13.3327V11.6557H13.263V11.7247H13.1933V11.8648H13.1237V11.5858H13.0551V11.5157H12.9854V11.5858H12.9157V11.7247Z" fill="#EC7A23"/>
<path d="M13.6788 10.6797H13.6091V11.2378H13.6788V10.6797Z" fill="white"/>
<path d="M12.9854 11.1677H12.8472V11.2378H12.9854V11.1677Z" fill="#231F20"/>
<path d="M13.1933 11.0977H12.9854V11.1677H13.1933V11.0977Z" fill="#231F20"/>
<path d="M13.6102 10.4695H13.5405V10.5395H13.6102V10.4695Z" fill="#231F20"/>
<path d="M13.7485 10.4695H13.6788V10.5395H13.7485V10.4695Z" fill="#231F20"/>
<path d="M13.8181 10.1917H13.7485V10.4707H13.8181V10.1917Z" fill="#231F20"/>
<path d="M13.5406 10.2605H13.4709V10.4695H13.5406V10.2605Z" fill="#231F20"/>
<path d="M13.6102 10.1917H13.5405V10.2617H13.6102V10.1917Z" fill="#231F20"/>
<path d="M13.6788 10.0515V10.1216H13.6091V10.1916H13.6788H13.7485V10.1216V10.0515H13.6788Z" fill="#231F20"/>
<path d="M13.6788 11.2366H13.6091V10.6785H13.6788V11.2366ZM14.0946 11.0276H13.7473V10.6095H13.6777V10.5396H13.608V10.6095H13.5383V11.0276H13.1911V11.0976H13.5383V11.3067H13.7462V11.0976H14.0935V11.0276H14.0946Z" fill="#231F20"/>
<path d="M14.3035 11.0977H14.0956V11.1677H14.3035V11.0977Z" fill="#231F20"/>
<path d="M14.4418 11.1677H14.3036V11.2378H14.4418V11.1677Z" fill="#231F20"/>
<path d="M14.026 12.283H13.2629V12.353H14.026V12.283Z" fill="#231F20"/>
<path d="M14.2339 12.2129H14.026V12.2829H14.2339V12.2129Z" fill="#231F20"/>
<path d="M14.4418 12.144H14.2339V12.214H14.4418V12.144Z" fill="#231F20"/>
<path d="M13.263 12.2129H13.0551V12.2829H13.263V12.2129Z" fill="#231F20"/>
<path d="M13.0551 12.144H12.8472V12.214H13.0551V12.144Z" fill="#231F20"/>
<path d="M13.9563 12.144H13.3326V12.214H13.9563V12.144Z" fill="#231F20"/>
<path d="M14.1642 12.074H13.9563V12.144H14.1642V12.074Z" fill="#231F20"/>
<path d="M14.3721 12.0039H14.1642V12.074H14.3721V12.0039Z" fill="#231F20"/>
<path d="M13.3316 12.074H13.1237V12.144H13.3316V12.074Z" fill="#231F20"/>
<path d="M13.1236 12.0039H12.9157V12.074H13.1236V12.0039Z" fill="#231F20"/>
<path d="M12.9157 11.7947V11.7247H12.8472V11.2366H12.7775V11.7247V11.7947V11.9347V12.0037V12.1438H12.8472V12.0037H12.9157V11.9347H12.8472V11.7947H12.9157Z" fill="#231F20"/>
<path d="M12.9854 11.5857H12.9157V11.7247H12.9854V11.5857Z" fill="#231F20"/>
<path d="M13.055 11.5156H12.9854V11.5857H13.055V11.5156Z" fill="#231F20"/>
<path d="M13.1247 11.5857H13.0551V11.8648H13.1247V11.5857Z" fill="#231F20"/>
<path d="M13.1933 11.8647H13.1237V11.9348H13.1933V11.8647Z" fill="#231F20"/>
<path d="M13.2629 11.7249H13.1933V11.8638H13.2629V11.7249Z" fill="#231F20"/>
<path d="M13.3326 11.6558H13.2629V11.7258H13.3326V11.6558Z" fill="#231F20"/>
<path d="M13.4023 11.7249H13.3326V11.7948H13.4023V11.7249Z" fill="#231F20"/>
<path d="M13.4709 11.7949H13.4012V11.8649H13.4709V11.7949Z" fill="#231F20"/>
<path d="M13.5406 11.6558H13.4709V11.7947H13.5406V11.6558Z" fill="#231F20"/>
<path d="M13.6102 11.5857H13.5405V11.6557H13.6102V11.5857Z" fill="#231F20"/>
<path d="M13.6788 11.6558H13.6091V12.0049H13.6788V11.6558Z" fill="#231F20"/>
<path d="M13.7485 12.0039H13.6788V12.074H13.7485V12.0039Z" fill="#231F20"/>
<path d="M13.8181 11.7249H13.7485V12.0039H13.8181V11.7249Z" fill="#231F20"/>
<path d="M13.8878 11.6558H13.8181V11.7258H13.8878V11.6558Z" fill="#231F20"/>
<path d="M13.9564 11.7249H13.8867V11.8638H13.9564V11.7249Z" fill="#231F20"/>
<path d="M14.026 11.8647H13.9563V11.9348H14.026V11.8647Z" fill="#231F20"/>
<path d="M14.0956 11.9348H14.026V12.0049H14.0956V11.9348Z" fill="#231F20"/>
<path d="M14.1653 11.5857H14.0956V11.9348H14.1653V11.5857Z" fill="#231F20"/>
<path d="M14.2339 11.5156H14.1642V11.5857H14.2339V11.5156Z" fill="#231F20"/>
<path d="M14.3035 11.5857H14.2339V11.6557H14.3035V11.5857Z" fill="#231F20"/>
<path d="M14.3732 11.6558H14.3036V11.7258H14.3732V11.6558Z" fill="#231F20"/>
<path d="M14.4418 11.2366V11.5857H14.3722V11.6557H14.4418V11.9347H14.3722V12.0037H14.4418V12.1438H14.5115V11.2366H14.4418Z" fill="#231F20"/>
<path d="M14.0945 11.4468H13.1933V11.5168H14.0945V11.4468Z" fill="#FFF0D8"/>
<path d="M14.3035 11.3767H14.0956V11.4468H14.3035V11.3767Z" fill="#FFF0D8"/>
<path d="M13.1933 11.3767H12.9854V11.4468H13.1933V11.3767Z" fill="#FFF0D8"/>
<path d="M12.9854 11.3066H12.9157V11.3767H12.9854V11.3066Z" fill="#FFF0D8"/>
<path d="M14.3732 11.3066H14.3036V11.3767H14.3732V11.3066Z" fill="#FFF0D8"/>
<path d="M13.6788 10.7485H13.6091V10.8186H13.6788V10.7485Z" fill="#ED1C24"/>
<path d="M13.6788 10.8887H13.6091V10.9587H13.6788V10.8887Z" fill="#ED1C24"/>
<path d="M13.6788 11.0276H13.6091V11.0976H13.6788V11.0276Z" fill="#ED1C24"/>
<path d="M13.6788 11.1677H13.6091V11.2378H13.6788V11.1677Z" fill="#ED1C24"/>
<path d="M13.6788 10.1917H13.6091V10.2617H13.6788V10.1917Z" fill="#FFEDA9"/>
<path d="M13.6102 10.2605H13.5405V10.3995H13.6102V10.2605Z" fill="#FFEDA9"/>
<path d="M12.8472 11.9348V11.7947H12.9157V11.7247H12.9854V11.5857H13.0551V11.8648H13.1237V11.9348H13.1933V11.8648H13.263V11.7247H13.3327V11.7947H13.4012V11.8648H13.4709V11.7947H13.5406V11.6557H13.6091V12.0037H13.6788V12.0738H13.7485V12.0037H13.8181V11.7247H13.8867V11.8648H13.9564V11.9348H14.026V12.0037H14.0957V11.9348H14.1642V11.5857H14.2339V11.6557H14.3035V11.7247H14.3721V11.6557H14.4418V11.9348H14.3721V12.0037H14.1642V12.0738H13.9564V12.1438H13.3327V12.0738H13.1237V12.0037H12.9157V11.9348H12.8472Z" fill="#FFF0D8"/>
<path d="M12.8472 12.1439V12.0039H12.9157V12.074H13.1237V12.1439H13.3327V12.2129H13.9564V12.1439H14.1642V12.074H14.3721V12.0039H14.4418V12.1439H14.2339V12.2129H14.026V12.283H13.263V12.2129H13.0551V12.1439H12.8472Z" fill="#CD8454"/>
</g>
</g>
<defs>
<clipPath id="clip0_1944_9351">
<rect width="76" height="29" fill="white"/>
</clipPath>
</defs>
</svg>
