<svg width="69" height="19" viewBox="0 0 69 19" fill="none" xmlns="http://www.w3.org/2000/svg">
<path d="M65.9648 16.5443C67.3221 16.5443 68.2836 16.3113 69 15.8094V13.533C68.2648 14.017 67.3787 14.3217 66.1344 14.3217C64.0418 14.3217 63.1746 12.7802 63.1746 10.3424C63.1746 7.77923 64.2303 6.47073 66.1533 6.47073C67.2844 6.47073 68.3967 6.84715 68.9812 7.20564V4.8396C68.359 4.51696 67.2844 4.28394 65.8139 4.28394C62.0623 4.28394 60.1205 6.84715 60.1205 10.4321C60.1394 14.3575 62.0435 16.5443 65.9648 16.5443ZM47.6213 15.5047V13.2283C46.7164 13.8198 45.1705 14.3396 43.7566 14.3396C41.6074 14.3396 40.7967 13.3717 40.6648 11.4H47.7533V9.93018C47.7533 5.82545 45.8492 4.28394 42.9271 4.28394C39.3451 4.28394 37.6484 6.883 37.6484 10.45C37.6484 14.5547 39.7787 16.5443 43.5115 16.5443C45.3779 16.5443 46.7541 16.0604 47.6213 15.5047ZM20.7189 4.49903V9.15942H16.7976V4.49903H13.8566V16.3113H16.7976V11.3821H20.7189V16.3113H23.6598V4.49903H20.7189ZM36.9131 14.0887H35.6123V4.49903H27.0533V5.50281C27.0533 8.38866 26.8648 12.117 25.8279 14.0887H24.8853V19H27.6V16.3113H34.1795V19H36.8943V14.0887H36.9131ZM56.991 16.3113H60.3279L55.6148 9.9481L59.7623 4.49903H56.8025L52.6549 9.9481V4.49903H49.714V16.3113H52.6549V10.5038L56.991 16.3113ZM42.8517 6.47073C44.3033 6.47073 44.7557 7.61791 44.7557 9.10565V9.33866H40.6648C40.7402 7.45658 41.4566 6.47073 42.8517 6.47073ZM32.6713 14.0887H28.5238C29.3344 12.3141 29.5607 9.08772 29.5607 7.04432V6.68583H32.6713V14.0887Z" fill="black"/>
<path d="M11.4057 16.3114H8.4082V2.20472H7.06967C4.61885 2.20472 3.33689 3.36982 3.33689 5.1085C3.33689 7.08021 4.22295 7.99436 6.05164 9.15946L7.55984 10.1274L3.22377 16.3114H0L3.90246 10.7906C1.65902 9.267 0.395902 7.77926 0.395902 5.26982C0.395902 2.13302 2.6959 0 7.05082 0H11.3869L11.4057 16.3114Z" fill="black"/>
</svg>
