<svg width="90" height="22" viewBox="0 0 90 22" fill="none" xmlns="http://www.w3.org/2000/svg">
<path fill-rule="evenodd" clip-rule="evenodd" d="M0 8.45234C0 3.77656 3.83627 0 8.55546 0V3.05722C5.54127 3.05722 3.0751 5.48501 3.0751 8.45234C3.0751 11.4196 5.54127 13.8474 8.55546 13.8474C11.5697 13.8474 14.0358 11.4496 14.0358 8.42233H17.1414C17.1414 13.0981 13.3052 16.8747 8.55546 16.8747C3.83627 16.9046 0 13.0981 0 8.45234Z" fill="black"/>
<path d="M4.78009 8.45239C4.78009 6.38428 6.48511 4.70581 8.58588 4.70581C10.6867 4.70581 12.3917 6.38428 12.3917 8.45239C12.3917 10.5205 10.6867 12.199 8.58588 12.199C6.48511 12.199 4.78009 10.5205 4.78009 8.45239Z" fill="black"/>
<path d="M11.2349 3.6866C11.2349 2.48769 12.2092 1.52856 13.427 1.52856C14.6449 1.52856 15.6192 2.48769 15.6192 3.6866C15.6192 4.88551 14.6449 5.84461 13.427 5.84461C12.2092 5.84461 11.2349 4.88551 11.2349 3.6866Z" fill="black"/>
<path d="M80.6833 5.69489L80.4094 7.0137C79.7698 9.86112 79.5263 10.7903 78.9784 13.6377L78.8563 13.7276L77.0906 13.7876L76.9995 13.6677L77.6993 10.7303L77.9125 9.7712C77.1514 9.74125 76.3903 9.74125 75.6293 9.74125C75.0504 9.74125 74.5943 9.74125 74.1375 9.7712C73.894 10.9102 73.6504 11.9292 73.3455 13.6377L73.224 13.7276L71.4578 13.7876L71.3666 13.6677L72.067 10.7303L72.3409 9.44149C72.7976 7.43334 72.8888 6.98375 73.1633 5.12543L73.2848 5.00554C74.1066 4.91562 74.2894 4.85568 75.1118 4.70581L75.2029 4.8257L75.0201 5.66493L74.7461 6.98375L74.4722 8.2426C75.1118 8.2426 75.7508 8.27255 76.3903 8.27255C77.0603 8.27255 77.517 8.27255 78.2477 8.2426C78.4913 7.16358 78.5824 6.56411 78.7956 5.1554L78.9176 5.03551C79.7395 4.94559 79.9223 4.88565 80.7441 4.73578L80.8358 4.85568L80.6833 5.69489Z" fill="black"/>
<path d="M58.7622 9.50136C58.8837 8.99186 58.9748 8.51226 58.9748 8.03272C58.9748 6.29427 57.8487 6.02451 57.2091 6.02451C54.4689 6.02451 54.134 10.1908 54.134 10.8202C54.134 12.1989 54.9561 12.7984 55.8999 12.7984C57.757 12.7984 58.4573 10.9101 58.7622 9.50136ZM60.5582 10.0409C60.1622 11.5096 59.1272 14.0572 55.839 14.0572C53.5251 14.0572 52.2463 12.8883 52.2463 10.5504C52.2463 10.2507 52.2768 9.921 52.3073 9.56133C52.3073 9.47141 52.3377 9.38149 52.3377 9.29157C53.0075 5.45505 54.7125 1.79838 58.4573 1.7684C58.9444 1.7684 59.9496 1.70846 60.6494 1.55859L60.4058 3.0872C59.7055 3.26704 58.6097 3.35696 58.0005 3.35696C57.2091 3.35696 56.6612 3.65669 56.2956 4.01636C56.1131 4.1962 55.9608 4.37603 55.839 4.55587C55.7172 4.7357 55.6564 4.88557 55.5955 5.00546C56.0826 4.8556 56.6309 4.76568 57.2395 4.76568C59.5232 4.76568 60.8625 6.02451 60.8625 8.21256C60.8322 8.81197 60.741 9.44145 60.5582 10.0409Z" fill="black"/>
<path fill-rule="evenodd" clip-rule="evenodd" d="M67.8043 11.5396C67.6215 11.6894 67.4393 11.8693 67.2261 11.9892C66.7693 12.259 66.1905 12.3788 65.7338 12.3788C64.1509 12.3788 63.7245 11.06 63.7245 10.2507C63.7245 10.1608 63.7549 7.97284 65.5819 6.74395C66.6169 6.05456 67.7132 6.0246 68.2914 6.0246C68.5654 6.0246 68.8089 6.05456 69.0829 6.05456L67.8043 11.5396ZM71.1231 4.88565L71.0319 4.73578L68.6571 4.70581C67.0736 4.70581 64.8208 4.79573 63.2374 6.65403C62.5067 7.4933 61.8671 8.96194 61.8671 10.3107C61.8671 12.4388 63.2981 13.6677 65.0644 13.6677C66.5258 13.6677 67.2868 13.0383 67.5911 12.7985L67.4696 13.4879L67.5608 13.6077L69.1746 13.5778L69.2961 13.4578C69.6313 11.4197 69.7528 10.7903 70.362 8.15268L71.1231 4.88565Z" fill="black"/>
<path fill-rule="evenodd" clip-rule="evenodd" d="M28.0413 9.11187C27.7064 10.6105 27.341 11.0601 27.1584 11.2999C26.8539 11.6595 26.4276 11.9593 25.9101 11.9593C25.3315 11.9593 24.8748 11.6895 24.6922 11.15C24.6313 11.0301 24.6008 10.8203 24.6008 10.4007C24.6008 9.62137 24.9662 7.70314 25.6056 6.86392C25.7882 6.65408 26.2145 6.17453 27.0061 6.17453C28.0108 6.17453 28.224 7.04376 28.224 7.67318C28.224 8.21269 28.1326 8.69223 28.0413 9.11187ZM30.8728 9.77125C31.025 9.20179 31.086 8.63227 31.086 8.06281C31.086 7.04376 30.8728 6.08461 29.9899 5.30532C29.1678 4.58597 28.0717 4.34619 27.0061 4.34619C22.5304 4.34619 21.678 8.42248 21.678 9.98104C21.678 11.2399 22.0433 12.1691 22.8045 12.8285C23.6265 13.5478 24.8444 13.6977 25.7274 13.6977C27.0366 13.6977 28.1631 13.4279 29.1373 12.6187C30.0507 11.9593 30.5988 10.8803 30.8728 9.77125Z" fill="black"/>
<path d="M37.8755 6.71386H37.6928C37.5405 7.40319 37.3579 8.1825 37.0534 9.4114L36.7794 10.6703C36.4749 12.1089 36.414 12.4686 36.2314 13.6675L36.1096 13.7574L33.1258 13.8174L33.0345 13.6975C33.5521 11.6893 33.6434 11.2997 34.161 9.14165L34.3437 8.30237C34.4959 7.61304 34.5872 7.16345 34.6786 6.74382H34.5872H33.6434L31.634 6.80378L31.5426 6.6539L32.1211 4.64571L32.2733 4.5558H38.1495L41.1333 4.49585L41.2246 4.58577L40.6765 6.59393L40.5243 6.71386L38.8193 6.6539H37.8755V6.71386Z" fill="black"/>
<path d="M48.1056 6.68385L44.8173 6.71386C44.8173 6.71386 44.4215 8.00267 44.0561 9.44135C43.6908 10.88 43.295 12.4686 43.0514 13.6375L42.9296 13.7275L40.1285 13.7874L40.0372 13.6675C40.6461 11.6593 40.7679 11.2697 41.3464 9.11164L41.5595 8.27242C41.7422 7.55308 41.864 7.10349 41.9554 6.6539L42.4425 4.64571L42.5643 4.5558H48.2273L51.2111 4.49585L51.3328 4.58577C51.3328 4.58577 50.7544 7.37324 50.389 9.23156C50.0237 11.1198 49.6279 13.5776 49.6279 13.5776L49.5061 13.6675L46.5832 13.7275L46.4919 13.6076C46.9486 11.6293 47.2835 10.1607 47.527 9.05173C47.8315 7.97271 47.9837 7.16345 48.1056 6.68385Z" fill="black"/>
<path d="M84.1848 8.45223C84.6107 8.09256 84.8238 7.88271 85.4027 7.3432C86.0113 6.77374 87.4727 5.2751 87.7472 4.97538L87.9294 4.88546H89.9088L89.9696 5.03532C89.7868 5.18519 89.6957 5.24513 89.0257 5.84461C88.7518 6.0544 88.569 6.23424 88.2343 6.53394L85.9809 8.5721L88.6601 13.6075L88.569 13.7574L86.6508 13.8174L86.4984 13.7274C86.0417 12.6784 85.9202 12.4386 85.311 11.1797L84.0932 8.75194C83.7281 10.4304 83.4845 11.4795 83.0582 13.6675L82.9361 13.7574L81.1704 13.8174L81.0793 13.6974L81.7796 10.7601L82.0535 9.47128C82.5103 7.46313 82.6014 7.01354 82.8753 5.15522L82.9974 5.03532C83.8192 4.9454 84.002 4.88546 84.8238 4.7356L84.9155 4.85548L84.7327 5.69473L84.4588 7.01354L84.1848 8.45223Z" fill="black"/>
</svg>
